SplineFontDB: 3.2
FontName: Atari-1025-Elongated
FullName: Atari 1025 Elongated Regular
FamilyName: Atari 1025 Elongated
Weight: Book
Copyright: Copyright Jeff Piepmeier 2020
Version: 1.0
ItalicAngle: 0
UnderlinePosition: 74
UnderlineWidth: 49
Ascent: 800
Descent: 200
InvalidEm: 0
sfntRevision: 0x00010000
LayerCount: 2
Layer: 0 1 "Back" 1
Layer: 1 1 "Fore" 0
XUID: [1021 362 -792500644 13739]
StyleMap: 0x0040
FSType: 4
OS2Version: 2
OS2_WeightWidthSlopeOnly: 0
OS2_UseTypoMetrics: 0
CreationTime: 1588422272
ModificationTime: 1589027372
PfmFamily: 81
TTFWeight: 400
TTFWidth: 5
LineGap: 0
VLineGap: 0
Panose: 0 0 4 0 0 0 0 0 0 0
OS2TypoAscent: 1000
OS2TypoAOffset: 0
OS2TypoDescent: 0
OS2TypoDOffset: 0
OS2TypoLinegap: 0
OS2WinAscent: 1000
OS2WinAOffset: 0
OS2WinDescent: 0
OS2WinDOffset: 0
HheadAscent: 1000
HheadAOffset: 0
HheadDescent: 0
HheadDOffset: 0
OS2SubXSize: 500
OS2SubYSize: 500
OS2SubXOff: 0
OS2SubYOff: 0
OS2SupXSize: 500
OS2SupYSize: 500
OS2SupXOff: 0
OS2SupYOff: 500
OS2StrikeYSize: 50
OS2StrikeYPos: 200
OS2CapHeight: 1000
OS2XHeight: 500
OS2Vendor: 'FSTR'
OS2CodePages: 00000011.00000000
OS2UnicodeRanges: 00000003.00000000.00000000.00000000
MarkAttachClasses: 1
DEI: 91125
ShortTable: maxp 16
  1
  0
  130
  782
  46
  0
  0
  2
  0
  0
  0
  0
  0
  0
  0
  0
EndShort
LangName: 1033 "" "" "Regular" "Atari 1025 Elongated" "" "Version 1.0" "" "" "" "" "" "" "" "Open Font License" "" "" "" "" "" "Five big quacking zephyrs jolt my wax bed"
Encoding: win
UnicodeInterp: none
NameList: AGL For New Fonts
DisplaySize: -48
AntiAlias: 1
FitToEm: 1
WinInfo: 46 23 9
BeginPrivate: 0
EndPrivate
BeginChars: 256 130

StartChar: exclam
Encoding: 33 33 1
Width: 1200
VWidth: 599
Flags: W
LayerCount: 2
Fore
SplineSet
450 0 m 1,0,1
 429 0 429 0 415 14 c 0,2,3
 401 29 401 29 400 50 c 256,4,5
 400 71 400 71 415 85 c 256,6,7
 429 99 429 99 450 100 c 0,8,9
 471 100 471 100 485 85 c 256,10,11
 499 71 499 71 500 50 c 256,12,13
 500 29 500 29 485 14 c 0,14,15
 471 0 471 0 450 0 c 1,16,-1
 450 0 l 1,0,1
550 0 m 1,17,18
 529 0 529 0 515 14 c 0,19,20
 501 29 501 29 500 50 c 256,21,22
 500 71 500 71 515 85 c 256,23,24
 529 99 529 99 550 100 c 256,25,26
 571 100 571 100 585 85 c 0,27,28
 599 71 599 71 599 50 c 256,29,30
 599 29 599 29 585 14 c 0,31,32
 570 0 570 0 550 0 c 1,33,-1
 550 0 l 1,17,18
450 200 m 1,34,35
 429 200 429 200 415 215 c 256,36,37
 401 229 401 229 400 250 c 256,38,39
 400 271 400 271 415 286 c 0,40,41
 429 300 429 300 450 300 c 0,42,43
 471 300 471 300 485 286 c 0,44,45
 499 271 499 271 500 250 c 256,46,47
 500 229 500 229 485 215 c 256,48,49
 471 201 471 201 450 200 c 1,50,-1
 450 200 l 1,34,35
550 200 m 1,51,52
 529 200 529 200 515 215 c 256,53,54
 501 229 501 229 500 250 c 256,55,56
 500 271 500 271 515 286 c 0,57,58
 529 300 529 300 550 300 c 256,59,60
 571 300 571 300 585 286 c 0,61,62
 599 271 599 271 599 250 c 256,63,64
 599 229 599 229 585 215 c 0,65,66
 570 201 570 201 550 200 c 1,67,-1
 550 200 l 1,51,52
450 300 m 1,68,69
 429 300 429 300 415 314 c 0,70,71
 401 329 401 329 400 350 c 256,72,73
 400 371 400 371 415 385 c 256,74,75
 429 399 429 399 450 400 c 0,76,77
 471 400 471 400 485 385 c 256,78,79
 499 371 499 371 500 350 c 256,80,81
 500 329 500 329 485 314 c 0,82,83
 471 300 471 300 450 300 c 1,84,-1
 450 300 l 1,68,69
550 300 m 1,85,86
 529 300 529 300 515 314 c 0,87,88
 501 329 501 329 500 350 c 256,89,90
 500 371 500 371 515 385 c 256,91,92
 529 399 529 399 550 400 c 256,93,94
 571 400 571 400 585 385 c 0,95,96
 599 371 599 371 599 350 c 256,97,98
 599 329 599 329 585 314 c 0,99,100
 570 300 570 300 550 300 c 1,101,-1
 550 300 l 1,85,86
450 400 m 1,102,103
 429 400 429 400 415 415 c 256,104,105
 401 429 401 429 400 450 c 0,106,107
 400 471 400 471 415 485 c 256,108,109
 429 499 429 499 450 500 c 0,110,111
 471 500 471 500 485 485 c 256,112,113
 499 471 499 471 500 450 c 0,114,115
 500 429 500 429 485 415 c 256,116,117
 471 401 471 401 450 400 c 1,118,-1
 450 400 l 1,102,103
550 400 m 1,119,120
 529 400 529 400 515 415 c 256,121,122
 501 429 501 429 500 450 c 0,123,124
 500 471 500 471 515 485 c 256,125,126
 529 499 529 499 550 500 c 256,127,128
 571 500 571 500 585 485 c 0,129,130
 599 471 599 471 599 450 c 0,131,132
 599 429 599 429 585 415 c 0,133,134
 570 401 570 401 550 400 c 1,135,-1
 550 400 l 1,119,120
450 500 m 1,136,137
 429 500 429 500 415 515 c 256,138,139
 401 529 401 529 400 550 c 256,140,141
 400 571 400 571 415 585 c 0,142,143
 429 599 429 599 450 599 c 0,144,145
 471 599 471 599 485 585 c 0,146,147
 499 570 499 570 500 550 c 256,148,149
 500 529 500 529 485 515 c 256,150,151
 471 501 471 501 450 500 c 1,152,-1
 450 500 l 1,136,137
550 500 m 1,153,154
 529 500 529 500 515 515 c 256,155,156
 501 529 501 529 500 550 c 256,157,158
 500 571 500 571 515 585 c 0,159,160
 529 599 529 599 550 599 c 256,161,162
 571 599 571 599 585 585 c 0,163,164
 599 570 599 570 599 550 c 256,165,166
 599 529 599 529 585 515 c 0,167,168
 570 501 570 501 550 500 c 1,169,-1
 550 500 l 1,153,154
450 599 m 1,170,171
 429 599 429 599 415 615 c 0,172,173
 401 630 401 630 400 649 c 256,174,175
 400 670 400 670 415 685 c 256,176,177
 429 699 429 699 450 700 c 0,178,179
 471 700 471 700 485 685 c 256,180,181
 499 671 499 671 500 649 c 256,182,183
 500 628 500 628 485 615 c 0,184,185
 471 601 471 601 450 599 c 1,186,-1
 450 599 l 1,170,171
550 599 m 1,187,188
 529 599 529 599 515 615 c 0,189,190
 501 630 501 630 500 649 c 256,191,192
 500 670 500 670 515 685 c 256,193,194
 529 699 529 699 550 700 c 256,195,196
 571 700 571 700 585 685 c 0,197,198
 599 671 599 671 599 649 c 256,199,200
 599 628 599 628 585 615 c 0,201,202
 570 601 570 601 550 599 c 1,203,-1
 550 599 l 1,187,188
EndSplineSet
Validated: 5
EndChar

StartChar: quotedbl
Encoding: 34 34 2
Width: 1200
VWidth: 599
Flags: W
LayerCount: 2
Fore
SplineSet
250 400 m 1,0,1
 229 400 229 400 215 415 c 256,2,3
 201 429 201 429 200 450 c 0,4,5
 200 471 200 471 215 485 c 256,6,7
 229 499 229 499 250 500 c 256,8,9
 271 500 271 500 286 485 c 0,10,11
 300 471 300 471 300 450 c 0,12,13
 300 429 300 429 286 415 c 0,14,15
 271 401 271 401 250 400 c 1,16,-1
 250 400 l 1,0,1
350 400 m 1,17,18
 329 400 329 400 314 415 c 0,19,20
 300 429 300 429 300 450 c 0,21,22
 300 471 300 471 314 485 c 0,23,24
 329 499 329 499 350 500 c 256,25,26
 371 500 371 500 385 485 c 256,27,28
 399 471 399 471 400 450 c 0,29,30
 400 429 400 429 385 415 c 256,31,32
 371 401 371 401 350 400 c 1,33,-1
 350 400 l 1,17,18
649 400 m 1,34,35
 628 400 628 400 615 415 c 0,36,37
 601 429 601 429 599 450 c 0,38,39
 599 471 599 471 615 485 c 0,40,41
 630 499 630 499 649 500 c 256,42,43
 670 500 670 500 685 485 c 256,44,45
 699 471 699 471 700 450 c 0,46,47
 700 429 700 429 685 415 c 256,48,49
 671 401 671 401 649 400 c 1,50,-1
 649 400 l 1,34,35
749 400 m 1,51,52
 728 400 728 400 714 415 c 256,53,54
 700 429 700 429 700 450 c 0,55,56
 700 471 700 471 714 485 c 256,57,58
 728 499 728 499 749 500 c 0,59,60
 770 500 770 500 785 485 c 256,61,62
 799 471 799 471 799 450 c 0,63,64
 799 429 799 429 785 415 c 256,65,66
 771 401 771 401 749 400 c 1,67,-1
 749 400 l 1,51,52
250 500 m 1,68,69
 229 500 229 500 215 515 c 256,70,71
 201 529 201 529 200 550 c 256,72,73
 200 571 200 571 215 585 c 0,74,75
 229 599 229 599 250 599 c 256,76,77
 271 599 271 599 286 585 c 0,78,79
 300 570 300 570 300 550 c 256,80,81
 300 529 300 529 286 515 c 0,82,83
 271 501 271 501 250 500 c 1,84,-1
 250 500 l 1,68,69
350 500 m 1,85,86
 329 500 329 500 314 515 c 0,87,88
 300 529 300 529 300 550 c 256,89,90
 300 571 300 571 314 585 c 0,91,92
 329 599 329 599 350 599 c 256,93,94
 371 599 371 599 385 585 c 0,95,96
 399 570 399 570 400 550 c 256,97,98
 400 529 400 529 385 515 c 256,99,100
 371 501 371 501 350 500 c 1,101,-1
 350 500 l 1,85,86
649 500 m 1,102,103
 628 500 628 500 615 515 c 0,104,105
 601 529 601 529 599 550 c 256,106,107
 599 571 599 571 615 585 c 0,108,109
 630 599 630 599 649 599 c 256,110,111
 670 599 670 599 685 585 c 0,112,113
 699 570 699 570 700 550 c 256,114,115
 700 529 700 529 685 515 c 256,116,117
 671 501 671 501 649 500 c 1,118,-1
 649 500 l 1,102,103
749 500 m 1,119,120
 728 500 728 500 714 515 c 256,121,122
 700 529 700 529 700 550 c 256,123,124
 700 571 700 571 714 585 c 0,125,126
 728 599 728 599 749 599 c 0,127,128
 770 599 770 599 785 585 c 0,129,130
 799 570 799 570 799 550 c 256,131,132
 799 529 799 529 785 515 c 256,133,134
 771 501 771 501 749 500 c 1,135,-1
 749 500 l 1,119,120
250 599 m 1,136,137
 229 599 229 599 215 615 c 0,138,139
 201 630 201 630 200 649 c 256,140,141
 200 670 200 670 215 685 c 256,142,143
 229 699 229 699 250 700 c 256,144,145
 271 700 271 700 286 685 c 0,146,147
 300 671 300 671 300 649 c 256,148,149
 300 628 300 628 286 615 c 0,150,151
 271 601 271 601 250 599 c 1,152,-1
 250 599 l 1,136,137
350 599 m 1,153,154
 329 599 329 599 314 615 c 0,155,156
 300 630 300 630 300 649 c 256,157,158
 300 670 300 670 314 685 c 0,159,160
 329 699 329 699 350 700 c 256,161,162
 371 700 371 700 385 685 c 256,163,164
 399 671 399 671 400 649 c 256,165,166
 400 628 400 628 385 615 c 0,167,168
 371 601 371 601 350 599 c 1,169,-1
 350 599 l 1,153,154
649 599 m 1,170,171
 628 599 628 599 615 615 c 0,172,173
 601 630 601 630 599 649 c 256,174,175
 599 670 599 670 615 685 c 0,176,177
 630 699 630 699 649 700 c 256,178,179
 670 700 670 700 685 685 c 256,180,181
 699 671 699 671 700 649 c 256,182,183
 700 628 700 628 685 615 c 0,184,185
 671 601 671 601 649 599 c 1,186,-1
 649 599 l 1,170,171
749 599 m 1,187,188
 728 599 728 599 714 615 c 0,189,190
 700 630 700 630 700 649 c 256,191,192
 700 670 700 670 714 685 c 256,193,194
 728 699 728 699 749 700 c 0,195,196
 770 700 770 700 785 685 c 256,197,198
 799 671 799 671 799 649 c 256,199,200
 799 628 799 628 785 615 c 0,201,202
 771 601 771 601 749 599 c 1,203,-1
 749 599 l 1,187,188
EndSplineSet
Validated: 5
EndChar

StartChar: numbersign
Encoding: 35 35 3
Width: 1200
VWidth: 599
Flags: W
LayerCount: 2
Fore
SplineSet
250 0 m 1,0,1
 229 0 229 0 215 14 c 0,2,3
 201 29 201 29 200 50 c 256,4,5
 200 71 200 71 215 85 c 256,6,7
 229 99 229 99 250 100 c 256,8,9
 271 100 271 100 286 85 c 0,10,11
 300 71 300 71 300 50 c 256,12,13
 300 29 300 29 286 14 c 0,14,15
 271 0 271 0 250 0 c 1,16,-1
 250 0 l 1,0,1
350 0 m 1,17,18
 329 0 329 0 314 14 c 0,19,20
 300 29 300 29 300 50 c 256,21,22
 300 71 300 71 314 85 c 0,23,24
 329 99 329 99 350 100 c 256,25,26
 371 100 371 100 385 85 c 256,27,28
 399 71 399 71 400 50 c 256,29,30
 400 29 400 29 385 14 c 0,31,32
 371 0 371 0 350 0 c 1,33,-1
 350 0 l 1,17,18
649 0 m 1,34,35
 628 0 628 0 615 14 c 0,36,37
 601 29 601 29 599 50 c 256,38,39
 599 71 599 71 615 85 c 0,40,41
 630 99 630 99 649 100 c 256,42,43
 670 100 670 100 685 85 c 256,44,45
 699 71 699 71 700 50 c 256,46,47
 700 29 700 29 685 14 c 0,48,49
 671 0 671 0 649 0 c 1,50,-1
 649 0 l 1,34,35
749 0 m 1,51,52
 728 0 728 0 714 14 c 0,53,54
 700 29 700 29 700 50 c 256,55,56
 700 71 700 71 714 85 c 256,57,58
 728 99 728 99 749 100 c 0,59,60
 770 100 770 100 785 85 c 256,61,62
 799 71 799 71 799 50 c 256,63,64
 799 29 799 29 785 14 c 0,65,66
 771 0 771 0 749 0 c 1,67,-1
 749 0 l 1,51,52
250 100 m 1,68,69
 229 100 229 100 215 115 c 256,70,71
 201 129 201 129 200 150 c 0,72,73
 200 171 200 171 215 186 c 256,74,75
 229 200 229 200 250 200 c 256,76,77
 271 200 271 200 286 186 c 0,78,79
 300 172 300 172 300 150 c 0,80,81
 300 129 300 129 286 115 c 0,82,83
 271 101 271 101 250 100 c 1,84,-1
 250 100 l 1,68,69
350 100 m 1,85,86
 329 100 329 100 314 115 c 0,87,88
 300 129 300 129 300 150 c 0,89,90
 300 171 300 171 314 186 c 0,91,92
 329 200 329 200 350 200 c 256,93,94
 371 200 371 200 385 186 c 256,95,96
 399 172 399 172 400 150 c 0,97,98
 400 129 400 129 385 115 c 256,99,100
 371 101 371 101 350 100 c 1,101,-1
 350 100 l 1,85,86
649 100 m 1,102,103
 628 100 628 100 615 115 c 0,104,105
 601 129 601 129 599 150 c 0,106,107
 599 171 599 171 615 186 c 0,108,109
 630 200 630 200 649 200 c 256,110,111
 670 200 670 200 685 186 c 256,112,113
 699 172 699 172 700 150 c 0,114,115
 700 129 700 129 685 115 c 256,116,117
 671 101 671 101 649 100 c 1,118,-1
 649 100 l 1,102,103
749 100 m 1,119,120
 728 100 728 100 714 115 c 256,121,122
 700 129 700 129 700 150 c 0,123,124
 700 171 700 171 714 186 c 256,125,126
 728 200 728 200 749 200 c 0,127,128
 770 200 770 200 785 186 c 256,129,130
 799 172 799 172 799 150 c 0,131,132
 799 129 799 129 785 115 c 256,133,134
 771 101 771 101 749 100 c 1,135,-1
 749 100 l 1,119,120
50 200 m 1,136,137
 29 200 29 200 14 215 c 0,138,139
 0 229 0 229 0 250 c 256,140,141
 0 271 0 271 14 286 c 0,142,143
 29 300 29 300 50 300 c 256,144,145
 71 300 71 300 85 286 c 0,146,147
 99 271 99 271 100 250 c 256,148,149
 100 229 100 229 85 215 c 256,150,151
 71 201 71 201 50 200 c 1,152,-1
 50 200 l 1,136,137
150 200 m 1,153,154
 129 200 129 200 115 215 c 256,155,156
 101 229 101 229 100 250 c 256,157,158
 100 271 100 271 115 286 c 0,159,160
 129 300 129 300 150 300 c 0,161,162
 171 300 171 300 186 286 c 0,163,164
 200 271 200 271 200 250 c 256,165,166
 200 229 200 229 186 215 c 256,167,168
 172 201 172 201 150 200 c 1,169,-1
 150 200 l 1,153,154
250 200 m 1,170,171
 229 200 229 200 215 215 c 256,172,173
 201 229 201 229 200 250 c 256,174,175
 200 271 200 271 215 286 c 0,176,177
 229 300 229 300 250 300 c 256,178,179
 271 300 271 300 286 286 c 0,180,181
 300 271 300 271 300 250 c 256,182,183
 300 229 300 229 286 215 c 0,184,185
 271 201 271 201 250 200 c 1,186,-1
 250 200 l 1,170,171
350 200 m 1,187,188
 329 200 329 200 314 215 c 0,189,190
 300 229 300 229 300 250 c 256,191,192
 300 271 300 271 314 286 c 0,193,194
 329 300 329 300 350 300 c 256,195,196
 371 300 371 300 385 286 c 0,197,198
 399 271 399 271 400 250 c 256,199,200
 400 229 400 229 385 215 c 256,201,202
 371 201 371 201 350 200 c 1,203,-1
 350 200 l 1,187,188
450 200 m 1,204,205
 429 200 429 200 415 215 c 256,206,207
 401 229 401 229 400 250 c 256,208,209
 400 271 400 271 415 286 c 0,210,211
 429 300 429 300 450 300 c 0,212,213
 471 300 471 300 485 286 c 0,214,215
 499 271 499 271 500 250 c 256,216,217
 500 229 500 229 485 215 c 256,218,219
 471 201 471 201 450 200 c 1,220,-1
 450 200 l 1,204,205
550 200 m 1,221,222
 529 200 529 200 515 215 c 256,223,224
 501 229 501 229 500 250 c 256,225,226
 500 271 500 271 515 286 c 0,227,228
 529 300 529 300 550 300 c 256,229,230
 571 300 571 300 585 286 c 0,231,232
 599 271 599 271 599 250 c 256,233,234
 599 229 599 229 585 215 c 0,235,236
 570 201 570 201 550 200 c 1,237,-1
 550 200 l 1,221,222
649 200 m 1,238,239
 628 200 628 200 615 215 c 0,240,241
 601 229 601 229 599 250 c 256,242,243
 599 271 599 271 615 286 c 0,244,245
 630 300 630 300 649 300 c 256,246,247
 670 300 670 300 685 286 c 0,248,249
 699 271 699 271 700 250 c 256,250,251
 700 229 700 229 685 215 c 256,252,253
 671 201 671 201 649 200 c 1,254,-1
 649 200 l 1,238,239
749 200 m 1,255,256
 728 200 728 200 714 215 c 256,257,258
 700 229 700 229 700 250 c 256,259,260
 700 271 700 271 714 286 c 0,261,262
 728 300 728 300 749 300 c 0,263,264
 770 300 770 300 785 286 c 0,265,266
 799 271 799 271 799 250 c 256,267,268
 799 229 799 229 785 215 c 256,269,270
 771 201 771 201 749 200 c 1,271,-1
 749 200 l 1,255,256
850 200 m 1,272,273
 829 200 829 200 814 215 c 256,274,275
 800 229 800 229 799 250 c 256,276,277
 799 271 799 271 814 286 c 0,278,279
 828 300 828 300 850 300 c 256,280,281
 871 300 871 300 885 286 c 0,282,283
 899 271 899 271 900 250 c 256,284,285
 900 229 900 229 885 215 c 0,286,287
 870 201 870 201 850 200 c 1,288,-1
 850 200 l 1,272,273
949 200 m 1,289,290
 928 200 928 200 914 215 c 0,291,292
 900 229 900 229 900 250 c 256,293,294
 900 271 900 271 914 286 c 0,295,296
 929 300 929 300 949 300 c 256,297,298
 970 300 970 300 985 286 c 0,299,300
 999 271 999 271 1000 250 c 256,301,302
 1000 229 1000 229 985 215 c 256,303,304
 971 201 971 201 949 200 c 1,305,-1
 949 200 l 1,289,290
250 300 m 1,306,307
 229 300 229 300 215 314 c 0,308,309
 201 329 201 329 200 350 c 256,310,311
 200 371 200 371 215 385 c 256,312,313
 229 399 229 399 250 400 c 256,314,315
 271 400 271 400 286 385 c 0,316,317
 300 371 300 371 300 350 c 256,318,319
 300 329 300 329 286 314 c 0,320,321
 271 300 271 300 250 300 c 1,322,-1
 250 300 l 1,306,307
350 300 m 1,323,324
 329 300 329 300 314 314 c 0,325,326
 300 329 300 329 300 350 c 256,327,328
 300 371 300 371 314 385 c 0,329,330
 329 399 329 399 350 400 c 256,331,332
 371 400 371 400 385 385 c 256,333,334
 399 371 399 371 400 350 c 256,335,336
 400 329 400 329 385 314 c 0,337,338
 371 300 371 300 350 300 c 1,339,-1
 350 300 l 1,323,324
649 300 m 1,340,341
 628 300 628 300 615 314 c 0,342,343
 601 329 601 329 599 350 c 256,344,345
 599 371 599 371 615 385 c 0,346,347
 630 399 630 399 649 400 c 256,348,349
 670 400 670 400 685 385 c 256,350,351
 699 371 699 371 700 350 c 256,352,353
 700 329 700 329 685 314 c 0,354,355
 671 300 671 300 649 300 c 1,356,-1
 649 300 l 1,340,341
749 300 m 1,357,358
 728 300 728 300 714 314 c 0,359,360
 700 329 700 329 700 350 c 256,361,362
 700 371 700 371 714 385 c 256,363,364
 728 399 728 399 749 400 c 0,365,366
 770 400 770 400 785 385 c 256,367,368
 799 371 799 371 799 350 c 256,369,370
 799 329 799 329 785 314 c 0,371,372
 771 300 771 300 749 300 c 1,373,-1
 749 300 l 1,357,358
50 400 m 1,374,375
 29 400 29 400 14 415 c 0,376,377
 0 429 0 429 0 450 c 0,378,379
 0 471 0 471 14 485 c 0,380,381
 29 499 29 499 50 500 c 256,382,383
 71 500 71 500 85 485 c 256,384,385
 99 471 99 471 100 450 c 0,386,387
 100 429 100 429 85 415 c 256,388,389
 71 401 71 401 50 400 c 1,390,-1
 50 400 l 1,374,375
150 400 m 1,391,392
 129 400 129 400 115 415 c 256,393,394
 101 429 101 429 100 450 c 0,395,396
 100 471 100 471 115 485 c 256,397,398
 129 499 129 499 150 500 c 0,399,400
 171 500 171 500 186 485 c 256,401,402
 200 471 200 471 200 450 c 0,403,404
 200 429 200 429 186 415 c 256,405,406
 172 401 172 401 150 400 c 1,407,-1
 150 400 l 1,391,392
250 400 m 1,408,409
 229 400 229 400 215 415 c 256,410,411
 201 429 201 429 200 450 c 0,412,413
 200 471 200 471 215 485 c 256,414,415
 229 499 229 499 250 500 c 256,416,417
 271 500 271 500 286 485 c 0,418,419
 300 471 300 471 300 450 c 0,420,421
 300 429 300 429 286 415 c 0,422,423
 271 401 271 401 250 400 c 1,424,-1
 250 400 l 1,408,409
350 400 m 1,425,426
 329 400 329 400 314 415 c 0,427,428
 300 429 300 429 300 450 c 0,429,430
 300 471 300 471 314 485 c 0,431,432
 329 499 329 499 350 500 c 256,433,434
 371 500 371 500 385 485 c 256,435,436
 399 471 399 471 400 450 c 0,437,438
 400 429 400 429 385 415 c 256,439,440
 371 401 371 401 350 400 c 1,441,-1
 350 400 l 1,425,426
450 400 m 1,442,443
 429 400 429 400 415 415 c 256,444,445
 401 429 401 429 400 450 c 0,446,447
 400 471 400 471 415 485 c 256,448,449
 429 499 429 499 450 500 c 0,450,451
 471 500 471 500 485 485 c 256,452,453
 499 471 499 471 500 450 c 0,454,455
 500 429 500 429 485 415 c 256,456,457
 471 401 471 401 450 400 c 1,458,-1
 450 400 l 1,442,443
550 400 m 1,459,460
 529 400 529 400 515 415 c 256,461,462
 501 429 501 429 500 450 c 0,463,464
 500 471 500 471 515 485 c 256,465,466
 529 499 529 499 550 500 c 256,467,468
 571 500 571 500 585 485 c 0,469,470
 599 471 599 471 599 450 c 0,471,472
 599 429 599 429 585 415 c 0,473,474
 570 401 570 401 550 400 c 1,475,-1
 550 400 l 1,459,460
649 400 m 1,476,477
 628 400 628 400 615 415 c 0,478,479
 601 429 601 429 599 450 c 0,480,481
 599 471 599 471 615 485 c 0,482,483
 630 499 630 499 649 500 c 256,484,485
 670 500 670 500 685 485 c 256,486,487
 699 471 699 471 700 450 c 0,488,489
 700 429 700 429 685 415 c 256,490,491
 671 401 671 401 649 400 c 1,492,-1
 649 400 l 1,476,477
749 400 m 1,493,494
 728 400 728 400 714 415 c 256,495,496
 700 429 700 429 700 450 c 0,497,498
 700 471 700 471 714 485 c 256,499,500
 728 499 728 499 749 500 c 0,501,502
 770 500 770 500 785 485 c 256,503,504
 799 471 799 471 799 450 c 0,505,506
 799 429 799 429 785 415 c 256,507,508
 771 401 771 401 749 400 c 1,509,-1
 749 400 l 1,493,494
850 400 m 1,510,511
 829 400 829 400 814 415 c 256,512,513
 800 429 800 429 799 450 c 0,514,515
 799 471 799 471 814 485 c 256,516,517
 828 499 828 499 850 500 c 256,518,519
 871 500 871 500 885 485 c 0,520,521
 899 471 899 471 900 450 c 0,522,523
 900 429 900 429 885 415 c 0,524,525
 870 401 870 401 850 400 c 1,526,-1
 850 400 l 1,510,511
949 400 m 1,527,528
 928 400 928 400 914 415 c 0,529,530
 900 429 900 429 900 450 c 0,531,532
 900 471 900 471 914 485 c 0,533,534
 929 499 929 499 949 500 c 256,535,536
 970 500 970 500 985 485 c 256,537,538
 999 471 999 471 1000 450 c 0,539,540
 1000 429 1000 429 985 415 c 256,541,542
 971 401 971 401 949 400 c 1,543,-1
 949 400 l 1,527,528
250 500 m 1,544,545
 229 500 229 500 215 515 c 256,546,547
 201 529 201 529 200 550 c 256,548,549
 200 571 200 571 215 585 c 0,550,551
 229 599 229 599 250 599 c 256,552,553
 271 599 271 599 286 585 c 0,554,555
 300 570 300 570 300 550 c 256,556,557
 300 529 300 529 286 515 c 0,558,559
 271 501 271 501 250 500 c 1,560,-1
 250 500 l 1,544,545
350 500 m 1,561,562
 329 500 329 500 314 515 c 0,563,564
 300 529 300 529 300 550 c 256,565,566
 300 571 300 571 314 585 c 0,567,568
 329 599 329 599 350 599 c 256,569,570
 371 599 371 599 385 585 c 0,571,572
 399 570 399 570 400 550 c 256,573,574
 400 529 400 529 385 515 c 256,575,576
 371 501 371 501 350 500 c 1,577,-1
 350 500 l 1,561,562
649 500 m 1,578,579
 628 500 628 500 615 515 c 0,580,581
 601 529 601 529 599 550 c 256,582,583
 599 571 599 571 615 585 c 0,584,585
 630 599 630 599 649 599 c 256,586,587
 670 599 670 599 685 585 c 0,588,589
 699 570 699 570 700 550 c 256,590,591
 700 529 700 529 685 515 c 256,592,593
 671 501 671 501 649 500 c 1,594,-1
 649 500 l 1,578,579
749 500 m 1,595,596
 728 500 728 500 714 515 c 256,597,598
 700 529 700 529 700 550 c 256,599,600
 700 571 700 571 714 585 c 0,601,602
 728 599 728 599 749 599 c 0,603,604
 770 599 770 599 785 585 c 0,605,606
 799 570 799 570 799 550 c 256,607,608
 799 529 799 529 785 515 c 256,609,610
 771 501 771 501 749 500 c 1,611,-1
 749 500 l 1,595,596
250 599 m 1,612,613
 229 599 229 599 215 615 c 0,614,615
 201 630 201 630 200 649 c 256,616,617
 200 670 200 670 215 685 c 256,618,619
 229 699 229 699 250 700 c 256,620,621
 271 700 271 700 286 685 c 0,622,623
 300 671 300 671 300 649 c 256,624,625
 300 628 300 628 286 615 c 0,626,627
 271 601 271 601 250 599 c 1,628,-1
 250 599 l 1,612,613
350 599 m 1,629,630
 329 599 329 599 314 615 c 0,631,632
 300 630 300 630 300 649 c 256,633,634
 300 670 300 670 314 685 c 0,635,636
 329 699 329 699 350 700 c 256,637,638
 371 700 371 700 385 685 c 256,639,640
 399 671 399 671 400 649 c 256,641,642
 400 628 400 628 385 615 c 0,643,644
 371 601 371 601 350 599 c 1,645,-1
 350 599 l 1,629,630
649 599 m 1,646,647
 628 599 628 599 615 615 c 0,648,649
 601 630 601 630 599 649 c 256,650,651
 599 670 599 670 615 685 c 0,652,653
 630 699 630 699 649 700 c 256,654,655
 670 700 670 700 685 685 c 256,656,657
 699 671 699 671 700 649 c 256,658,659
 700 628 700 628 685 615 c 0,660,661
 671 601 671 601 649 599 c 1,662,-1
 649 599 l 1,646,647
749 599 m 1,663,664
 728 599 728 599 714 615 c 0,665,666
 700 630 700 630 700 649 c 256,667,668
 700 670 700 670 714 685 c 256,669,670
 728 699 728 699 749 700 c 0,671,672
 770 700 770 700 785 685 c 256,673,674
 799 671 799 671 799 649 c 256,675,676
 799 628 799 628 785 615 c 0,677,678
 771 601 771 601 749 599 c 1,679,-1
 749 599 l 1,663,664
EndSplineSet
Validated: 5
EndChar

StartChar: dollar
Encoding: 36 36 4
Width: 1200
VWidth: 599
Flags: W
LayerCount: 2
Fore
SplineSet
450 0 m 1,0,1
 429 0 429 0 415 14 c 0,2,3
 401 29 401 29 400 50 c 256,4,5
 400 71 400 71 415 85 c 256,6,7
 429 99 429 99 450 100 c 0,8,9
 471 100 471 100 485 85 c 256,10,11
 499 71 499 71 500 50 c 256,12,13
 500 29 500 29 485 14 c 0,14,15
 471 0 471 0 450 0 c 1,16,-1
 450 0 l 1,0,1
550 0 m 1,17,18
 529 0 529 0 515 14 c 0,19,20
 501 29 501 29 500 50 c 256,21,22
 500 71 500 71 515 85 c 256,23,24
 529 99 529 99 550 100 c 256,25,26
 571 100 571 100 585 85 c 0,27,28
 599 71 599 71 599 50 c 256,29,30
 599 29 599 29 585 14 c 0,31,32
 570 0 570 0 550 0 c 1,33,-1
 550 0 l 1,17,18
150 100 m 1,34,35
 129 100 129 100 115 115 c 256,36,37
 101 129 101 129 100 150 c 0,38,39
 100 171 100 171 115 186 c 256,40,41
 129 200 129 200 150 200 c 0,42,43
 171 200 171 200 186 186 c 256,44,45
 200 172 200 172 200 150 c 0,46,47
 200 129 200 129 186 115 c 256,48,49
 172 101 172 101 150 100 c 1,50,-1
 150 100 l 1,34,35
250 100 m 1,51,52
 229 100 229 100 215 115 c 256,53,54
 201 129 201 129 200 150 c 0,55,56
 200 171 200 171 215 186 c 256,57,58
 229 200 229 200 250 200 c 256,59,60
 271 200 271 200 286 186 c 0,61,62
 300 172 300 172 300 150 c 0,63,64
 300 129 300 129 286 115 c 0,65,66
 271 101 271 101 250 100 c 1,67,-1
 250 100 l 1,51,52
350 100 m 1,68,69
 329 100 329 100 314 115 c 0,70,71
 300 129 300 129 300 150 c 0,72,73
 300 171 300 171 314 186 c 0,74,75
 329 200 329 200 350 200 c 256,76,77
 371 200 371 200 385 186 c 256,78,79
 399 172 399 172 400 150 c 0,80,81
 400 129 400 129 385 115 c 256,82,83
 371 101 371 101 350 100 c 1,84,-1
 350 100 l 1,68,69
450 100 m 1,85,86
 429 100 429 100 415 115 c 256,87,88
 401 129 401 129 400 150 c 0,89,90
 400 171 400 171 415 186 c 256,91,92
 429 200 429 200 450 200 c 0,93,94
 471 200 471 200 485 186 c 256,95,96
 499 172 499 172 500 150 c 0,97,98
 500 129 500 129 485 115 c 256,99,100
 471 101 471 101 450 100 c 1,101,-1
 450 100 l 1,85,86
550 100 m 1,102,103
 529 100 529 100 515 115 c 256,104,105
 501 129 501 129 500 150 c 0,106,107
 500 171 500 171 515 186 c 256,108,109
 529 200 529 200 550 200 c 256,110,111
 571 200 571 200 585 186 c 0,112,113
 599 172 599 172 599 150 c 0,114,115
 599 129 599 129 585 115 c 0,116,117
 570 101 570 101 550 100 c 1,118,-1
 550 100 l 1,102,103
649 100 m 1,119,120
 628 100 628 100 615 115 c 0,121,122
 601 129 601 129 599 150 c 0,123,124
 599 171 599 171 615 186 c 0,125,126
 630 200 630 200 649 200 c 256,127,128
 670 200 670 200 685 186 c 256,129,130
 699 172 699 172 700 150 c 0,131,132
 700 129 700 129 685 115 c 256,133,134
 671 101 671 101 649 100 c 1,135,-1
 649 100 l 1,119,120
749 100 m 1,136,137
 728 100 728 100 714 115 c 256,138,139
 700 129 700 129 700 150 c 0,140,141
 700 171 700 171 714 186 c 256,142,143
 728 200 728 200 749 200 c 0,144,145
 770 200 770 200 785 186 c 256,146,147
 799 172 799 172 799 150 c 0,148,149
 799 129 799 129 785 115 c 256,150,151
 771 101 771 101 749 100 c 1,152,-1
 749 100 l 1,136,137
850 100 m 1,153,154
 829 100 829 100 814 115 c 256,155,156
 800 129 800 129 799 150 c 0,157,158
 799 171 799 171 814 186 c 256,159,160
 828 200 828 200 850 200 c 256,161,162
 871 200 871 200 885 186 c 0,163,164
 899 172 899 172 900 150 c 0,165,166
 900 129 900 129 885 115 c 0,167,168
 870 101 870 101 850 100 c 1,169,-1
 850 100 l 1,153,154
450 200 m 1,170,171
 429 200 429 200 415 215 c 256,172,173
 401 229 401 229 400 250 c 256,174,175
 400 271 400 271 415 286 c 0,176,177
 429 300 429 300 450 300 c 0,178,179
 471 300 471 300 485 286 c 0,180,181
 499 271 499 271 500 250 c 256,182,183
 500 229 500 229 485 215 c 256,184,185
 471 201 471 201 450 200 c 1,186,-1
 450 200 l 1,170,171
550 200 m 1,187,188
 529 200 529 200 515 215 c 256,189,190
 501 229 501 229 500 250 c 256,191,192
 500 271 500 271 515 286 c 0,193,194
 529 300 529 300 550 300 c 256,195,196
 571 300 571 300 585 286 c 0,197,198
 599 271 599 271 599 250 c 256,199,200
 599 229 599 229 585 215 c 0,201,202
 570 201 570 201 550 200 c 1,203,-1
 550 200 l 1,187,188
850 200 m 1,204,205
 829 200 829 200 814 215 c 256,206,207
 800 229 800 229 799 250 c 256,208,209
 799 271 799 271 814 286 c 0,210,211
 828 300 828 300 850 300 c 256,212,213
 871 300 871 300 885 286 c 0,214,215
 899 271 899 271 900 250 c 256,216,217
 900 229 900 229 885 215 c 0,218,219
 870 201 870 201 850 200 c 1,220,-1
 850 200 l 1,204,205
949 200 m 1,221,222
 928 200 928 200 914 215 c 0,223,224
 900 229 900 229 900 250 c 256,225,226
 900 271 900 271 914 286 c 0,227,228
 929 300 929 300 949 300 c 256,229,230
 970 300 970 300 985 286 c 0,231,232
 999 271 999 271 1000 250 c 256,233,234
 1000 229 1000 229 985 215 c 256,235,236
 971 201 971 201 949 200 c 1,237,-1
 949 200 l 1,221,222
150 300 m 1,238,239
 129 300 129 300 115 314 c 0,240,241
 101 329 101 329 100 350 c 256,242,243
 100 371 100 371 115 385 c 256,244,245
 129 399 129 399 150 400 c 0,246,247
 171 400 171 400 186 385 c 256,248,249
 200 371 200 371 200 350 c 256,250,251
 200 329 200 329 186 314 c 0,252,253
 172 300 172 300 150 300 c 1,254,-1
 150 300 l 1,238,239
250 300 m 1,255,256
 229 300 229 300 215 314 c 0,257,258
 201 329 201 329 200 350 c 256,259,260
 200 371 200 371 215 385 c 256,261,262
 229 399 229 399 250 400 c 256,263,264
 271 400 271 400 286 385 c 0,265,266
 300 371 300 371 300 350 c 256,267,268
 300 329 300 329 286 314 c 0,269,270
 271 300 271 300 250 300 c 1,271,-1
 250 300 l 1,255,256
350 300 m 1,272,273
 329 300 329 300 314 314 c 0,274,275
 300 329 300 329 300 350 c 256,276,277
 300 371 300 371 314 385 c 0,278,279
 329 399 329 399 350 400 c 256,280,281
 371 400 371 400 385 385 c 256,282,283
 399 371 399 371 400 350 c 256,284,285
 400 329 400 329 385 314 c 0,286,287
 371 300 371 300 350 300 c 1,288,-1
 350 300 l 1,272,273
450 300 m 1,289,290
 429 300 429 300 415 314 c 0,291,292
 401 329 401 329 400 350 c 256,293,294
 400 371 400 371 415 385 c 256,295,296
 429 399 429 399 450 400 c 0,297,298
 471 400 471 400 485 385 c 256,299,300
 499 371 499 371 500 350 c 256,301,302
 500 329 500 329 485 314 c 0,303,304
 471 300 471 300 450 300 c 1,305,-1
 450 300 l 1,289,290
550 300 m 1,306,307
 529 300 529 300 515 314 c 0,308,309
 501 329 501 329 500 350 c 256,310,311
 500 371 500 371 515 385 c 256,312,313
 529 399 529 399 550 400 c 256,314,315
 571 400 571 400 585 385 c 0,316,317
 599 371 599 371 599 350 c 256,318,319
 599 329 599 329 585 314 c 0,320,321
 570 300 570 300 550 300 c 1,322,-1
 550 300 l 1,306,307
649 300 m 1,323,324
 628 300 628 300 615 314 c 0,325,326
 601 329 601 329 599 350 c 256,327,328
 599 371 599 371 615 385 c 0,329,330
 630 399 630 399 649 400 c 256,331,332
 670 400 670 400 685 385 c 256,333,334
 699 371 699 371 700 350 c 256,335,336
 700 329 700 329 685 314 c 0,337,338
 671 300 671 300 649 300 c 1,339,-1
 649 300 l 1,323,324
749 300 m 1,340,341
 728 300 728 300 714 314 c 0,342,343
 700 329 700 329 700 350 c 256,344,345
 700 371 700 371 714 385 c 256,346,347
 728 399 728 399 749 400 c 0,348,349
 770 400 770 400 785 385 c 256,350,351
 799 371 799 371 799 350 c 256,352,353
 799 329 799 329 785 314 c 0,354,355
 771 300 771 300 749 300 c 1,356,-1
 749 300 l 1,340,341
850 300 m 1,357,358
 829 300 829 300 814 314 c 0,359,360
 800 329 800 329 799 350 c 256,361,362
 799 371 799 371 814 385 c 256,363,364
 828 399 828 399 850 400 c 256,365,366
 871 400 871 400 885 385 c 0,367,368
 899 371 899 371 900 350 c 256,369,370
 900 329 900 329 885 314 c 0,371,372
 870 300 870 300 850 300 c 1,373,-1
 850 300 l 1,357,358
50 400 m 1,374,375
 29 400 29 400 14 415 c 0,376,377
 0 429 0 429 0 450 c 0,378,379
 0 471 0 471 14 485 c 0,380,381
 29 499 29 499 50 500 c 256,382,383
 71 500 71 500 85 485 c 256,384,385
 99 471 99 471 100 450 c 0,386,387
 100 429 100 429 85 415 c 256,388,389
 71 401 71 401 50 400 c 1,390,-1
 50 400 l 1,374,375
150 400 m 1,391,392
 129 400 129 400 115 415 c 256,393,394
 101 429 101 429 100 450 c 0,395,396
 100 471 100 471 115 485 c 256,397,398
 129 499 129 499 150 500 c 0,399,400
 171 500 171 500 186 485 c 256,401,402
 200 471 200 471 200 450 c 0,403,404
 200 429 200 429 186 415 c 256,405,406
 172 401 172 401 150 400 c 1,407,-1
 150 400 l 1,391,392
450 400 m 1,408,409
 429 400 429 400 415 415 c 256,410,411
 401 429 401 429 400 450 c 0,412,413
 400 471 400 471 415 485 c 256,414,415
 429 499 429 499 450 500 c 0,416,417
 471 500 471 500 485 485 c 256,418,419
 499 471 499 471 500 450 c 0,420,421
 500 429 500 429 485 415 c 256,422,423
 471 401 471 401 450 400 c 1,424,-1
 450 400 l 1,408,409
550 400 m 1,425,426
 529 400 529 400 515 415 c 256,427,428
 501 429 501 429 500 450 c 0,429,430
 500 471 500 471 515 485 c 256,431,432
 529 499 529 499 550 500 c 256,433,434
 571 500 571 500 585 485 c 0,435,436
 599 471 599 471 599 450 c 0,437,438
 599 429 599 429 585 415 c 0,439,440
 570 401 570 401 550 400 c 1,441,-1
 550 400 l 1,425,426
150 500 m 1,442,443
 129 500 129 500 115 515 c 256,444,445
 101 529 101 529 100 550 c 256,446,447
 100 571 100 571 115 585 c 0,448,449
 129 599 129 599 150 599 c 0,450,451
 171 599 171 599 186 585 c 0,452,453
 200 570 200 570 200 550 c 256,454,455
 200 529 200 529 186 515 c 256,456,457
 172 501 172 501 150 500 c 1,458,-1
 150 500 l 1,442,443
250 500 m 1,459,460
 229 500 229 500 215 515 c 256,461,462
 201 529 201 529 200 550 c 256,463,464
 200 571 200 571 215 585 c 0,465,466
 229 599 229 599 250 599 c 256,467,468
 271 599 271 599 286 585 c 0,469,470
 300 570 300 570 300 550 c 256,471,472
 300 529 300 529 286 515 c 0,473,474
 271 501 271 501 250 500 c 1,475,-1
 250 500 l 1,459,460
350 500 m 1,476,477
 329 500 329 500 314 515 c 0,478,479
 300 529 300 529 300 550 c 256,480,481
 300 571 300 571 314 585 c 0,482,483
 329 599 329 599 350 599 c 256,484,485
 371 599 371 599 385 585 c 0,486,487
 399 570 399 570 400 550 c 256,488,489
 400 529 400 529 385 515 c 256,490,491
 371 501 371 501 350 500 c 1,492,-1
 350 500 l 1,476,477
450 500 m 1,493,494
 429 500 429 500 415 515 c 256,495,496
 401 529 401 529 400 550 c 256,497,498
 400 571 400 571 415 585 c 0,499,500
 429 599 429 599 450 599 c 0,501,502
 471 599 471 599 485 585 c 0,503,504
 499 570 499 570 500 550 c 256,505,506
 500 529 500 529 485 515 c 256,507,508
 471 501 471 501 450 500 c 1,509,-1
 450 500 l 1,493,494
550 500 m 1,510,511
 529 500 529 500 515 515 c 256,512,513
 501 529 501 529 500 550 c 256,514,515
 500 571 500 571 515 585 c 0,516,517
 529 599 529 599 550 599 c 256,518,519
 571 599 571 599 585 585 c 0,520,521
 599 570 599 570 599 550 c 256,522,523
 599 529 599 529 585 515 c 0,524,525
 570 501 570 501 550 500 c 1,526,-1
 550 500 l 1,510,511
649 500 m 1,527,528
 628 500 628 500 615 515 c 0,529,530
 601 529 601 529 599 550 c 256,531,532
 599 571 599 571 615 585 c 0,533,534
 630 599 630 599 649 599 c 256,535,536
 670 599 670 599 685 585 c 0,537,538
 699 570 699 570 700 550 c 256,539,540
 700 529 700 529 685 515 c 256,541,542
 671 501 671 501 649 500 c 1,543,-1
 649 500 l 1,527,528
749 500 m 1,544,545
 728 500 728 500 714 515 c 256,546,547
 700 529 700 529 700 550 c 256,548,549
 700 571 700 571 714 585 c 0,550,551
 728 599 728 599 749 599 c 0,552,553
 770 599 770 599 785 585 c 0,554,555
 799 570 799 570 799 550 c 256,556,557
 799 529 799 529 785 515 c 256,558,559
 771 501 771 501 749 500 c 1,560,-1
 749 500 l 1,544,545
850 500 m 1,561,562
 829 500 829 500 814 515 c 256,563,564
 800 529 800 529 799 550 c 256,565,566
 799 571 799 571 814 585 c 0,567,568
 828 599 828 599 850 599 c 256,569,570
 871 599 871 599 885 585 c 0,571,572
 899 570 899 570 900 550 c 256,573,574
 900 529 900 529 885 515 c 0,575,576
 870 501 870 501 850 500 c 1,577,-1
 850 500 l 1,561,562
450 599 m 1,578,579
 429 599 429 599 415 615 c 0,580,581
 401 630 401 630 400 649 c 256,582,583
 400 670 400 670 415 685 c 256,584,585
 429 699 429 699 450 700 c 0,586,587
 471 700 471 700 485 685 c 256,588,589
 499 671 499 671 500 649 c 256,590,591
 500 628 500 628 485 615 c 0,592,593
 471 601 471 601 450 599 c 1,594,-1
 450 599 l 1,578,579
550 599 m 1,595,596
 529 599 529 599 515 615 c 0,597,598
 501 630 501 630 500 649 c 256,599,600
 500 670 500 670 515 685 c 256,601,602
 529 699 529 699 550 700 c 256,603,604
 571 700 571 700 585 685 c 0,605,606
 599 671 599 671 599 649 c 256,607,608
 599 628 599 628 585 615 c 0,609,610
 570 601 570 601 550 599 c 1,611,-1
 550 599 l 1,595,596
EndSplineSet
Validated: 5
EndChar

StartChar: percent
Encoding: 37 37 5
Width: 1200
VWidth: 599
Flags: W
LayerCount: 2
Fore
SplineSet
150 0 m 1,0,1
 129 0 129 0 115 14 c 0,2,3
 101 29 101 29 100 50 c 256,4,5
 100 71 100 71 115 85 c 256,6,7
 129 99 129 99 150 100 c 0,8,9
 171 100 171 100 186 85 c 256,10,11
 200 71 200 71 200 50 c 256,12,13
 200 29 200 29 186 14 c 0,14,15
 172 0 172 0 150 0 c 1,16,-1
 150 0 l 1,0,1
250 0 m 1,17,18
 229 0 229 0 215 14 c 0,19,20
 201 29 201 29 200 50 c 256,21,22
 200 71 200 71 215 85 c 256,23,24
 229 99 229 99 250 100 c 256,25,26
 271 100 271 100 286 85 c 0,27,28
 300 71 300 71 300 50 c 256,29,30
 300 29 300 29 286 14 c 0,31,32
 271 0 271 0 250 0 c 1,33,-1
 250 0 l 1,17,18
250 100 m 1,34,35
 229 100 229 100 215 115 c 256,36,37
 201 129 201 129 200 150 c 0,38,39
 200 171 200 171 215 186 c 256,40,41
 229 200 229 200 250 200 c 256,42,43
 271 200 271 200 286 186 c 0,44,45
 300 172 300 172 300 150 c 0,46,47
 300 129 300 129 286 115 c 0,48,49
 271 101 271 101 250 100 c 1,50,-1
 250 100 l 1,34,35
350 100 m 1,51,52
 329 100 329 100 314 115 c 0,53,54
 300 129 300 129 300 150 c 0,55,56
 300 171 300 171 314 186 c 0,57,58
 329 200 329 200 350 200 c 256,59,60
 371 200 371 200 385 186 c 256,61,62
 399 172 399 172 400 150 c 0,63,64
 400 129 400 129 385 115 c 256,65,66
 371 101 371 101 350 100 c 1,67,-1
 350 100 l 1,51,52
649 100 m 1,68,69
 628 100 628 100 615 115 c 0,70,71
 601 129 601 129 599 150 c 0,72,73
 599 171 599 171 615 186 c 0,74,75
 630 200 630 200 649 200 c 256,76,77
 670 200 670 200 685 186 c 256,78,79
 699 172 699 172 700 150 c 0,80,81
 700 129 700 129 685 115 c 256,82,83
 671 101 671 101 649 100 c 1,84,-1
 649 100 l 1,68,69
749 100 m 1,85,86
 728 100 728 100 714 115 c 256,87,88
 700 129 700 129 700 150 c 0,89,90
 700 171 700 171 714 186 c 256,91,92
 728 200 728 200 749 200 c 0,93,94
 770 200 770 200 785 186 c 256,95,96
 799 172 799 172 799 150 c 0,97,98
 799 129 799 129 785 115 c 256,99,100
 771 101 771 101 749 100 c 1,101,-1
 749 100 l 1,85,86
850 100 m 1,102,103
 829 100 829 100 814 115 c 256,104,105
 800 129 800 129 799 150 c 0,106,107
 799 171 799 171 814 186 c 256,108,109
 828 200 828 200 850 200 c 256,110,111
 871 200 871 200 885 186 c 0,112,113
 899 172 899 172 900 150 c 0,114,115
 900 129 900 129 885 115 c 0,116,117
 870 101 870 101 850 100 c 1,118,-1
 850 100 l 1,102,103
949 100 m 1,119,120
 928 100 928 100 914 115 c 0,121,122
 900 129 900 129 900 150 c 0,123,124
 900 171 900 171 914 186 c 0,125,126
 929 200 929 200 949 200 c 256,127,128
 970 200 970 200 985 186 c 256,129,130
 999 172 999 172 1000 150 c 0,131,132
 1000 129 1000 129 985 115 c 256,133,134
 971 101 971 101 949 100 c 1,135,-1
 949 100 l 1,119,120
350 200 m 1,136,137
 329 200 329 200 314 215 c 0,138,139
 300 229 300 229 300 250 c 256,140,141
 300 271 300 271 314 286 c 0,142,143
 329 300 329 300 350 300 c 256,144,145
 371 300 371 300 385 286 c 0,146,147
 399 271 399 271 400 250 c 256,148,149
 400 229 400 229 385 215 c 256,150,151
 371 201 371 201 350 200 c 1,152,-1
 350 200 l 1,136,137
450 200 m 1,153,154
 429 200 429 200 415 215 c 256,155,156
 401 229 401 229 400 250 c 256,157,158
 400 271 400 271 415 286 c 0,159,160
 429 300 429 300 450 300 c 0,161,162
 471 300 471 300 485 286 c 0,163,164
 499 271 499 271 500 250 c 256,165,166
 500 229 500 229 485 215 c 256,167,168
 471 201 471 201 450 200 c 1,169,-1
 450 200 l 1,153,154
649 200 m 1,170,171
 628 200 628 200 615 215 c 0,172,173
 601 229 601 229 599 250 c 256,174,175
 599 271 599 271 615 286 c 0,176,177
 630 300 630 300 649 300 c 256,178,179
 670 300 670 300 685 286 c 0,180,181
 699 271 699 271 700 250 c 256,182,183
 700 229 700 229 685 215 c 256,184,185
 671 201 671 201 649 200 c 1,186,-1
 649 200 l 1,170,171
749 200 m 1,187,188
 728 200 728 200 714 215 c 256,189,190
 700 229 700 229 700 250 c 256,191,192
 700 271 700 271 714 286 c 0,193,194
 728 300 728 300 749 300 c 0,195,196
 770 300 770 300 785 286 c 0,197,198
 799 271 799 271 799 250 c 256,199,200
 799 229 799 229 785 215 c 256,201,202
 771 201 771 201 749 200 c 1,203,-1
 749 200 l 1,187,188
850 200 m 1,204,205
 829 200 829 200 814 215 c 256,206,207
 800 229 800 229 799 250 c 256,208,209
 799 271 799 271 814 286 c 0,210,211
 828 300 828 300 850 300 c 256,212,213
 871 300 871 300 885 286 c 0,214,215
 899 271 899 271 900 250 c 256,216,217
 900 229 900 229 885 215 c 0,218,219
 870 201 870 201 850 200 c 1,220,-1
 850 200 l 1,204,205
949 200 m 1,221,222
 928 200 928 200 914 215 c 0,223,224
 900 229 900 229 900 250 c 256,225,226
 900 271 900 271 914 286 c 0,227,228
 929 300 929 300 949 300 c 256,229,230
 970 300 970 300 985 286 c 0,231,232
 999 271 999 271 1000 250 c 256,233,234
 1000 229 1000 229 985 215 c 256,235,236
 971 201 971 201 949 200 c 1,237,-1
 949 200 l 1,221,222
450 300 m 1,238,239
 429 300 429 300 415 314 c 0,240,241
 401 329 401 329 400 350 c 256,242,243
 400 371 400 371 415 385 c 256,244,245
 429 399 429 399 450 400 c 0,246,247
 471 400 471 400 485 385 c 256,248,249
 499 371 499 371 500 350 c 256,250,251
 500 329 500 329 485 314 c 0,252,253
 471 300 471 300 450 300 c 1,254,-1
 450 300 l 1,238,239
550 300 m 1,255,256
 529 300 529 300 515 314 c 0,257,258
 501 329 501 329 500 350 c 256,259,260
 500 371 500 371 515 385 c 256,261,262
 529 399 529 399 550 400 c 256,263,264
 571 400 571 400 585 385 c 0,265,266
 599 371 599 371 599 350 c 256,267,268
 599 329 599 329 585 314 c 0,269,270
 570 300 570 300 550 300 c 1,271,-1
 550 300 l 1,255,256
50 400 m 1,272,273
 29 400 29 400 14 415 c 0,274,275
 0 429 0 429 0 450 c 0,276,277
 0 471 0 471 14 485 c 0,278,279
 29 499 29 499 50 500 c 256,280,281
 71 500 71 500 85 485 c 256,282,283
 99 471 99 471 100 450 c 0,284,285
 100 429 100 429 85 415 c 256,286,287
 71 401 71 401 50 400 c 1,288,-1
 50 400 l 1,272,273
150 400 m 1,289,290
 129 400 129 400 115 415 c 256,291,292
 101 429 101 429 100 450 c 0,293,294
 100 471 100 471 115 485 c 256,295,296
 129 499 129 499 150 500 c 0,297,298
 171 500 171 500 186 485 c 256,299,300
 200 471 200 471 200 450 c 0,301,302
 200 429 200 429 186 415 c 256,303,304
 172 401 172 401 150 400 c 1,305,-1
 150 400 l 1,289,290
250 400 m 1,306,307
 229 400 229 400 215 415 c 256,308,309
 201 429 201 429 200 450 c 0,310,311
 200 471 200 471 215 485 c 256,312,313
 229 499 229 499 250 500 c 256,314,315
 271 500 271 500 286 485 c 0,316,317
 300 471 300 471 300 450 c 0,318,319
 300 429 300 429 286 415 c 0,320,321
 271 401 271 401 250 400 c 1,322,-1
 250 400 l 1,306,307
350 400 m 1,323,324
 329 400 329 400 314 415 c 0,325,326
 300 429 300 429 300 450 c 0,327,328
 300 471 300 471 314 485 c 0,329,330
 329 499 329 499 350 500 c 256,331,332
 371 500 371 500 385 485 c 256,333,334
 399 471 399 471 400 450 c 0,335,336
 400 429 400 429 385 415 c 256,337,338
 371 401 371 401 350 400 c 1,339,-1
 350 400 l 1,323,324
550 400 m 1,340,341
 529 400 529 400 515 415 c 256,342,343
 501 429 501 429 500 450 c 0,344,345
 500 471 500 471 515 485 c 256,346,347
 529 499 529 499 550 500 c 256,348,349
 571 500 571 500 585 485 c 0,350,351
 599 471 599 471 599 450 c 0,352,353
 599 429 599 429 585 415 c 0,354,355
 570 401 570 401 550 400 c 1,356,-1
 550 400 l 1,340,341
649 400 m 1,357,358
 628 400 628 400 615 415 c 0,359,360
 601 429 601 429 599 450 c 0,361,362
 599 471 599 471 615 485 c 0,363,364
 630 499 630 499 649 500 c 256,365,366
 670 500 670 500 685 485 c 256,367,368
 699 471 699 471 700 450 c 0,369,370
 700 429 700 429 685 415 c 256,371,372
 671 401 671 401 649 400 c 1,373,-1
 649 400 l 1,357,358
50 500 m 1,374,375
 29 500 29 500 14 515 c 0,376,377
 0 529 0 529 0 550 c 256,378,379
 0 571 0 571 14 585 c 0,380,381
 29 599 29 599 50 599 c 256,382,383
 71 599 71 599 85 585 c 0,384,385
 99 570 99 570 100 550 c 256,386,387
 100 529 100 529 85 515 c 256,388,389
 71 501 71 501 50 500 c 1,390,-1
 50 500 l 1,374,375
150 500 m 1,391,392
 129 500 129 500 115 515 c 256,393,394
 101 529 101 529 100 550 c 256,395,396
 100 571 100 571 115 585 c 0,397,398
 129 599 129 599 150 599 c 0,399,400
 171 599 171 599 186 585 c 0,401,402
 200 570 200 570 200 550 c 256,403,404
 200 529 200 529 186 515 c 256,405,406
 172 501 172 501 150 500 c 1,407,-1
 150 500 l 1,391,392
250 500 m 1,408,409
 229 500 229 500 215 515 c 256,410,411
 201 529 201 529 200 550 c 256,412,413
 200 571 200 571 215 585 c 0,414,415
 229 599 229 599 250 599 c 256,416,417
 271 599 271 599 286 585 c 0,418,419
 300 570 300 570 300 550 c 256,420,421
 300 529 300 529 286 515 c 0,422,423
 271 501 271 501 250 500 c 1,424,-1
 250 500 l 1,408,409
350 500 m 1,425,426
 329 500 329 500 314 515 c 0,427,428
 300 529 300 529 300 550 c 256,429,430
 300 571 300 571 314 585 c 0,431,432
 329 599 329 599 350 599 c 256,433,434
 371 599 371 599 385 585 c 0,435,436
 399 570 399 570 400 550 c 256,437,438
 400 529 400 529 385 515 c 256,439,440
 371 501 371 501 350 500 c 1,441,-1
 350 500 l 1,425,426
649 500 m 1,442,443
 628 500 628 500 615 515 c 0,444,445
 601 529 601 529 599 550 c 256,446,447
 599 571 599 571 615 585 c 0,448,449
 630 599 630 599 649 599 c 256,450,451
 670 599 670 599 685 585 c 0,452,453
 699 570 699 570 700 550 c 256,454,455
 700 529 700 529 685 515 c 256,456,457
 671 501 671 501 649 500 c 1,458,-1
 649 500 l 1,442,443
749 500 m 1,459,460
 728 500 728 500 714 515 c 256,461,462
 700 529 700 529 700 550 c 256,463,464
 700 571 700 571 714 585 c 0,465,466
 728 599 728 599 749 599 c 0,467,468
 770 599 770 599 785 585 c 0,469,470
 799 570 799 570 799 550 c 256,471,472
 799 529 799 529 785 515 c 256,473,474
 771 501 771 501 749 500 c 1,475,-1
 749 500 l 1,459,460
749 599 m 1,476,477
 728 599 728 599 714 615 c 0,478,479
 700 630 700 630 700 649 c 256,480,481
 700 670 700 670 714 685 c 256,482,483
 728 699 728 699 749 700 c 0,484,485
 770 700 770 700 785 685 c 256,486,487
 799 671 799 671 799 649 c 256,488,489
 799 628 799 628 785 615 c 0,490,491
 771 601 771 601 749 599 c 1,492,-1
 749 599 l 1,476,477
850 599 m 1,493,494
 829 599 829 599 814 615 c 0,495,496
 800 630 800 630 799 649 c 256,497,498
 799 670 799 670 814 685 c 256,499,500
 828 699 828 699 850 700 c 256,501,502
 871 700 871 700 885 685 c 0,503,504
 899 671 899 671 900 649 c 256,505,506
 900 628 900 628 885 615 c 0,507,508
 870 601 870 601 850 599 c 1,509,-1
 850 599 l 1,493,494
EndSplineSet
Validated: 5
EndChar

StartChar: ampersand
Encoding: 38 38 6
Width: 1200
VWidth: 599
Flags: W
LayerCount: 2
Fore
SplineSet
250 0 m 1,0,1
 229 0 229 0 215 14 c 0,2,3
 201 29 201 29 200 50 c 256,4,5
 200 71 200 71 215 85 c 256,6,7
 229 99 229 99 250 100 c 256,8,9
 271 100 271 100 286 85 c 0,10,11
 300 71 300 71 300 50 c 256,12,13
 300 29 300 29 286 14 c 0,14,15
 271 0 271 0 250 0 c 1,16,-1
 250 0 l 1,0,1
350 0 m 1,17,18
 329 0 329 0 314 14 c 0,19,20
 300 29 300 29 300 50 c 256,21,22
 300 71 300 71 314 85 c 0,23,24
 329 99 329 99 350 100 c 256,25,26
 371 100 371 100 385 85 c 256,27,28
 399 71 399 71 400 50 c 256,29,30
 400 29 400 29 385 14 c 0,31,32
 371 0 371 0 350 0 c 1,33,-1
 350 0 l 1,17,18
450 0 m 1,34,35
 429 0 429 0 415 14 c 0,36,37
 401 29 401 29 400 50 c 256,38,39
 400 71 400 71 415 85 c 256,40,41
 429 99 429 99 450 100 c 0,42,43
 471 100 471 100 485 85 c 256,44,45
 499 71 499 71 500 50 c 256,46,47
 500 29 500 29 485 14 c 0,48,49
 471 0 471 0 450 0 c 1,50,-1
 450 0 l 1,34,35
550 0 m 1,51,52
 529 0 529 0 515 14 c 0,53,54
 501 29 501 29 500 50 c 256,55,56
 500 71 500 71 515 85 c 256,57,58
 529 99 529 99 550 100 c 256,59,60
 571 100 571 100 585 85 c 0,61,62
 599 71 599 71 599 50 c 256,63,64
 599 29 599 29 585 14 c 0,65,66
 570 0 570 0 550 0 c 1,67,-1
 550 0 l 1,51,52
749 0 m 1,68,69
 728 0 728 0 714 14 c 0,70,71
 700 29 700 29 700 50 c 256,72,73
 700 71 700 71 714 85 c 256,74,75
 728 99 728 99 749 100 c 0,76,77
 770 100 770 100 785 85 c 256,78,79
 799 71 799 71 799 50 c 256,80,81
 799 29 799 29 785 14 c 0,82,83
 771 0 771 0 749 0 c 1,84,-1
 749 0 l 1,68,69
850 0 m 1,85,86
 829 0 829 0 814 14 c 0,87,88
 800 29 800 29 799 50 c 256,89,90
 799 71 799 71 814 85 c 256,91,92
 828 99 828 99 850 100 c 256,93,94
 871 100 871 100 885 85 c 0,95,96
 899 71 899 71 900 50 c 256,97,98
 900 29 900 29 885 14 c 0,99,100
 870 0 870 0 850 0 c 1,101,-1
 850 0 l 1,85,86
150 100 m 1,102,103
 129 100 129 100 115 115 c 256,104,105
 101 129 101 129 100 150 c 0,106,107
 100 171 100 171 115 186 c 256,108,109
 129 200 129 200 150 200 c 0,110,111
 171 200 171 200 186 186 c 256,112,113
 200 172 200 172 200 150 c 0,114,115
 200 129 200 129 186 115 c 256,116,117
 172 101 172 101 150 100 c 1,118,-1
 150 100 l 1,102,103
250 100 m 1,119,120
 229 100 229 100 215 115 c 256,121,122
 201 129 201 129 200 150 c 0,123,124
 200 171 200 171 215 186 c 256,125,126
 229 200 229 200 250 200 c 256,127,128
 271 200 271 200 286 186 c 0,129,130
 300 172 300 172 300 150 c 0,131,132
 300 129 300 129 286 115 c 0,133,134
 271 101 271 101 250 100 c 1,135,-1
 250 100 l 1,119,120
649 100 m 1,136,137
 628 100 628 100 615 115 c 0,138,139
 601 129 601 129 599 150 c 0,140,141
 599 171 599 171 615 186 c 0,142,143
 630 200 630 200 649 200 c 256,144,145
 670 200 670 200 685 186 c 256,146,147
 699 172 699 172 700 150 c 0,148,149
 700 129 700 129 685 115 c 256,150,151
 671 101 671 101 649 100 c 1,152,-1
 649 100 l 1,136,137
749 100 m 1,153,154
 728 100 728 100 714 115 c 256,155,156
 700 129 700 129 700 150 c 0,157,158
 700 171 700 171 714 186 c 256,159,160
 728 200 728 200 749 200 c 0,161,162
 770 200 770 200 785 186 c 256,163,164
 799 172 799 172 799 150 c 0,165,166
 799 129 799 129 785 115 c 256,167,168
 771 101 771 101 749 100 c 1,169,-1
 749 100 l 1,153,154
150 200 m 1,170,171
 129 200 129 200 115 215 c 256,172,173
 101 229 101 229 100 250 c 256,174,175
 100 271 100 271 115 286 c 0,176,177
 129 300 129 300 150 300 c 0,178,179
 171 300 171 300 186 286 c 0,180,181
 200 271 200 271 200 250 c 256,182,183
 200 229 200 229 186 215 c 256,184,185
 172 201 172 201 150 200 c 1,186,-1
 150 200 l 1,170,171
250 200 m 1,187,188
 229 200 229 200 215 215 c 256,189,190
 201 229 201 229 200 250 c 256,191,192
 200 271 200 271 215 286 c 0,193,194
 229 300 229 300 250 300 c 256,195,196
 271 300 271 300 286 286 c 0,197,198
 300 271 300 271 300 250 c 256,199,200
 300 229 300 229 286 215 c 0,201,202
 271 201 271 201 250 200 c 1,203,-1
 250 200 l 1,187,188
550 200 m 1,204,205
 529 200 529 200 515 215 c 256,206,207
 501 229 501 229 500 250 c 256,208,209
 500 271 500 271 515 286 c 0,210,211
 529 300 529 300 550 300 c 256,212,213
 571 300 571 300 585 286 c 0,214,215
 599 271 599 271 599 250 c 256,216,217
 599 229 599 229 585 215 c 0,218,219
 570 201 570 201 550 200 c 1,220,-1
 550 200 l 1,204,205
649 200 m 1,221,222
 628 200 628 200 615 215 c 0,223,224
 601 229 601 229 599 250 c 256,225,226
 599 271 599 271 615 286 c 0,227,228
 630 300 630 300 649 300 c 256,229,230
 670 300 670 300 685 286 c 0,231,232
 699 271 699 271 700 250 c 256,233,234
 700 229 700 229 685 215 c 256,235,236
 671 201 671 201 649 200 c 1,237,-1
 649 200 l 1,221,222
850 200 m 1,238,239
 829 200 829 200 814 215 c 256,240,241
 800 229 800 229 799 250 c 256,242,243
 799 271 799 271 814 286 c 0,244,245
 828 300 828 300 850 300 c 256,246,247
 871 300 871 300 885 286 c 0,248,249
 899 271 899 271 900 250 c 256,250,251
 900 229 900 229 885 215 c 0,252,253
 870 201 870 201 850 200 c 1,254,-1
 850 200 l 1,238,239
949 200 m 1,255,256
 928 200 928 200 914 215 c 0,257,258
 900 229 900 229 900 250 c 256,259,260
 900 271 900 271 914 286 c 0,261,262
 929 300 929 300 949 300 c 256,263,264
 970 300 970 300 985 286 c 0,265,266
 999 271 999 271 1000 250 c 256,267,268
 1000 229 1000 229 985 215 c 256,269,270
 971 201 971 201 949 200 c 1,271,-1
 949 200 l 1,255,256
250 300 m 1,272,273
 229 300 229 300 215 314 c 0,274,275
 201 329 201 329 200 350 c 256,276,277
 200 371 200 371 215 385 c 256,278,279
 229 399 229 399 250 400 c 256,280,281
 271 400 271 400 286 385 c 0,282,283
 300 371 300 371 300 350 c 256,284,285
 300 329 300 329 286 314 c 0,286,287
 271 300 271 300 250 300 c 1,288,-1
 250 300 l 1,272,273
350 300 m 1,289,290
 329 300 329 300 314 314 c 0,291,292
 300 329 300 329 300 350 c 256,293,294
 300 371 300 371 314 385 c 0,295,296
 329 399 329 399 350 400 c 256,297,298
 371 400 371 400 385 385 c 256,299,300
 399 371 399 371 400 350 c 256,301,302
 400 329 400 329 385 314 c 0,303,304
 371 300 371 300 350 300 c 1,305,-1
 350 300 l 1,289,290
450 300 m 1,306,307
 429 300 429 300 415 314 c 0,308,309
 401 329 401 329 400 350 c 256,310,311
 400 371 400 371 415 385 c 256,312,313
 429 399 429 399 450 400 c 0,314,315
 471 400 471 400 485 385 c 256,316,317
 499 371 499 371 500 350 c 256,318,319
 500 329 500 329 485 314 c 0,320,321
 471 300 471 300 450 300 c 1,322,-1
 450 300 l 1,306,307
550 300 m 1,323,324
 529 300 529 300 515 314 c 0,325,326
 501 329 501 329 500 350 c 256,327,328
 500 371 500 371 515 385 c 256,329,330
 529 399 529 399 550 400 c 256,331,332
 571 400 571 400 585 385 c 0,333,334
 599 371 599 371 599 350 c 256,335,336
 599 329 599 329 585 314 c 0,337,338
 570 300 570 300 550 300 c 1,339,-1
 550 300 l 1,323,324
350 400 m 1,340,341
 329 400 329 400 314 415 c 0,342,343
 300 429 300 429 300 450 c 0,344,345
 300 471 300 471 314 485 c 0,346,347
 329 499 329 499 350 500 c 256,348,349
 371 500 371 500 385 485 c 256,350,351
 399 471 399 471 400 450 c 0,352,353
 400 429 400 429 385 415 c 256,354,355
 371 401 371 401 350 400 c 1,356,-1
 350 400 l 1,340,341
450 400 m 1,357,358
 429 400 429 400 415 415 c 256,359,360
 401 429 401 429 400 450 c 0,361,362
 400 471 400 471 415 485 c 256,363,364
 429 499 429 499 450 500 c 0,365,366
 471 500 471 500 485 485 c 256,367,368
 499 471 499 471 500 450 c 0,369,370
 500 429 500 429 485 415 c 256,371,372
 471 401 471 401 450 400 c 1,373,-1
 450 400 l 1,357,358
550 400 m 1,374,375
 529 400 529 400 515 415 c 256,376,377
 501 429 501 429 500 450 c 0,378,379
 500 471 500 471 515 485 c 256,380,381
 529 499 529 499 550 500 c 256,382,383
 571 500 571 500 585 485 c 0,384,385
 599 471 599 471 599 450 c 0,386,387
 599 429 599 429 585 415 c 0,388,389
 570 401 570 401 550 400 c 1,390,-1
 550 400 l 1,374,375
649 400 m 1,391,392
 628 400 628 400 615 415 c 0,393,394
 601 429 601 429 599 450 c 0,395,396
 599 471 599 471 615 485 c 0,397,398
 630 499 630 499 649 500 c 256,399,400
 670 500 670 500 685 485 c 256,401,402
 699 471 699 471 700 450 c 0,403,404
 700 429 700 429 685 415 c 256,405,406
 671 401 671 401 649 400 c 1,407,-1
 649 400 l 1,391,392
250 500 m 1,408,409
 229 500 229 500 215 515 c 256,410,411
 201 529 201 529 200 550 c 256,412,413
 200 571 200 571 215 585 c 0,414,415
 229 599 229 599 250 599 c 256,416,417
 271 599 271 599 286 585 c 0,418,419
 300 570 300 570 300 550 c 256,420,421
 300 529 300 529 286 515 c 0,422,423
 271 501 271 501 250 500 c 1,424,-1
 250 500 l 1,408,409
350 500 m 1,425,426
 329 500 329 500 314 515 c 0,427,428
 300 529 300 529 300 550 c 256,429,430
 300 571 300 571 314 585 c 0,431,432
 329 599 329 599 350 599 c 256,433,434
 371 599 371 599 385 585 c 0,435,436
 399 570 399 570 400 550 c 256,437,438
 400 529 400 529 385 515 c 256,439,440
 371 501 371 501 350 500 c 1,441,-1
 350 500 l 1,425,426
649 500 m 1,442,443
 628 500 628 500 615 515 c 0,444,445
 601 529 601 529 599 550 c 256,446,447
 599 571 599 571 615 585 c 0,448,449
 630 599 630 599 649 599 c 256,450,451
 670 599 670 599 685 585 c 0,452,453
 699 570 699 570 700 550 c 256,454,455
 700 529 700 529 685 515 c 256,456,457
 671 501 671 501 649 500 c 1,458,-1
 649 500 l 1,442,443
749 500 m 1,459,460
 728 500 728 500 714 515 c 256,461,462
 700 529 700 529 700 550 c 256,463,464
 700 571 700 571 714 585 c 0,465,466
 728 599 728 599 749 599 c 0,467,468
 770 599 770 599 785 585 c 0,469,470
 799 570 799 570 799 550 c 256,471,472
 799 529 799 529 785 515 c 256,473,474
 771 501 771 501 749 500 c 1,475,-1
 749 500 l 1,459,460
350 599 m 1,476,477
 329 599 329 599 314 615 c 0,478,479
 300 630 300 630 300 649 c 256,480,481
 300 670 300 670 314 685 c 0,482,483
 329 699 329 699 350 700 c 256,484,485
 371 700 371 700 385 685 c 256,486,487
 399 671 399 671 400 649 c 256,488,489
 400 628 400 628 385 615 c 0,490,491
 371 601 371 601 350 599 c 1,492,-1
 350 599 l 1,476,477
450 599 m 1,493,494
 429 599 429 599 415 615 c 0,495,496
 401 630 401 630 400 649 c 256,497,498
 400 670 400 670 415 685 c 256,499,500
 429 699 429 699 450 700 c 0,501,502
 471 700 471 700 485 685 c 256,503,504
 499 671 499 671 500 649 c 256,505,506
 500 628 500 628 485 615 c 0,507,508
 471 601 471 601 450 599 c 1,509,-1
 450 599 l 1,493,494
550 599 m 1,510,511
 529 599 529 599 515 615 c 0,512,513
 501 630 501 630 500 649 c 256,514,515
 500 670 500 670 515 685 c 256,516,517
 529 699 529 699 550 700 c 256,518,519
 571 700 571 700 585 685 c 0,520,521
 599 671 599 671 599 649 c 256,522,523
 599 628 599 628 585 615 c 0,524,525
 570 601 570 601 550 599 c 1,526,-1
 550 599 l 1,510,511
649 599 m 1,527,528
 628 599 628 599 615 615 c 0,529,530
 601 630 601 630 599 649 c 256,531,532
 599 670 599 670 615 685 c 0,533,534
 630 699 630 699 649 700 c 256,535,536
 670 700 670 700 685 685 c 256,537,538
 699 671 699 671 700 649 c 256,539,540
 700 628 700 628 685 615 c 0,541,542
 671 601 671 601 649 599 c 1,543,-1
 649 599 l 1,527,528
EndSplineSet
Validated: 5
EndChar

StartChar: quotesingle
Encoding: 39 39 7
Width: 1200
VWidth: 599
Flags: W
LayerCount: 2
Fore
SplineSet
250 400 m 1,0,1
 229 400 229 400 215 415 c 256,2,3
 201 429 201 429 200 450 c 0,4,5
 200 471 200 471 215 485 c 256,6,7
 229 499 229 499 250 500 c 256,8,9
 271 500 271 500 286 485 c 0,10,11
 300 471 300 471 300 450 c 0,12,13
 300 429 300 429 286 415 c 0,14,15
 271 401 271 401 250 400 c 1,16,-1
 250 400 l 1,0,1
350 400 m 1,17,18
 329 400 329 400 314 415 c 0,19,20
 300 429 300 429 300 450 c 0,21,22
 300 471 300 471 314 485 c 0,23,24
 329 499 329 499 350 500 c 256,25,26
 371 500 371 500 385 485 c 256,27,28
 399 471 399 471 400 450 c 0,29,30
 400 429 400 429 385 415 c 256,31,32
 371 401 371 401 350 400 c 1,33,-1
 350 400 l 1,17,18
350 500 m 1,34,35
 329 500 329 500 314 515 c 0,36,37
 300 529 300 529 300 550 c 256,38,39
 300 571 300 571 314 585 c 0,40,41
 329 599 329 599 350 599 c 256,42,43
 371 599 371 599 385 585 c 0,44,45
 399 570 399 570 400 550 c 256,46,47
 400 529 400 529 385 515 c 256,48,49
 371 501 371 501 350 500 c 1,50,-1
 350 500 l 1,34,35
450 500 m 1,51,52
 429 500 429 500 415 515 c 256,53,54
 401 529 401 529 400 550 c 256,55,56
 400 571 400 571 415 585 c 0,57,58
 429 599 429 599 450 599 c 0,59,60
 471 599 471 599 485 585 c 0,61,62
 499 570 499 570 500 550 c 256,63,64
 500 529 500 529 485 515 c 256,65,66
 471 501 471 501 450 500 c 1,67,-1
 450 500 l 1,51,52
150 599 m 1,68,69
 129 599 129 599 115 615 c 0,70,71
 101 630 101 630 100 649 c 256,72,73
 100 670 100 670 115 685 c 256,74,75
 129 699 129 699 150 700 c 0,76,77
 171 700 171 700 186 685 c 256,78,79
 200 671 200 671 200 649 c 256,80,81
 200 628 200 628 186 615 c 0,82,83
 172 601 172 601 150 599 c 1,84,-1
 150 599 l 1,68,69
250 599 m 1,85,86
 229 599 229 599 215 615 c 0,87,88
 201 630 201 630 200 649 c 256,89,90
 200 670 200 670 215 685 c 256,91,92
 229 699 229 699 250 700 c 256,93,94
 271 700 271 700 286 685 c 0,95,96
 300 671 300 671 300 649 c 256,97,98
 300 628 300 628 286 615 c 0,99,100
 271 601 271 601 250 599 c 1,101,-1
 250 599 l 1,85,86
350 599 m 1,102,103
 329 599 329 599 314 615 c 0,104,105
 300 630 300 630 300 649 c 256,106,107
 300 670 300 670 314 685 c 0,108,109
 329 699 329 699 350 700 c 256,110,111
 371 700 371 700 385 685 c 256,112,113
 399 671 399 671 400 649 c 256,114,115
 400 628 400 628 385 615 c 0,116,117
 371 601 371 601 350 599 c 1,118,-1
 350 599 l 1,102,103
450 599 m 1,119,120
 429 599 429 599 415 615 c 0,121,122
 401 630 401 630 400 649 c 256,123,124
 400 670 400 670 415 685 c 256,125,126
 429 699 429 699 450 700 c 0,127,128
 471 700 471 700 485 685 c 256,129,130
 499 671 499 671 500 649 c 256,131,132
 500 628 500 628 485 615 c 0,133,134
 471 601 471 601 450 599 c 1,135,-1
 450 599 l 1,119,120
EndSplineSet
Validated: 5
EndChar

StartChar: parenleft
Encoding: 40 40 8
Width: 1200
VWidth: 599
Flags: W
LayerCount: 2
Fore
SplineSet
649 0 m 1,0,1
 628 0 628 0 615 14 c 0,2,3
 601 29 601 29 599 50 c 256,4,5
 599 71 599 71 615 85 c 0,6,7
 630 99 630 99 649 100 c 256,8,9
 670 100 670 100 685 85 c 256,10,11
 699 71 699 71 700 50 c 256,12,13
 700 29 700 29 685 14 c 0,14,15
 671 0 671 0 649 0 c 1,16,-1
 649 0 l 1,0,1
749 0 m 1,17,18
 728 0 728 0 714 14 c 0,19,20
 700 29 700 29 700 50 c 256,21,22
 700 71 700 71 714 85 c 256,23,24
 728 99 728 99 749 100 c 0,25,26
 770 100 770 100 785 85 c 256,27,28
 799 71 799 71 799 50 c 256,29,30
 799 29 799 29 785 14 c 0,31,32
 771 0 771 0 749 0 c 1,33,-1
 749 0 l 1,17,18
450 100 m 1,34,35
 429 100 429 100 415 115 c 256,36,37
 401 129 401 129 400 150 c 0,38,39
 400 171 400 171 415 186 c 256,40,41
 429 200 429 200 450 200 c 0,42,43
 471 200 471 200 485 186 c 256,44,45
 499 172 499 172 500 150 c 0,46,47
 500 129 500 129 485 115 c 256,48,49
 471 101 471 101 450 100 c 1,50,-1
 450 100 l 1,34,35
550 100 m 1,51,52
 529 100 529 100 515 115 c 256,53,54
 501 129 501 129 500 150 c 0,55,56
 500 171 500 171 515 186 c 256,57,58
 529 200 529 200 550 200 c 256,59,60
 571 200 571 200 585 186 c 0,61,62
 599 172 599 172 599 150 c 0,63,64
 599 129 599 129 585 115 c 0,65,66
 570 101 570 101 550 100 c 1,67,-1
 550 100 l 1,51,52
350 200 m 1,68,69
 329 200 329 200 314 215 c 0,70,71
 300 229 300 229 300 250 c 256,72,73
 300 271 300 271 314 286 c 0,74,75
 329 300 329 300 350 300 c 256,76,77
 371 300 371 300 385 286 c 0,78,79
 399 271 399 271 400 250 c 256,80,81
 400 229 400 229 385 215 c 256,82,83
 371 201 371 201 350 200 c 1,84,-1
 350 200 l 1,68,69
450 200 m 1,85,86
 429 200 429 200 415 215 c 256,87,88
 401 229 401 229 400 250 c 256,89,90
 400 271 400 271 415 286 c 0,91,92
 429 300 429 300 450 300 c 0,93,94
 471 300 471 300 485 286 c 0,95,96
 499 271 499 271 500 250 c 256,97,98
 500 229 500 229 485 215 c 256,99,100
 471 201 471 201 450 200 c 1,101,-1
 450 200 l 1,85,86
350 300 m 1,102,103
 329 300 329 300 314 314 c 0,104,105
 300 329 300 329 300 350 c 256,106,107
 300 371 300 371 314 385 c 0,108,109
 329 399 329 399 350 400 c 256,110,111
 371 400 371 400 385 385 c 256,112,113
 399 371 399 371 400 350 c 256,114,115
 400 329 400 329 385 314 c 0,116,117
 371 300 371 300 350 300 c 1,118,-1
 350 300 l 1,102,103
450 300 m 1,119,120
 429 300 429 300 415 314 c 0,121,122
 401 329 401 329 400 350 c 256,123,124
 400 371 400 371 415 385 c 256,125,126
 429 399 429 399 450 400 c 0,127,128
 471 400 471 400 485 385 c 256,129,130
 499 371 499 371 500 350 c 256,131,132
 500 329 500 329 485 314 c 0,133,134
 471 300 471 300 450 300 c 1,135,-1
 450 300 l 1,119,120
350 400 m 1,136,137
 329 400 329 400 314 415 c 0,138,139
 300 429 300 429 300 450 c 0,140,141
 300 471 300 471 314 485 c 0,142,143
 329 499 329 499 350 500 c 256,144,145
 371 500 371 500 385 485 c 256,146,147
 399 471 399 471 400 450 c 0,148,149
 400 429 400 429 385 415 c 256,150,151
 371 401 371 401 350 400 c 1,152,-1
 350 400 l 1,136,137
450 400 m 1,153,154
 429 400 429 400 415 415 c 256,155,156
 401 429 401 429 400 450 c 0,157,158
 400 471 400 471 415 485 c 256,159,160
 429 499 429 499 450 500 c 0,161,162
 471 500 471 500 485 485 c 256,163,164
 499 471 499 471 500 450 c 0,165,166
 500 429 500 429 485 415 c 256,167,168
 471 401 471 401 450 400 c 1,169,-1
 450 400 l 1,153,154
450 500 m 1,170,171
 429 500 429 500 415 515 c 256,172,173
 401 529 401 529 400 550 c 256,174,175
 400 571 400 571 415 585 c 0,176,177
 429 599 429 599 450 599 c 0,178,179
 471 599 471 599 485 585 c 0,180,181
 499 570 499 570 500 550 c 256,182,183
 500 529 500 529 485 515 c 256,184,185
 471 501 471 501 450 500 c 1,186,-1
 450 500 l 1,170,171
550 500 m 1,187,188
 529 500 529 500 515 515 c 256,189,190
 501 529 501 529 500 550 c 256,191,192
 500 571 500 571 515 585 c 0,193,194
 529 599 529 599 550 599 c 256,195,196
 571 599 571 599 585 585 c 0,197,198
 599 570 599 570 599 550 c 256,199,200
 599 529 599 529 585 515 c 0,201,202
 570 501 570 501 550 500 c 1,203,-1
 550 500 l 1,187,188
649 599 m 1,204,205
 628 599 628 599 615 615 c 0,206,207
 601 630 601 630 599 649 c 256,208,209
 599 670 599 670 615 685 c 0,210,211
 630 699 630 699 649 700 c 256,212,213
 670 700 670 700 685 685 c 256,214,215
 699 671 699 671 700 649 c 256,216,217
 700 628 700 628 685 615 c 0,218,219
 671 601 671 601 649 599 c 1,220,-1
 649 599 l 1,204,205
749 599 m 1,221,222
 728 599 728 599 714 615 c 0,223,224
 700 630 700 630 700 649 c 256,225,226
 700 670 700 670 714 685 c 256,227,228
 728 699 728 699 749 700 c 0,229,230
 770 700 770 700 785 685 c 256,231,232
 799 671 799 671 799 649 c 256,233,234
 799 628 799 628 785 615 c 0,235,236
 771 601 771 601 749 599 c 1,237,-1
 749 599 l 1,221,222
EndSplineSet
Validated: 5
EndChar

StartChar: parenright
Encoding: 41 41 9
Width: 1200
VWidth: 599
Flags: W
LayerCount: 2
Fore
SplineSet
250 0 m 1,0,1
 229 0 229 0 215 14 c 0,2,3
 201 29 201 29 200 50 c 256,4,5
 200 71 200 71 215 85 c 256,6,7
 229 99 229 99 250 100 c 256,8,9
 271 100 271 100 286 85 c 0,10,11
 300 71 300 71 300 50 c 256,12,13
 300 29 300 29 286 14 c 0,14,15
 271 0 271 0 250 0 c 1,16,-1
 250 0 l 1,0,1
350 0 m 1,17,18
 329 0 329 0 314 14 c 0,19,20
 300 29 300 29 300 50 c 256,21,22
 300 71 300 71 314 85 c 0,23,24
 329 99 329 99 350 100 c 256,25,26
 371 100 371 100 385 85 c 256,27,28
 399 71 399 71 400 50 c 256,29,30
 400 29 400 29 385 14 c 0,31,32
 371 0 371 0 350 0 c 1,33,-1
 350 0 l 1,17,18
450 100 m 1,34,35
 429 100 429 100 415 115 c 256,36,37
 401 129 401 129 400 150 c 0,38,39
 400 171 400 171 415 186 c 256,40,41
 429 200 429 200 450 200 c 0,42,43
 471 200 471 200 485 186 c 256,44,45
 499 172 499 172 500 150 c 0,46,47
 500 129 500 129 485 115 c 256,48,49
 471 101 471 101 450 100 c 1,50,-1
 450 100 l 1,34,35
550 100 m 1,51,52
 529 100 529 100 515 115 c 256,53,54
 501 129 501 129 500 150 c 0,55,56
 500 171 500 171 515 186 c 256,57,58
 529 200 529 200 550 200 c 256,59,60
 571 200 571 200 585 186 c 0,61,62
 599 172 599 172 599 150 c 0,63,64
 599 129 599 129 585 115 c 0,65,66
 570 101 570 101 550 100 c 1,67,-1
 550 100 l 1,51,52
550 200 m 1,68,69
 529 200 529 200 515 215 c 256,70,71
 501 229 501 229 500 250 c 256,72,73
 500 271 500 271 515 286 c 0,74,75
 529 300 529 300 550 300 c 256,76,77
 571 300 571 300 585 286 c 0,78,79
 599 271 599 271 599 250 c 256,80,81
 599 229 599 229 585 215 c 0,82,83
 570 201 570 201 550 200 c 1,84,-1
 550 200 l 1,68,69
649 200 m 1,85,86
 628 200 628 200 615 215 c 0,87,88
 601 229 601 229 599 250 c 256,89,90
 599 271 599 271 615 286 c 0,91,92
 630 300 630 300 649 300 c 256,93,94
 670 300 670 300 685 286 c 0,95,96
 699 271 699 271 700 250 c 256,97,98
 700 229 700 229 685 215 c 256,99,100
 671 201 671 201 649 200 c 1,101,-1
 649 200 l 1,85,86
550 300 m 1,102,103
 529 300 529 300 515 314 c 0,104,105
 501 329 501 329 500 350 c 256,106,107
 500 371 500 371 515 385 c 256,108,109
 529 399 529 399 550 400 c 256,110,111
 571 400 571 400 585 385 c 0,112,113
 599 371 599 371 599 350 c 256,114,115
 599 329 599 329 585 314 c 0,116,117
 570 300 570 300 550 300 c 1,118,-1
 550 300 l 1,102,103
649 300 m 1,119,120
 628 300 628 300 615 314 c 0,121,122
 601 329 601 329 599 350 c 256,123,124
 599 371 599 371 615 385 c 0,125,126
 630 399 630 399 649 400 c 256,127,128
 670 400 670 400 685 385 c 256,129,130
 699 371 699 371 700 350 c 256,131,132
 700 329 700 329 685 314 c 0,133,134
 671 300 671 300 649 300 c 1,135,-1
 649 300 l 1,119,120
550 400 m 1,136,137
 529 400 529 400 515 415 c 256,138,139
 501 429 501 429 500 450 c 0,140,141
 500 471 500 471 515 485 c 256,142,143
 529 499 529 499 550 500 c 256,144,145
 571 500 571 500 585 485 c 0,146,147
 599 471 599 471 599 450 c 0,148,149
 599 429 599 429 585 415 c 0,150,151
 570 401 570 401 550 400 c 1,152,-1
 550 400 l 1,136,137
649 400 m 1,153,154
 628 400 628 400 615 415 c 0,155,156
 601 429 601 429 599 450 c 0,157,158
 599 471 599 471 615 485 c 0,159,160
 630 499 630 499 649 500 c 256,161,162
 670 500 670 500 685 485 c 256,163,164
 699 471 699 471 700 450 c 0,165,166
 700 429 700 429 685 415 c 256,167,168
 671 401 671 401 649 400 c 1,169,-1
 649 400 l 1,153,154
450 500 m 1,170,171
 429 500 429 500 415 515 c 256,172,173
 401 529 401 529 400 550 c 256,174,175
 400 571 400 571 415 585 c 0,176,177
 429 599 429 599 450 599 c 0,178,179
 471 599 471 599 485 585 c 0,180,181
 499 570 499 570 500 550 c 256,182,183
 500 529 500 529 485 515 c 256,184,185
 471 501 471 501 450 500 c 1,186,-1
 450 500 l 1,170,171
550 500 m 1,187,188
 529 500 529 500 515 515 c 256,189,190
 501 529 501 529 500 550 c 256,191,192
 500 571 500 571 515 585 c 0,193,194
 529 599 529 599 550 599 c 256,195,196
 571 599 571 599 585 585 c 0,197,198
 599 570 599 570 599 550 c 256,199,200
 599 529 599 529 585 515 c 0,201,202
 570 501 570 501 550 500 c 1,203,-1
 550 500 l 1,187,188
250 599 m 1,204,205
 229 599 229 599 215 615 c 0,206,207
 201 630 201 630 200 649 c 256,208,209
 200 670 200 670 215 685 c 256,210,211
 229 699 229 699 250 700 c 256,212,213
 271 700 271 700 286 685 c 0,214,215
 300 671 300 671 300 649 c 256,216,217
 300 628 300 628 286 615 c 0,218,219
 271 601 271 601 250 599 c 1,220,-1
 250 599 l 1,204,205
350 599 m 1,221,222
 329 599 329 599 314 615 c 0,223,224
 300 630 300 630 300 649 c 256,225,226
 300 670 300 670 314 685 c 0,227,228
 329 699 329 699 350 700 c 256,229,230
 371 700 371 700 385 685 c 256,231,232
 399 671 399 671 400 649 c 256,233,234
 400 628 400 628 385 615 c 0,235,236
 371 601 371 601 350 599 c 1,237,-1
 350 599 l 1,221,222
EndSplineSet
Validated: 5
EndChar

StartChar: asterisk
Encoding: 42 42 10
Width: 1200
VWidth: 599
Flags: W
LayerCount: 2
Fore
SplineSet
450 100 m 1,0,1
 429 100 429 100 415 115 c 256,2,3
 401 129 401 129 400 150 c 0,4,5
 400 171 400 171 415 186 c 256,6,7
 429 200 429 200 450 200 c 0,8,9
 471 200 471 200 485 186 c 256,10,11
 499 172 499 172 500 150 c 0,12,13
 500 129 500 129 485 115 c 256,14,15
 471 101 471 101 450 100 c 1,16,-1
 450 100 l 1,0,1
550 100 m 1,17,18
 529 100 529 100 515 115 c 256,19,20
 501 129 501 129 500 150 c 0,21,22
 500 171 500 171 515 186 c 256,23,24
 529 200 529 200 550 200 c 256,25,26
 571 200 571 200 585 186 c 0,27,28
 599 172 599 172 599 150 c 0,29,30
 599 129 599 129 585 115 c 0,31,32
 570 101 570 101 550 100 c 1,33,-1
 550 100 l 1,17,18
50 200 m 1,34,35
 29 200 29 200 14 215 c 0,36,37
 0 229 0 229 0 250 c 256,38,39
 0 271 0 271 14 286 c 0,40,41
 29 300 29 300 50 300 c 256,42,43
 71 300 71 300 85 286 c 0,44,45
 99 271 99 271 100 250 c 256,46,47
 100 229 100 229 85 215 c 256,48,49
 71 201 71 201 50 200 c 1,50,-1
 50 200 l 1,34,35
150 200 m 1,51,52
 129 200 129 200 115 215 c 256,53,54
 101 229 101 229 100 250 c 256,55,56
 100 271 100 271 115 286 c 0,57,58
 129 300 129 300 150 300 c 0,59,60
 171 300 171 300 186 286 c 0,61,62
 200 271 200 271 200 250 c 256,63,64
 200 229 200 229 186 215 c 256,65,66
 172 201 172 201 150 200 c 1,67,-1
 150 200 l 1,51,52
450 200 m 1,68,69
 429 200 429 200 415 215 c 256,70,71
 401 229 401 229 400 250 c 256,72,73
 400 271 400 271 415 286 c 0,74,75
 429 300 429 300 450 300 c 0,76,77
 471 300 471 300 485 286 c 0,78,79
 499 271 499 271 500 250 c 256,80,81
 500 229 500 229 485 215 c 256,82,83
 471 201 471 201 450 200 c 1,84,-1
 450 200 l 1,68,69
550 200 m 1,85,86
 529 200 529 200 515 215 c 256,87,88
 501 229 501 229 500 250 c 256,89,90
 500 271 500 271 515 286 c 0,91,92
 529 300 529 300 550 300 c 256,93,94
 571 300 571 300 585 286 c 0,95,96
 599 271 599 271 599 250 c 256,97,98
 599 229 599 229 585 215 c 0,99,100
 570 201 570 201 550 200 c 1,101,-1
 550 200 l 1,85,86
850 200 m 1,102,103
 829 200 829 200 814 215 c 256,104,105
 800 229 800 229 799 250 c 256,106,107
 799 271 799 271 814 286 c 0,108,109
 828 300 828 300 850 300 c 256,110,111
 871 300 871 300 885 286 c 0,112,113
 899 271 899 271 900 250 c 256,114,115
 900 229 900 229 885 215 c 0,116,117
 870 201 870 201 850 200 c 1,118,-1
 850 200 l 1,102,103
949 200 m 1,119,120
 928 200 928 200 914 215 c 0,121,122
 900 229 900 229 900 250 c 256,123,124
 900 271 900 271 914 286 c 0,125,126
 929 300 929 300 949 300 c 256,127,128
 970 300 970 300 985 286 c 0,129,130
 999 271 999 271 1000 250 c 256,131,132
 1000 229 1000 229 985 215 c 256,133,134
 971 201 971 201 949 200 c 1,135,-1
 949 200 l 1,119,120
250 300 m 1,136,137
 229 300 229 300 215 314 c 0,138,139
 201 329 201 329 200 350 c 256,140,141
 200 371 200 371 215 385 c 256,142,143
 229 399 229 399 250 400 c 256,144,145
 271 400 271 400 286 385 c 0,146,147
 300 371 300 371 300 350 c 256,148,149
 300 329 300 329 286 314 c 0,150,151
 271 300 271 300 250 300 c 1,152,-1
 250 300 l 1,136,137
350 300 m 1,153,154
 329 300 329 300 314 314 c 0,155,156
 300 329 300 329 300 350 c 256,157,158
 300 371 300 371 314 385 c 0,159,160
 329 399 329 399 350 400 c 256,161,162
 371 400 371 400 385 385 c 256,163,164
 399 371 399 371 400 350 c 256,165,166
 400 329 400 329 385 314 c 0,167,168
 371 300 371 300 350 300 c 1,169,-1
 350 300 l 1,153,154
450 300 m 1,170,171
 429 300 429 300 415 314 c 0,172,173
 401 329 401 329 400 350 c 256,174,175
 400 371 400 371 415 385 c 256,176,177
 429 399 429 399 450 400 c 0,178,179
 471 400 471 400 485 385 c 256,180,181
 499 371 499 371 500 350 c 256,182,183
 500 329 500 329 485 314 c 0,184,185
 471 300 471 300 450 300 c 1,186,-1
 450 300 l 1,170,171
550 300 m 1,187,188
 529 300 529 300 515 314 c 0,189,190
 501 329 501 329 500 350 c 256,191,192
 500 371 500 371 515 385 c 256,193,194
 529 399 529 399 550 400 c 256,195,196
 571 400 571 400 585 385 c 0,197,198
 599 371 599 371 599 350 c 256,199,200
 599 329 599 329 585 314 c 0,201,202
 570 300 570 300 550 300 c 1,203,-1
 550 300 l 1,187,188
649 300 m 1,204,205
 628 300 628 300 615 314 c 0,206,207
 601 329 601 329 599 350 c 256,208,209
 599 371 599 371 615 385 c 0,210,211
 630 399 630 399 649 400 c 256,212,213
 670 400 670 400 685 385 c 256,214,215
 699 371 699 371 700 350 c 256,216,217
 700 329 700 329 685 314 c 0,218,219
 671 300 671 300 649 300 c 1,220,-1
 649 300 l 1,204,205
749 300 m 1,221,222
 728 300 728 300 714 314 c 0,223,224
 700 329 700 329 700 350 c 256,225,226
 700 371 700 371 714 385 c 256,227,228
 728 399 728 399 749 400 c 0,229,230
 770 400 770 400 785 385 c 256,231,232
 799 371 799 371 799 350 c 256,233,234
 799 329 799 329 785 314 c 0,235,236
 771 300 771 300 749 300 c 1,237,-1
 749 300 l 1,221,222
50 400 m 1,238,239
 29 400 29 400 14 415 c 0,240,241
 0 429 0 429 0 450 c 0,242,243
 0 471 0 471 14 485 c 0,244,245
 29 499 29 499 50 500 c 256,246,247
 71 500 71 500 85 485 c 256,248,249
 99 471 99 471 100 450 c 0,250,251
 100 429 100 429 85 415 c 256,252,253
 71 401 71 401 50 400 c 1,254,-1
 50 400 l 1,238,239
150 400 m 1,255,256
 129 400 129 400 115 415 c 256,257,258
 101 429 101 429 100 450 c 0,259,260
 100 471 100 471 115 485 c 256,261,262
 129 499 129 499 150 500 c 0,263,264
 171 500 171 500 186 485 c 256,265,266
 200 471 200 471 200 450 c 0,267,268
 200 429 200 429 186 415 c 256,269,270
 172 401 172 401 150 400 c 1,271,-1
 150 400 l 1,255,256
450 400 m 1,272,273
 429 400 429 400 415 415 c 256,274,275
 401 429 401 429 400 450 c 0,276,277
 400 471 400 471 415 485 c 256,278,279
 429 499 429 499 450 500 c 0,280,281
 471 500 471 500 485 485 c 256,282,283
 499 471 499 471 500 450 c 0,284,285
 500 429 500 429 485 415 c 256,286,287
 471 401 471 401 450 400 c 1,288,-1
 450 400 l 1,272,273
550 400 m 1,289,290
 529 400 529 400 515 415 c 256,291,292
 501 429 501 429 500 450 c 0,293,294
 500 471 500 471 515 485 c 256,295,296
 529 499 529 499 550 500 c 256,297,298
 571 500 571 500 585 485 c 0,299,300
 599 471 599 471 599 450 c 0,301,302
 599 429 599 429 585 415 c 0,303,304
 570 401 570 401 550 400 c 1,305,-1
 550 400 l 1,289,290
850 400 m 1,306,307
 829 400 829 400 814 415 c 256,308,309
 800 429 800 429 799 450 c 0,310,311
 799 471 799 471 814 485 c 256,312,313
 828 499 828 499 850 500 c 256,314,315
 871 500 871 500 885 485 c 0,316,317
 899 471 899 471 900 450 c 0,318,319
 900 429 900 429 885 415 c 0,320,321
 870 401 870 401 850 400 c 1,322,-1
 850 400 l 1,306,307
949 400 m 1,323,324
 928 400 928 400 914 415 c 0,325,326
 900 429 900 429 900 450 c 0,327,328
 900 471 900 471 914 485 c 0,329,330
 929 499 929 499 949 500 c 256,331,332
 970 500 970 500 985 485 c 256,333,334
 999 471 999 471 1000 450 c 0,335,336
 1000 429 1000 429 985 415 c 256,337,338
 971 401 971 401 949 400 c 1,339,-1
 949 400 l 1,323,324
450 500 m 1,340,341
 429 500 429 500 415 515 c 256,342,343
 401 529 401 529 400 550 c 256,344,345
 400 571 400 571 415 585 c 0,346,347
 429 599 429 599 450 599 c 0,348,349
 471 599 471 599 485 585 c 0,350,351
 499 570 499 570 500 550 c 256,352,353
 500 529 500 529 485 515 c 256,354,355
 471 501 471 501 450 500 c 1,356,-1
 450 500 l 1,340,341
550 500 m 1,357,358
 529 500 529 500 515 515 c 256,359,360
 501 529 501 529 500 550 c 256,361,362
 500 571 500 571 515 585 c 0,363,364
 529 599 529 599 550 599 c 256,365,366
 571 599 571 599 585 585 c 0,367,368
 599 570 599 570 599 550 c 256,369,370
 599 529 599 529 585 515 c 0,371,372
 570 501 570 501 550 500 c 1,373,-1
 550 500 l 1,357,358
EndSplineSet
Validated: 5
EndChar

StartChar: plus
Encoding: 43 43 11
Width: 1200
VWidth: 599
Flags: W
LayerCount: 2
Fore
SplineSet
450 100 m 1,0,1
 429 100 429 100 415 115 c 256,2,3
 401 129 401 129 400 150 c 0,4,5
 400 171 400 171 415 186 c 256,6,7
 429 200 429 200 450 200 c 0,8,9
 471 200 471 200 485 186 c 256,10,11
 499 172 499 172 500 150 c 0,12,13
 500 129 500 129 485 115 c 256,14,15
 471 101 471 101 450 100 c 1,16,-1
 450 100 l 1,0,1
550 100 m 1,17,18
 529 100 529 100 515 115 c 256,19,20
 501 129 501 129 500 150 c 0,21,22
 500 171 500 171 515 186 c 256,23,24
 529 200 529 200 550 200 c 256,25,26
 571 200 571 200 585 186 c 0,27,28
 599 172 599 172 599 150 c 0,29,30
 599 129 599 129 585 115 c 0,31,32
 570 101 570 101 550 100 c 1,33,-1
 550 100 l 1,17,18
450 200 m 1,34,35
 429 200 429 200 415 215 c 256,36,37
 401 229 401 229 400 250 c 256,38,39
 400 271 400 271 415 286 c 0,40,41
 429 300 429 300 450 300 c 0,42,43
 471 300 471 300 485 286 c 0,44,45
 499 271 499 271 500 250 c 256,46,47
 500 229 500 229 485 215 c 256,48,49
 471 201 471 201 450 200 c 1,50,-1
 450 200 l 1,34,35
550 200 m 1,51,52
 529 200 529 200 515 215 c 256,53,54
 501 229 501 229 500 250 c 256,55,56
 500 271 500 271 515 286 c 0,57,58
 529 300 529 300 550 300 c 256,59,60
 571 300 571 300 585 286 c 0,61,62
 599 271 599 271 599 250 c 256,63,64
 599 229 599 229 585 215 c 0,65,66
 570 201 570 201 550 200 c 1,67,-1
 550 200 l 1,51,52
50 300 m 1,68,69
 29 300 29 300 14 314 c 0,70,71
 0 329 0 329 0 350 c 256,72,73
 0 371 0 371 14 385 c 0,74,75
 29 399 29 399 50 400 c 256,76,77
 71 400 71 400 85 385 c 256,78,79
 99 371 99 371 100 350 c 256,80,81
 100 329 100 329 85 314 c 0,82,83
 71 300 71 300 50 300 c 1,84,-1
 50 300 l 1,68,69
150 300 m 1,85,86
 129 300 129 300 115 314 c 0,87,88
 101 329 101 329 100 350 c 256,89,90
 100 371 100 371 115 385 c 256,91,92
 129 399 129 399 150 400 c 0,93,94
 171 400 171 400 186 385 c 256,95,96
 200 371 200 371 200 350 c 256,97,98
 200 329 200 329 186 314 c 0,99,100
 172 300 172 300 150 300 c 1,101,-1
 150 300 l 1,85,86
250 300 m 1,102,103
 229 300 229 300 215 314 c 0,104,105
 201 329 201 329 200 350 c 256,106,107
 200 371 200 371 215 385 c 256,108,109
 229 399 229 399 250 400 c 256,110,111
 271 400 271 400 286 385 c 0,112,113
 300 371 300 371 300 350 c 256,114,115
 300 329 300 329 286 314 c 0,116,117
 271 300 271 300 250 300 c 1,118,-1
 250 300 l 1,102,103
350 300 m 1,119,120
 329 300 329 300 314 314 c 0,121,122
 300 329 300 329 300 350 c 256,123,124
 300 371 300 371 314 385 c 0,125,126
 329 399 329 399 350 400 c 256,127,128
 371 400 371 400 385 385 c 256,129,130
 399 371 399 371 400 350 c 256,131,132
 400 329 400 329 385 314 c 0,133,134
 371 300 371 300 350 300 c 1,135,-1
 350 300 l 1,119,120
450 300 m 1,136,137
 429 300 429 300 415 314 c 0,138,139
 401 329 401 329 400 350 c 256,140,141
 400 371 400 371 415 385 c 256,142,143
 429 399 429 399 450 400 c 0,144,145
 471 400 471 400 485 385 c 256,146,147
 499 371 499 371 500 350 c 256,148,149
 500 329 500 329 485 314 c 0,150,151
 471 300 471 300 450 300 c 1,152,-1
 450 300 l 1,136,137
550 300 m 1,153,154
 529 300 529 300 515 314 c 0,155,156
 501 329 501 329 500 350 c 256,157,158
 500 371 500 371 515 385 c 256,159,160
 529 399 529 399 550 400 c 256,161,162
 571 400 571 400 585 385 c 0,163,164
 599 371 599 371 599 350 c 256,165,166
 599 329 599 329 585 314 c 0,167,168
 570 300 570 300 550 300 c 1,169,-1
 550 300 l 1,153,154
649 300 m 1,170,171
 628 300 628 300 615 314 c 0,172,173
 601 329 601 329 599 350 c 256,174,175
 599 371 599 371 615 385 c 0,176,177
 630 399 630 399 649 400 c 256,178,179
 670 400 670 400 685 385 c 256,180,181
 699 371 699 371 700 350 c 256,182,183
 700 329 700 329 685 314 c 0,184,185
 671 300 671 300 649 300 c 1,186,-1
 649 300 l 1,170,171
749 300 m 1,187,188
 728 300 728 300 714 314 c 0,189,190
 700 329 700 329 700 350 c 256,191,192
 700 371 700 371 714 385 c 256,193,194
 728 399 728 399 749 400 c 0,195,196
 770 400 770 400 785 385 c 256,197,198
 799 371 799 371 799 350 c 256,199,200
 799 329 799 329 785 314 c 0,201,202
 771 300 771 300 749 300 c 1,203,-1
 749 300 l 1,187,188
850 300 m 1,204,205
 829 300 829 300 814 314 c 0,206,207
 800 329 800 329 799 350 c 256,208,209
 799 371 799 371 814 385 c 256,210,211
 828 399 828 399 850 400 c 256,212,213
 871 400 871 400 885 385 c 0,214,215
 899 371 899 371 900 350 c 256,216,217
 900 329 900 329 885 314 c 0,218,219
 870 300 870 300 850 300 c 1,220,-1
 850 300 l 1,204,205
949 300 m 1,221,222
 928 300 928 300 914 314 c 0,223,224
 900 329 900 329 900 350 c 256,225,226
 900 371 900 371 914 385 c 0,227,228
 929 399 929 399 949 400 c 256,229,230
 970 400 970 400 985 385 c 256,231,232
 999 371 999 371 1000 350 c 256,233,234
 1000 329 1000 329 985 314 c 0,235,236
 971 300 971 300 949 300 c 1,237,-1
 949 300 l 1,221,222
450 400 m 1,238,239
 429 400 429 400 415 415 c 256,240,241
 401 429 401 429 400 450 c 0,242,243
 400 471 400 471 415 485 c 256,244,245
 429 499 429 499 450 500 c 0,246,247
 471 500 471 500 485 485 c 256,248,249
 499 471 499 471 500 450 c 0,250,251
 500 429 500 429 485 415 c 256,252,253
 471 401 471 401 450 400 c 1,254,-1
 450 400 l 1,238,239
550 400 m 1,255,256
 529 400 529 400 515 415 c 256,257,258
 501 429 501 429 500 450 c 0,259,260
 500 471 500 471 515 485 c 256,261,262
 529 499 529 499 550 500 c 256,263,264
 571 500 571 500 585 485 c 0,265,266
 599 471 599 471 599 450 c 0,267,268
 599 429 599 429 585 415 c 0,269,270
 570 401 570 401 550 400 c 1,271,-1
 550 400 l 1,255,256
450 500 m 1,272,273
 429 500 429 500 415 515 c 256,274,275
 401 529 401 529 400 550 c 256,276,277
 400 571 400 571 415 585 c 0,278,279
 429 599 429 599 450 599 c 0,280,281
 471 599 471 599 485 585 c 0,282,283
 499 570 499 570 500 550 c 256,284,285
 500 529 500 529 485 515 c 256,286,287
 471 501 471 501 450 500 c 1,288,-1
 450 500 l 1,272,273
550 500 m 1,289,290
 529 500 529 500 515 515 c 256,291,292
 501 529 501 529 500 550 c 256,293,294
 500 571 500 571 515 585 c 0,295,296
 529 599 529 599 550 599 c 256,297,298
 571 599 571 599 585 585 c 0,299,300
 599 570 599 570 599 550 c 256,301,302
 599 529 599 529 585 515 c 0,303,304
 570 501 570 501 550 500 c 1,305,-1
 550 500 l 1,289,290
EndSplineSet
Validated: 5
EndChar

StartChar: comma
Encoding: 44 44 12
Width: 1200
VWidth: 599
Flags: W
LayerCount: 2
Fore
SplineSet
250 0 m 1,0,1
 229 0 229 0 215 14 c 0,2,3
 201 29 201 29 200 50 c 256,4,5
 200 71 200 71 215 85 c 256,6,7
 229 99 229 99 250 100 c 256,8,9
 271 100 271 100 286 85 c 0,10,11
 300 71 300 71 300 50 c 256,12,13
 300 29 300 29 286 14 c 0,14,15
 271 0 271 0 250 0 c 1,16,-1
 250 0 l 1,0,1
350 0 m 1,17,18
 329 0 329 0 314 14 c 0,19,20
 300 29 300 29 300 50 c 256,21,22
 300 71 300 71 314 85 c 0,23,24
 329 99 329 99 350 100 c 256,25,26
 371 100 371 100 385 85 c 256,27,28
 399 71 399 71 400 50 c 256,29,30
 400 29 400 29 385 14 c 0,31,32
 371 0 371 0 350 0 c 1,33,-1
 350 0 l 1,17,18
350 100 m 1,34,35
 329 100 329 100 314 115 c 0,36,37
 300 129 300 129 300 150 c 0,38,39
 300 171 300 171 314 186 c 0,40,41
 329 200 329 200 350 200 c 256,42,43
 371 200 371 200 385 186 c 256,44,45
 399 172 399 172 400 150 c 0,46,47
 400 129 400 129 385 115 c 256,48,49
 371 101 371 101 350 100 c 1,50,-1
 350 100 l 1,34,35
450 100 m 1,51,52
 429 100 429 100 415 115 c 256,53,54
 401 129 401 129 400 150 c 0,55,56
 400 171 400 171 415 186 c 256,57,58
 429 200 429 200 450 200 c 0,59,60
 471 200 471 200 485 186 c 256,61,62
 499 172 499 172 500 150 c 0,63,64
 500 129 500 129 485 115 c 256,65,66
 471 101 471 101 450 100 c 1,67,-1
 450 100 l 1,51,52
150 200 m 1,68,69
 129 200 129 200 115 215 c 256,70,71
 101 229 101 229 100 250 c 256,72,73
 100 271 100 271 115 286 c 0,74,75
 129 300 129 300 150 300 c 0,76,77
 171 300 171 300 186 286 c 0,78,79
 200 271 200 271 200 250 c 256,80,81
 200 229 200 229 186 215 c 256,82,83
 172 201 172 201 150 200 c 1,84,-1
 150 200 l 1,68,69
250 200 m 1,85,86
 229 200 229 200 215 215 c 256,87,88
 201 229 201 229 200 250 c 256,89,90
 200 271 200 271 215 286 c 0,91,92
 229 300 229 300 250 300 c 256,93,94
 271 300 271 300 286 286 c 0,95,96
 300 271 300 271 300 250 c 256,97,98
 300 229 300 229 286 215 c 0,99,100
 271 201 271 201 250 200 c 1,101,-1
 250 200 l 1,85,86
350 200 m 1,102,103
 329 200 329 200 314 215 c 0,104,105
 300 229 300 229 300 250 c 256,106,107
 300 271 300 271 314 286 c 0,108,109
 329 300 329 300 350 300 c 256,110,111
 371 300 371 300 385 286 c 0,112,113
 399 271 399 271 400 250 c 256,114,115
 400 229 400 229 385 215 c 256,116,117
 371 201 371 201 350 200 c 1,118,-1
 350 200 l 1,102,103
450 200 m 1,119,120
 429 200 429 200 415 215 c 256,121,122
 401 229 401 229 400 250 c 256,123,124
 400 271 400 271 415 286 c 0,125,126
 429 300 429 300 450 300 c 0,127,128
 471 300 471 300 485 286 c 0,129,130
 499 271 499 271 500 250 c 256,131,132
 500 229 500 229 485 215 c 256,133,134
 471 201 471 201 450 200 c 1,135,-1
 450 200 l 1,119,120
EndSplineSet
Validated: 5
EndChar

StartChar: hyphen
Encoding: 45 45 13
Width: 1200
VWidth: 599
Flags: W
LayerCount: 2
Fore
SplineSet
50 300 m 1,0,1
 29 300 29 300 14 314 c 0,2,3
 0 329 0 329 0 350 c 256,4,5
 0 371 0 371 14 385 c 0,6,7
 29 399 29 399 50 400 c 256,8,9
 71 400 71 400 85 385 c 256,10,11
 99 371 99 371 100 350 c 256,12,13
 100 329 100 329 85 314 c 0,14,15
 71 300 71 300 50 300 c 1,16,-1
 50 300 l 1,0,1
150 300 m 1,17,18
 129 300 129 300 115 314 c 0,19,20
 101 329 101 329 100 350 c 256,21,22
 100 371 100 371 115 385 c 256,23,24
 129 399 129 399 150 400 c 0,25,26
 171 400 171 400 186 385 c 256,27,28
 200 371 200 371 200 350 c 256,29,30
 200 329 200 329 186 314 c 0,31,32
 172 300 172 300 150 300 c 1,33,-1
 150 300 l 1,17,18
250 300 m 1,34,35
 229 300 229 300 215 314 c 0,36,37
 201 329 201 329 200 350 c 256,38,39
 200 371 200 371 215 385 c 256,40,41
 229 399 229 399 250 400 c 256,42,43
 271 400 271 400 286 385 c 0,44,45
 300 371 300 371 300 350 c 256,46,47
 300 329 300 329 286 314 c 0,48,49
 271 300 271 300 250 300 c 1,50,-1
 250 300 l 1,34,35
350 300 m 1,51,52
 329 300 329 300 314 314 c 0,53,54
 300 329 300 329 300 350 c 256,55,56
 300 371 300 371 314 385 c 0,57,58
 329 399 329 399 350 400 c 256,59,60
 371 400 371 400 385 385 c 256,61,62
 399 371 399 371 400 350 c 256,63,64
 400 329 400 329 385 314 c 0,65,66
 371 300 371 300 350 300 c 1,67,-1
 350 300 l 1,51,52
450 300 m 1,68,69
 429 300 429 300 415 314 c 0,70,71
 401 329 401 329 400 350 c 256,72,73
 400 371 400 371 415 385 c 256,74,75
 429 399 429 399 450 400 c 0,76,77
 471 400 471 400 485 385 c 256,78,79
 499 371 499 371 500 350 c 256,80,81
 500 329 500 329 485 314 c 0,82,83
 471 300 471 300 450 300 c 1,84,-1
 450 300 l 1,68,69
550 300 m 1,85,86
 529 300 529 300 515 314 c 0,87,88
 501 329 501 329 500 350 c 256,89,90
 500 371 500 371 515 385 c 256,91,92
 529 399 529 399 550 400 c 256,93,94
 571 400 571 400 585 385 c 0,95,96
 599 371 599 371 599 350 c 256,97,98
 599 329 599 329 585 314 c 0,99,100
 570 300 570 300 550 300 c 1,101,-1
 550 300 l 1,85,86
649 300 m 1,102,103
 628 300 628 300 615 314 c 0,104,105
 601 329 601 329 599 350 c 256,106,107
 599 371 599 371 615 385 c 0,108,109
 630 399 630 399 649 400 c 256,110,111
 670 400 670 400 685 385 c 256,112,113
 699 371 699 371 700 350 c 256,114,115
 700 329 700 329 685 314 c 0,116,117
 671 300 671 300 649 300 c 1,118,-1
 649 300 l 1,102,103
749 300 m 1,119,120
 728 300 728 300 714 314 c 0,121,122
 700 329 700 329 700 350 c 256,123,124
 700 371 700 371 714 385 c 256,125,126
 728 399 728 399 749 400 c 0,127,128
 770 400 770 400 785 385 c 256,129,130
 799 371 799 371 799 350 c 256,131,132
 799 329 799 329 785 314 c 0,133,134
 771 300 771 300 749 300 c 1,135,-1
 749 300 l 1,119,120
850 300 m 1,136,137
 829 300 829 300 814 314 c 0,138,139
 800 329 800 329 799 350 c 256,140,141
 799 371 799 371 814 385 c 256,142,143
 828 399 828 399 850 400 c 256,144,145
 871 400 871 400 885 385 c 0,146,147
 899 371 899 371 900 350 c 256,148,149
 900 329 900 329 885 314 c 0,150,151
 870 300 870 300 850 300 c 1,152,-1
 850 300 l 1,136,137
949 300 m 1,153,154
 928 300 928 300 914 314 c 0,155,156
 900 329 900 329 900 350 c 256,157,158
 900 371 900 371 914 385 c 0,159,160
 929 399 929 399 949 400 c 256,161,162
 970 400 970 400 985 385 c 256,163,164
 999 371 999 371 1000 350 c 256,165,166
 1000 329 1000 329 985 314 c 0,167,168
 971 300 971 300 949 300 c 1,169,-1
 949 300 l 1,153,154
EndSplineSet
Validated: 5
EndChar

StartChar: period
Encoding: 46 46 14
Width: 1200
VWidth: 599
Flags: W
LayerCount: 2
Fore
SplineSet
50 0 m 1,0,1
 29 0 29 0 14 14 c 0,2,3
 0 29 0 29 0 50 c 256,4,5
 0 71 0 71 14 85 c 0,6,7
 29 99 29 99 50 100 c 256,8,9
 71 100 71 100 85 85 c 256,10,11
 99 71 99 71 100 50 c 256,12,13
 100 29 100 29 85 14 c 0,14,15
 71 0 71 0 50 0 c 1,16,-1
 50 0 l 1,0,1
150 0 m 1,17,18
 129 0 129 0 115 14 c 0,19,20
 101 29 101 29 100 50 c 256,21,22
 100 71 100 71 115 85 c 256,23,24
 129 99 129 99 150 100 c 0,25,26
 171 100 171 100 186 85 c 256,27,28
 200 71 200 71 200 50 c 256,29,30
 200 29 200 29 186 14 c 0,31,32
 172 0 172 0 150 0 c 1,33,-1
 150 0 l 1,17,18
250 0 m 1,34,35
 229 0 229 0 215 14 c 0,36,37
 201 29 201 29 200 50 c 256,38,39
 200 71 200 71 215 85 c 256,40,41
 229 99 229 99 250 100 c 256,42,43
 271 100 271 100 286 85 c 0,44,45
 300 71 300 71 300 50 c 256,46,47
 300 29 300 29 286 14 c 0,48,49
 271 0 271 0 250 0 c 1,50,-1
 250 0 l 1,34,35
350 0 m 1,51,52
 329 0 329 0 314 14 c 0,53,54
 300 29 300 29 300 50 c 256,55,56
 300 71 300 71 314 85 c 0,57,58
 329 99 329 99 350 100 c 256,59,60
 371 100 371 100 385 85 c 256,61,62
 399 71 399 71 400 50 c 256,63,64
 400 29 400 29 385 14 c 0,65,66
 371 0 371 0 350 0 c 1,67,-1
 350 0 l 1,51,52
50 100 m 1,68,69
 29 100 29 100 14 115 c 0,70,71
 0 129 0 129 0 150 c 0,72,73
 0 171 0 171 14 186 c 0,74,75
 29 200 29 200 50 200 c 256,76,77
 71 200 71 200 85 186 c 256,78,79
 99 172 99 172 100 150 c 0,80,81
 100 129 100 129 85 115 c 256,82,83
 71 101 71 101 50 100 c 1,84,-1
 50 100 l 1,68,69
150 100 m 1,85,86
 129 100 129 100 115 115 c 256,87,88
 101 129 101 129 100 150 c 0,89,90
 100 171 100 171 115 186 c 256,91,92
 129 200 129 200 150 200 c 0,93,94
 171 200 171 200 186 186 c 256,95,96
 200 172 200 172 200 150 c 0,97,98
 200 129 200 129 186 115 c 256,99,100
 172 101 172 101 150 100 c 1,101,-1
 150 100 l 1,85,86
250 100 m 1,102,103
 229 100 229 100 215 115 c 256,104,105
 201 129 201 129 200 150 c 0,106,107
 200 171 200 171 215 186 c 256,108,109
 229 200 229 200 250 200 c 256,110,111
 271 200 271 200 286 186 c 0,112,113
 300 172 300 172 300 150 c 0,114,115
 300 129 300 129 286 115 c 0,116,117
 271 101 271 101 250 100 c 1,118,-1
 250 100 l 1,102,103
350 100 m 1,119,120
 329 100 329 100 314 115 c 0,121,122
 300 129 300 129 300 150 c 0,123,124
 300 171 300 171 314 186 c 0,125,126
 329 200 329 200 350 200 c 256,127,128
 371 200 371 200 385 186 c 256,129,130
 399 172 399 172 400 150 c 0,131,132
 400 129 400 129 385 115 c 256,133,134
 371 101 371 101 350 100 c 1,135,-1
 350 100 l 1,119,120
EndSplineSet
Validated: 5
EndChar

StartChar: slash
Encoding: 47 47 15
Width: 1200
VWidth: 599
Flags: W
LayerCount: 2
Fore
SplineSet
150 0 m 1,0,1
 129 0 129 0 115 14 c 0,2,3
 101 29 101 29 100 50 c 256,4,5
 100 71 100 71 115 85 c 256,6,7
 129 99 129 99 150 100 c 0,8,9
 171 100 171 100 186 85 c 256,10,11
 200 71 200 71 200 50 c 256,12,13
 200 29 200 29 186 14 c 0,14,15
 172 0 172 0 150 0 c 1,16,-1
 150 0 l 1,0,1
250 0 m 1,17,18
 229 0 229 0 215 14 c 0,19,20
 201 29 201 29 200 50 c 256,21,22
 200 71 200 71 215 85 c 256,23,24
 229 99 229 99 250 100 c 256,25,26
 271 100 271 100 286 85 c 0,27,28
 300 71 300 71 300 50 c 256,29,30
 300 29 300 29 286 14 c 0,31,32
 271 0 271 0 250 0 c 1,33,-1
 250 0 l 1,17,18
250 100 m 1,34,35
 229 100 229 100 215 115 c 256,36,37
 201 129 201 129 200 150 c 0,38,39
 200 171 200 171 215 186 c 256,40,41
 229 200 229 200 250 200 c 256,42,43
 271 200 271 200 286 186 c 0,44,45
 300 172 300 172 300 150 c 0,46,47
 300 129 300 129 286 115 c 0,48,49
 271 101 271 101 250 100 c 1,50,-1
 250 100 l 1,34,35
350 100 m 1,51,52
 329 100 329 100 314 115 c 0,53,54
 300 129 300 129 300 150 c 0,55,56
 300 171 300 171 314 186 c 0,57,58
 329 200 329 200 350 200 c 256,59,60
 371 200 371 200 385 186 c 256,61,62
 399 172 399 172 400 150 c 0,63,64
 400 129 400 129 385 115 c 256,65,66
 371 101 371 101 350 100 c 1,67,-1
 350 100 l 1,51,52
350 200 m 1,68,69
 329 200 329 200 314 215 c 0,70,71
 300 229 300 229 300 250 c 256,72,73
 300 271 300 271 314 286 c 0,74,75
 329 300 329 300 350 300 c 256,76,77
 371 300 371 300 385 286 c 0,78,79
 399 271 399 271 400 250 c 256,80,81
 400 229 400 229 385 215 c 256,82,83
 371 201 371 201 350 200 c 1,84,-1
 350 200 l 1,68,69
450 200 m 1,85,86
 429 200 429 200 415 215 c 256,87,88
 401 229 401 229 400 250 c 256,89,90
 400 271 400 271 415 286 c 0,91,92
 429 300 429 300 450 300 c 0,93,94
 471 300 471 300 485 286 c 0,95,96
 499 271 499 271 500 250 c 256,97,98
 500 229 500 229 485 215 c 256,99,100
 471 201 471 201 450 200 c 1,101,-1
 450 200 l 1,85,86
450 300 m 1,102,103
 429 300 429 300 415 314 c 0,104,105
 401 329 401 329 400 350 c 256,106,107
 400 371 400 371 415 385 c 256,108,109
 429 399 429 399 450 400 c 0,110,111
 471 400 471 400 485 385 c 256,112,113
 499 371 499 371 500 350 c 256,114,115
 500 329 500 329 485 314 c 0,116,117
 471 300 471 300 450 300 c 1,118,-1
 450 300 l 1,102,103
550 300 m 1,119,120
 529 300 529 300 515 314 c 0,121,122
 501 329 501 329 500 350 c 256,123,124
 500 371 500 371 515 385 c 256,125,126
 529 399 529 399 550 400 c 256,127,128
 571 400 571 400 585 385 c 0,129,130
 599 371 599 371 599 350 c 256,131,132
 599 329 599 329 585 314 c 0,133,134
 570 300 570 300 550 300 c 1,135,-1
 550 300 l 1,119,120
550 400 m 1,136,137
 529 400 529 400 515 415 c 256,138,139
 501 429 501 429 500 450 c 0,140,141
 500 471 500 471 515 485 c 256,142,143
 529 499 529 499 550 500 c 256,144,145
 571 500 571 500 585 485 c 0,146,147
 599 471 599 471 599 450 c 0,148,149
 599 429 599 429 585 415 c 0,150,151
 570 401 570 401 550 400 c 1,152,-1
 550 400 l 1,136,137
649 400 m 1,153,154
 628 400 628 400 615 415 c 0,155,156
 601 429 601 429 599 450 c 0,157,158
 599 471 599 471 615 485 c 0,159,160
 630 499 630 499 649 500 c 256,161,162
 670 500 670 500 685 485 c 256,163,164
 699 471 699 471 700 450 c 0,165,166
 700 429 700 429 685 415 c 256,167,168
 671 401 671 401 649 400 c 1,169,-1
 649 400 l 1,153,154
649 500 m 1,170,171
 628 500 628 500 615 515 c 0,172,173
 601 529 601 529 599 550 c 256,174,175
 599 571 599 571 615 585 c 0,176,177
 630 599 630 599 649 599 c 256,178,179
 670 599 670 599 685 585 c 0,180,181
 699 570 699 570 700 550 c 256,182,183
 700 529 700 529 685 515 c 256,184,185
 671 501 671 501 649 500 c 1,186,-1
 649 500 l 1,170,171
749 500 m 1,187,188
 728 500 728 500 714 515 c 256,189,190
 700 529 700 529 700 550 c 256,191,192
 700 571 700 571 714 585 c 0,193,194
 728 599 728 599 749 599 c 0,195,196
 770 599 770 599 785 585 c 0,197,198
 799 570 799 570 799 550 c 256,199,200
 799 529 799 529 785 515 c 256,201,202
 771 501 771 501 749 500 c 1,203,-1
 749 500 l 1,187,188
749 599 m 1,204,205
 728 599 728 599 714 615 c 0,206,207
 700 630 700 630 700 649 c 256,208,209
 700 670 700 670 714 685 c 256,210,211
 728 699 728 699 749 700 c 0,212,213
 770 700 770 700 785 685 c 256,214,215
 799 671 799 671 799 649 c 256,216,217
 799 628 799 628 785 615 c 0,218,219
 771 601 771 601 749 599 c 1,220,-1
 749 599 l 1,204,205
850 599 m 1,221,222
 829 599 829 599 814 615 c 0,223,224
 800 630 800 630 799 649 c 256,225,226
 799 670 799 670 814 685 c 256,227,228
 828 699 828 699 850 700 c 256,229,230
 871 700 871 700 885 685 c 0,231,232
 899 671 899 671 900 649 c 256,233,234
 900 628 900 628 885 615 c 0,235,236
 870 601 870 601 850 599 c 1,237,-1
 850 599 l 1,221,222
EndSplineSet
Validated: 5
EndChar

StartChar: zero
Encoding: 48 48 16
Width: 1200
VWidth: 599
Flags: W
LayerCount: 2
Fore
SplineSet
150 0 m 1,0,1
 129 0 129 0 115 14 c 0,2,3
 101 29 101 29 100 50 c 256,4,5
 100 71 100 71 115 85 c 256,6,7
 129 99 129 99 150 100 c 0,8,9
 171 100 171 100 186 85 c 256,10,11
 200 71 200 71 200 50 c 256,12,13
 200 29 200 29 186 14 c 0,14,15
 172 0 172 0 150 0 c 1,16,-1
 150 0 l 1,0,1
250 0 m 1,17,18
 229 0 229 0 215 14 c 0,19,20
 201 29 201 29 200 50 c 256,21,22
 200 71 200 71 215 85 c 256,23,24
 229 99 229 99 250 100 c 256,25,26
 271 100 271 100 286 85 c 0,27,28
 300 71 300 71 300 50 c 256,29,30
 300 29 300 29 286 14 c 0,31,32
 271 0 271 0 250 0 c 1,33,-1
 250 0 l 1,17,18
350 0 m 1,34,35
 329 0 329 0 314 14 c 0,36,37
 300 29 300 29 300 50 c 256,38,39
 300 71 300 71 314 85 c 0,40,41
 329 99 329 99 350 100 c 256,42,43
 371 100 371 100 385 85 c 256,44,45
 399 71 399 71 400 50 c 256,46,47
 400 29 400 29 385 14 c 0,48,49
 371 0 371 0 350 0 c 1,50,-1
 350 0 l 1,34,35
450 0 m 1,51,52
 429 0 429 0 415 14 c 0,53,54
 401 29 401 29 400 50 c 256,55,56
 400 71 400 71 415 85 c 256,57,58
 429 99 429 99 450 100 c 0,59,60
 471 100 471 100 485 85 c 256,61,62
 499 71 499 71 500 50 c 256,63,64
 500 29 500 29 485 14 c 0,65,66
 471 0 471 0 450 0 c 1,67,-1
 450 0 l 1,51,52
550 0 m 1,68,69
 529 0 529 0 515 14 c 0,70,71
 501 29 501 29 500 50 c 256,72,73
 500 71 500 71 515 85 c 256,74,75
 529 99 529 99 550 100 c 256,76,77
 571 100 571 100 585 85 c 0,78,79
 599 71 599 71 599 50 c 256,80,81
 599 29 599 29 585 14 c 0,82,83
 570 0 570 0 550 0 c 1,84,-1
 550 0 l 1,68,69
649 0 m 1,85,86
 628 0 628 0 615 14 c 0,87,88
 601 29 601 29 599 50 c 256,89,90
 599 71 599 71 615 85 c 0,91,92
 630 99 630 99 649 100 c 256,93,94
 670 100 670 100 685 85 c 256,95,96
 699 71 699 71 700 50 c 256,97,98
 700 29 700 29 685 14 c 0,99,100
 671 0 671 0 649 0 c 1,101,-1
 649 0 l 1,85,86
749 0 m 1,102,103
 728 0 728 0 714 14 c 0,104,105
 700 29 700 29 700 50 c 256,106,107
 700 71 700 71 714 85 c 256,108,109
 728 99 728 99 749 100 c 0,110,111
 770 100 770 100 785 85 c 256,112,113
 799 71 799 71 799 50 c 256,114,115
 799 29 799 29 785 14 c 0,116,117
 771 0 771 0 749 0 c 1,118,-1
 749 0 l 1,102,103
850 0 m 1,119,120
 829 0 829 0 814 14 c 0,121,122
 800 29 800 29 799 50 c 256,123,124
 799 71 799 71 814 85 c 256,125,126
 828 99 828 99 850 100 c 256,127,128
 871 100 871 100 885 85 c 0,129,130
 899 71 899 71 900 50 c 256,131,132
 900 29 900 29 885 14 c 0,133,134
 870 0 870 0 850 0 c 1,135,-1
 850 0 l 1,119,120
50 100 m 1,136,137
 29 100 29 100 14 115 c 0,138,139
 0 129 0 129 0 150 c 0,140,141
 0 171 0 171 14 186 c 0,142,143
 29 200 29 200 50 200 c 256,144,145
 71 200 71 200 85 186 c 256,146,147
 99 172 99 172 100 150 c 0,148,149
 100 129 100 129 85 115 c 256,150,151
 71 101 71 101 50 100 c 1,152,-1
 50 100 l 1,136,137
150 100 m 1,153,154
 129 100 129 100 115 115 c 256,155,156
 101 129 101 129 100 150 c 0,157,158
 100 171 100 171 115 186 c 256,159,160
 129 200 129 200 150 200 c 0,161,162
 171 200 171 200 186 186 c 256,163,164
 200 172 200 172 200 150 c 0,165,166
 200 129 200 129 186 115 c 256,167,168
 172 101 172 101 150 100 c 1,169,-1
 150 100 l 1,153,154
250 100 m 1,170,171
 229 100 229 100 215 115 c 256,172,173
 201 129 201 129 200 150 c 0,174,175
 200 171 200 171 215 186 c 256,176,177
 229 200 229 200 250 200 c 256,178,179
 271 200 271 200 286 186 c 0,180,181
 300 172 300 172 300 150 c 0,182,183
 300 129 300 129 286 115 c 0,184,185
 271 101 271 101 250 100 c 1,186,-1
 250 100 l 1,170,171
350 100 m 1,187,188
 329 100 329 100 314 115 c 0,189,190
 300 129 300 129 300 150 c 0,191,192
 300 171 300 171 314 186 c 0,193,194
 329 200 329 200 350 200 c 256,195,196
 371 200 371 200 385 186 c 256,197,198
 399 172 399 172 400 150 c 0,199,200
 400 129 400 129 385 115 c 256,201,202
 371 101 371 101 350 100 c 1,203,-1
 350 100 l 1,187,188
850 100 m 1,204,205
 829 100 829 100 814 115 c 256,206,207
 800 129 800 129 799 150 c 0,208,209
 799 171 799 171 814 186 c 256,210,211
 828 200 828 200 850 200 c 256,212,213
 871 200 871 200 885 186 c 0,214,215
 899 172 899 172 900 150 c 0,216,217
 900 129 900 129 885 115 c 0,218,219
 870 101 870 101 850 100 c 1,220,-1
 850 100 l 1,204,205
949 100 m 1,221,222
 928 100 928 100 914 115 c 0,223,224
 900 129 900 129 900 150 c 0,225,226
 900 171 900 171 914 186 c 0,227,228
 929 200 929 200 949 200 c 256,229,230
 970 200 970 200 985 186 c 256,231,232
 999 172 999 172 1000 150 c 0,233,234
 1000 129 1000 129 985 115 c 256,235,236
 971 101 971 101 949 100 c 1,237,-1
 949 100 l 1,221,222
50 200 m 1,238,239
 29 200 29 200 14 215 c 0,240,241
 0 229 0 229 0 250 c 256,242,243
 0 271 0 271 14 286 c 0,244,245
 29 300 29 300 50 300 c 256,246,247
 71 300 71 300 85 286 c 0,248,249
 99 271 99 271 100 250 c 256,250,251
 100 229 100 229 85 215 c 256,252,253
 71 201 71 201 50 200 c 1,254,-1
 50 200 l 1,238,239
150 200 m 1,255,256
 129 200 129 200 115 215 c 256,257,258
 101 229 101 229 100 250 c 256,259,260
 100 271 100 271 115 286 c 0,261,262
 129 300 129 300 150 300 c 0,263,264
 171 300 171 300 186 286 c 0,265,266
 200 271 200 271 200 250 c 256,267,268
 200 229 200 229 186 215 c 256,269,270
 172 201 172 201 150 200 c 1,271,-1
 150 200 l 1,255,256
350 200 m 1,272,273
 329 200 329 200 314 215 c 0,274,275
 300 229 300 229 300 250 c 256,276,277
 300 271 300 271 314 286 c 0,278,279
 329 300 329 300 350 300 c 256,280,281
 371 300 371 300 385 286 c 0,282,283
 399 271 399 271 400 250 c 256,284,285
 400 229 400 229 385 215 c 256,286,287
 371 201 371 201 350 200 c 1,288,-1
 350 200 l 1,272,273
450 200 m 1,289,290
 429 200 429 200 415 215 c 256,291,292
 401 229 401 229 400 250 c 256,293,294
 400 271 400 271 415 286 c 0,295,296
 429 300 429 300 450 300 c 0,297,298
 471 300 471 300 485 286 c 0,299,300
 499 271 499 271 500 250 c 256,301,302
 500 229 500 229 485 215 c 256,303,304
 471 201 471 201 450 200 c 1,305,-1
 450 200 l 1,289,290
850 200 m 1,306,307
 829 200 829 200 814 215 c 256,308,309
 800 229 800 229 799 250 c 256,310,311
 799 271 799 271 814 286 c 0,312,313
 828 300 828 300 850 300 c 256,314,315
 871 300 871 300 885 286 c 0,316,317
 899 271 899 271 900 250 c 256,318,319
 900 229 900 229 885 215 c 0,320,321
 870 201 870 201 850 200 c 1,322,-1
 850 200 l 1,306,307
949 200 m 1,323,324
 928 200 928 200 914 215 c 0,325,326
 900 229 900 229 900 250 c 256,327,328
 900 271 900 271 914 286 c 0,329,330
 929 300 929 300 949 300 c 256,331,332
 970 300 970 300 985 286 c 0,333,334
 999 271 999 271 1000 250 c 256,335,336
 1000 229 1000 229 985 215 c 256,337,338
 971 201 971 201 949 200 c 1,339,-1
 949 200 l 1,323,324
50 300 m 1,340,341
 29 300 29 300 14 314 c 0,342,343
 0 329 0 329 0 350 c 256,344,345
 0 371 0 371 14 385 c 0,346,347
 29 399 29 399 50 400 c 256,348,349
 71 400 71 400 85 385 c 256,350,351
 99 371 99 371 100 350 c 256,352,353
 100 329 100 329 85 314 c 0,354,355
 71 300 71 300 50 300 c 1,356,-1
 50 300 l 1,340,341
150 300 m 1,357,358
 129 300 129 300 115 314 c 0,359,360
 101 329 101 329 100 350 c 256,361,362
 100 371 100 371 115 385 c 256,363,364
 129 399 129 399 150 400 c 0,365,366
 171 400 171 400 186 385 c 256,367,368
 200 371 200 371 200 350 c 256,369,370
 200 329 200 329 186 314 c 0,371,372
 172 300 172 300 150 300 c 1,373,-1
 150 300 l 1,357,358
450 300 m 1,374,375
 429 300 429 300 415 314 c 0,376,377
 401 329 401 329 400 350 c 256,378,379
 400 371 400 371 415 385 c 256,380,381
 429 399 429 399 450 400 c 0,382,383
 471 400 471 400 485 385 c 256,384,385
 499 371 499 371 500 350 c 256,386,387
 500 329 500 329 485 314 c 0,388,389
 471 300 471 300 450 300 c 1,390,-1
 450 300 l 1,374,375
550 300 m 1,391,392
 529 300 529 300 515 314 c 0,393,394
 501 329 501 329 500 350 c 256,395,396
 500 371 500 371 515 385 c 256,397,398
 529 399 529 399 550 400 c 256,399,400
 571 400 571 400 585 385 c 0,401,402
 599 371 599 371 599 350 c 256,403,404
 599 329 599 329 585 314 c 0,405,406
 570 300 570 300 550 300 c 1,407,-1
 550 300 l 1,391,392
850 300 m 1,408,409
 829 300 829 300 814 314 c 0,410,411
 800 329 800 329 799 350 c 256,412,413
 799 371 799 371 814 385 c 256,414,415
 828 399 828 399 850 400 c 256,416,417
 871 400 871 400 885 385 c 0,418,419
 899 371 899 371 900 350 c 256,420,421
 900 329 900 329 885 314 c 0,422,423
 870 300 870 300 850 300 c 1,424,-1
 850 300 l 1,408,409
949 300 m 1,425,426
 928 300 928 300 914 314 c 0,427,428
 900 329 900 329 900 350 c 256,429,430
 900 371 900 371 914 385 c 0,431,432
 929 399 929 399 949 400 c 256,433,434
 970 400 970 400 985 385 c 256,435,436
 999 371 999 371 1000 350 c 256,437,438
 1000 329 1000 329 985 314 c 0,439,440
 971 300 971 300 949 300 c 1,441,-1
 949 300 l 1,425,426
50 400 m 1,442,443
 29 400 29 400 14 415 c 0,444,445
 0 429 0 429 0 450 c 0,446,447
 0 471 0 471 14 485 c 0,448,449
 29 499 29 499 50 500 c 256,450,451
 71 500 71 500 85 485 c 256,452,453
 99 471 99 471 100 450 c 0,454,455
 100 429 100 429 85 415 c 256,456,457
 71 401 71 401 50 400 c 1,458,-1
 50 400 l 1,442,443
150 400 m 1,459,460
 129 400 129 400 115 415 c 256,461,462
 101 429 101 429 100 450 c 0,463,464
 100 471 100 471 115 485 c 256,465,466
 129 499 129 499 150 500 c 0,467,468
 171 500 171 500 186 485 c 256,469,470
 200 471 200 471 200 450 c 0,471,472
 200 429 200 429 186 415 c 256,473,474
 172 401 172 401 150 400 c 1,475,-1
 150 400 l 1,459,460
550 400 m 1,476,477
 529 400 529 400 515 415 c 256,478,479
 501 429 501 429 500 450 c 0,480,481
 500 471 500 471 515 485 c 256,482,483
 529 499 529 499 550 500 c 256,484,485
 571 500 571 500 585 485 c 0,486,487
 599 471 599 471 599 450 c 0,488,489
 599 429 599 429 585 415 c 0,490,491
 570 401 570 401 550 400 c 1,492,-1
 550 400 l 1,476,477
649 400 m 1,493,494
 628 400 628 400 615 415 c 0,495,496
 601 429 601 429 599 450 c 0,497,498
 599 471 599 471 615 485 c 0,499,500
 630 499 630 499 649 500 c 256,501,502
 670 500 670 500 685 485 c 256,503,504
 699 471 699 471 700 450 c 0,505,506
 700 429 700 429 685 415 c 256,507,508
 671 401 671 401 649 400 c 1,509,-1
 649 400 l 1,493,494
850 400 m 1,510,511
 829 400 829 400 814 415 c 256,512,513
 800 429 800 429 799 450 c 0,514,515
 799 471 799 471 814 485 c 256,516,517
 828 499 828 499 850 500 c 256,518,519
 871 500 871 500 885 485 c 0,520,521
 899 471 899 471 900 450 c 0,522,523
 900 429 900 429 885 415 c 0,524,525
 870 401 870 401 850 400 c 1,526,-1
 850 400 l 1,510,511
949 400 m 1,527,528
 928 400 928 400 914 415 c 0,529,530
 900 429 900 429 900 450 c 0,531,532
 900 471 900 471 914 485 c 0,533,534
 929 499 929 499 949 500 c 256,535,536
 970 500 970 500 985 485 c 256,537,538
 999 471 999 471 1000 450 c 0,539,540
 1000 429 1000 429 985 415 c 256,541,542
 971 401 971 401 949 400 c 1,543,-1
 949 400 l 1,527,528
50 500 m 1,544,545
 29 500 29 500 14 515 c 0,546,547
 0 529 0 529 0 550 c 256,548,549
 0 571 0 571 14 585 c 0,550,551
 29 599 29 599 50 599 c 256,552,553
 71 599 71 599 85 585 c 0,554,555
 99 570 99 570 100 550 c 256,556,557
 100 529 100 529 85 515 c 256,558,559
 71 501 71 501 50 500 c 1,560,-1
 50 500 l 1,544,545
150 500 m 1,561,562
 129 500 129 500 115 515 c 256,563,564
 101 529 101 529 100 550 c 256,565,566
 100 571 100 571 115 585 c 0,567,568
 129 599 129 599 150 599 c 0,569,570
 171 599 171 599 186 585 c 0,571,572
 200 570 200 570 200 550 c 256,573,574
 200 529 200 529 186 515 c 256,575,576
 172 501 172 501 150 500 c 1,577,-1
 150 500 l 1,561,562
649 500 m 1,578,579
 628 500 628 500 615 515 c 0,580,581
 601 529 601 529 599 550 c 256,582,583
 599 571 599 571 615 585 c 0,584,585
 630 599 630 599 649 599 c 256,586,587
 670 599 670 599 685 585 c 0,588,589
 699 570 699 570 700 550 c 256,590,591
 700 529 700 529 685 515 c 256,592,593
 671 501 671 501 649 500 c 1,594,-1
 649 500 l 1,578,579
749 500 m 1,595,596
 728 500 728 500 714 515 c 256,597,598
 700 529 700 529 700 550 c 256,599,600
 700 571 700 571 714 585 c 0,601,602
 728 599 728 599 749 599 c 0,603,604
 770 599 770 599 785 585 c 0,605,606
 799 570 799 570 799 550 c 256,607,608
 799 529 799 529 785 515 c 256,609,610
 771 501 771 501 749 500 c 1,611,-1
 749 500 l 1,595,596
850 500 m 1,612,613
 829 500 829 500 814 515 c 256,614,615
 800 529 800 529 799 550 c 256,616,617
 799 571 799 571 814 585 c 0,618,619
 828 599 828 599 850 599 c 256,620,621
 871 599 871 599 885 585 c 0,622,623
 899 570 899 570 900 550 c 256,624,625
 900 529 900 529 885 515 c 0,626,627
 870 501 870 501 850 500 c 1,628,-1
 850 500 l 1,612,613
949 500 m 1,629,630
 928 500 928 500 914 515 c 0,631,632
 900 529 900 529 900 550 c 256,633,634
 900 571 900 571 914 585 c 0,635,636
 929 599 929 599 949 599 c 256,637,638
 970 599 970 599 985 585 c 0,639,640
 999 570 999 570 1000 550 c 256,641,642
 1000 529 1000 529 985 515 c 256,643,644
 971 501 971 501 949 500 c 1,645,-1
 949 500 l 1,629,630
150 599 m 1,646,647
 129 599 129 599 115 615 c 0,648,649
 101 630 101 630 100 649 c 256,650,651
 100 670 100 670 115 685 c 256,652,653
 129 699 129 699 150 700 c 0,654,655
 171 700 171 700 186 685 c 256,656,657
 200 671 200 671 200 649 c 256,658,659
 200 628 200 628 186 615 c 0,660,661
 172 601 172 601 150 599 c 1,662,-1
 150 599 l 1,646,647
250 599 m 1,663,664
 229 599 229 599 215 615 c 0,665,666
 201 630 201 630 200 649 c 256,667,668
 200 670 200 670 215 685 c 256,669,670
 229 699 229 699 250 700 c 256,671,672
 271 700 271 700 286 685 c 0,673,674
 300 671 300 671 300 649 c 256,675,676
 300 628 300 628 286 615 c 0,677,678
 271 601 271 601 250 599 c 1,679,-1
 250 599 l 1,663,664
350 599 m 1,680,681
 329 599 329 599 314 615 c 0,682,683
 300 630 300 630 300 649 c 256,684,685
 300 670 300 670 314 685 c 0,686,687
 329 699 329 699 350 700 c 256,688,689
 371 700 371 700 385 685 c 256,690,691
 399 671 399 671 400 649 c 256,692,693
 400 628 400 628 385 615 c 0,694,695
 371 601 371 601 350 599 c 1,696,-1
 350 599 l 1,680,681
450 599 m 1,697,698
 429 599 429 599 415 615 c 0,699,700
 401 630 401 630 400 649 c 256,701,702
 400 670 400 670 415 685 c 256,703,704
 429 699 429 699 450 700 c 0,705,706
 471 700 471 700 485 685 c 256,707,708
 499 671 499 671 500 649 c 256,709,710
 500 628 500 628 485 615 c 0,711,712
 471 601 471 601 450 599 c 1,713,-1
 450 599 l 1,697,698
550 599 m 1,714,715
 529 599 529 599 515 615 c 0,716,717
 501 630 501 630 500 649 c 256,718,719
 500 670 500 670 515 685 c 256,720,721
 529 699 529 699 550 700 c 256,722,723
 571 700 571 700 585 685 c 0,724,725
 599 671 599 671 599 649 c 256,726,727
 599 628 599 628 585 615 c 0,728,729
 570 601 570 601 550 599 c 1,730,-1
 550 599 l 1,714,715
649 599 m 1,731,732
 628 599 628 599 615 615 c 0,733,734
 601 630 601 630 599 649 c 256,735,736
 599 670 599 670 615 685 c 0,737,738
 630 699 630 699 649 700 c 256,739,740
 670 700 670 700 685 685 c 256,741,742
 699 671 699 671 700 649 c 256,743,744
 700 628 700 628 685 615 c 0,745,746
 671 601 671 601 649 599 c 1,747,-1
 649 599 l 1,731,732
749 599 m 1,748,749
 728 599 728 599 714 615 c 0,750,751
 700 630 700 630 700 649 c 256,752,753
 700 670 700 670 714 685 c 256,754,755
 728 699 728 699 749 700 c 0,756,757
 770 700 770 700 785 685 c 256,758,759
 799 671 799 671 799 649 c 256,760,761
 799 628 799 628 785 615 c 0,762,763
 771 601 771 601 749 599 c 1,764,-1
 749 599 l 1,748,749
850 599 m 1,765,766
 829 599 829 599 814 615 c 0,767,768
 800 630 800 630 799 649 c 256,769,770
 799 670 799 670 814 685 c 256,771,772
 828 699 828 699 850 700 c 256,773,774
 871 700 871 700 885 685 c 0,775,776
 899 671 899 671 900 649 c 256,777,778
 900 628 900 628 885 615 c 0,779,780
 870 601 870 601 850 599 c 1,781,-1
 850 599 l 1,765,766
EndSplineSet
Validated: 5
EndChar

StartChar: one
Encoding: 49 49 17
Width: 1200
VWidth: 599
Flags: W
LayerCount: 2
Fore
SplineSet
250 0 m 1,0,1
 229 0 229 0 215 14 c 0,2,3
 201 29 201 29 200 50 c 256,4,5
 200 71 200 71 215 85 c 256,6,7
 229 99 229 99 250 100 c 256,8,9
 271 100 271 100 286 85 c 0,10,11
 300 71 300 71 300 50 c 256,12,13
 300 29 300 29 286 14 c 0,14,15
 271 0 271 0 250 0 c 1,16,-1
 250 0 l 1,0,1
350 0 m 1,17,18
 329 0 329 0 314 14 c 0,19,20
 300 29 300 29 300 50 c 256,21,22
 300 71 300 71 314 85 c 0,23,24
 329 99 329 99 350 100 c 256,25,26
 371 100 371 100 385 85 c 256,27,28
 399 71 399 71 400 50 c 256,29,30
 400 29 400 29 385 14 c 0,31,32
 371 0 371 0 350 0 c 1,33,-1
 350 0 l 1,17,18
450 0 m 1,34,35
 429 0 429 0 415 14 c 0,36,37
 401 29 401 29 400 50 c 256,38,39
 400 71 400 71 415 85 c 256,40,41
 429 99 429 99 450 100 c 0,42,43
 471 100 471 100 485 85 c 256,44,45
 499 71 499 71 500 50 c 256,46,47
 500 29 500 29 485 14 c 0,48,49
 471 0 471 0 450 0 c 1,50,-1
 450 0 l 1,34,35
550 0 m 1,51,52
 529 0 529 0 515 14 c 0,53,54
 501 29 501 29 500 50 c 256,55,56
 500 71 500 71 515 85 c 256,57,58
 529 99 529 99 550 100 c 256,59,60
 571 100 571 100 585 85 c 0,61,62
 599 71 599 71 599 50 c 256,63,64
 599 29 599 29 585 14 c 0,65,66
 570 0 570 0 550 0 c 1,67,-1
 550 0 l 1,51,52
649 0 m 1,68,69
 628 0 628 0 615 14 c 0,70,71
 601 29 601 29 599 50 c 256,72,73
 599 71 599 71 615 85 c 0,74,75
 630 99 630 99 649 100 c 256,76,77
 670 100 670 100 685 85 c 256,78,79
 699 71 699 71 700 50 c 256,80,81
 700 29 700 29 685 14 c 0,82,83
 671 0 671 0 649 0 c 1,84,-1
 649 0 l 1,68,69
749 0 m 1,85,86
 728 0 728 0 714 14 c 0,87,88
 700 29 700 29 700 50 c 256,89,90
 700 71 700 71 714 85 c 256,91,92
 728 99 728 99 749 100 c 0,93,94
 770 100 770 100 785 85 c 256,95,96
 799 71 799 71 799 50 c 256,97,98
 799 29 799 29 785 14 c 0,99,100
 771 0 771 0 749 0 c 1,101,-1
 749 0 l 1,85,86
450 100 m 1,102,103
 429 100 429 100 415 115 c 256,104,105
 401 129 401 129 400 150 c 0,106,107
 400 171 400 171 415 186 c 256,108,109
 429 200 429 200 450 200 c 0,110,111
 471 200 471 200 485 186 c 256,112,113
 499 172 499 172 500 150 c 0,114,115
 500 129 500 129 485 115 c 256,116,117
 471 101 471 101 450 100 c 1,118,-1
 450 100 l 1,102,103
550 100 m 1,119,120
 529 100 529 100 515 115 c 256,121,122
 501 129 501 129 500 150 c 0,123,124
 500 171 500 171 515 186 c 256,125,126
 529 200 529 200 550 200 c 256,127,128
 571 200 571 200 585 186 c 0,129,130
 599 172 599 172 599 150 c 0,131,132
 599 129 599 129 585 115 c 0,133,134
 570 101 570 101 550 100 c 1,135,-1
 550 100 l 1,119,120
450 200 m 1,136,137
 429 200 429 200 415 215 c 256,138,139
 401 229 401 229 400 250 c 256,140,141
 400 271 400 271 415 286 c 0,142,143
 429 300 429 300 450 300 c 0,144,145
 471 300 471 300 485 286 c 0,146,147
 499 271 499 271 500 250 c 256,148,149
 500 229 500 229 485 215 c 256,150,151
 471 201 471 201 450 200 c 1,152,-1
 450 200 l 1,136,137
550 200 m 1,153,154
 529 200 529 200 515 215 c 256,155,156
 501 229 501 229 500 250 c 256,157,158
 500 271 500 271 515 286 c 0,159,160
 529 300 529 300 550 300 c 256,161,162
 571 300 571 300 585 286 c 0,163,164
 599 271 599 271 599 250 c 256,165,166
 599 229 599 229 585 215 c 0,167,168
 570 201 570 201 550 200 c 1,169,-1
 550 200 l 1,153,154
450 300 m 1,170,171
 429 300 429 300 415 314 c 0,172,173
 401 329 401 329 400 350 c 256,174,175
 400 371 400 371 415 385 c 256,176,177
 429 399 429 399 450 400 c 0,178,179
 471 400 471 400 485 385 c 256,180,181
 499 371 499 371 500 350 c 256,182,183
 500 329 500 329 485 314 c 0,184,185
 471 300 471 300 450 300 c 1,186,-1
 450 300 l 1,170,171
550 300 m 1,187,188
 529 300 529 300 515 314 c 0,189,190
 501 329 501 329 500 350 c 256,191,192
 500 371 500 371 515 385 c 256,193,194
 529 399 529 399 550 400 c 256,195,196
 571 400 571 400 585 385 c 0,197,198
 599 371 599 371 599 350 c 256,199,200
 599 329 599 329 585 314 c 0,201,202
 570 300 570 300 550 300 c 1,203,-1
 550 300 l 1,187,188
450 400 m 1,204,205
 429 400 429 400 415 415 c 256,206,207
 401 429 401 429 400 450 c 0,208,209
 400 471 400 471 415 485 c 256,210,211
 429 499 429 499 450 500 c 0,212,213
 471 500 471 500 485 485 c 256,214,215
 499 471 499 471 500 450 c 0,216,217
 500 429 500 429 485 415 c 256,218,219
 471 401 471 401 450 400 c 1,220,-1
 450 400 l 1,204,205
550 400 m 1,221,222
 529 400 529 400 515 415 c 256,223,224
 501 429 501 429 500 450 c 0,225,226
 500 471 500 471 515 485 c 256,227,228
 529 499 529 499 550 500 c 256,229,230
 571 500 571 500 585 485 c 0,231,232
 599 471 599 471 599 450 c 0,233,234
 599 429 599 429 585 415 c 0,235,236
 570 401 570 401 550 400 c 1,237,-1
 550 400 l 1,221,222
250 500 m 1,238,239
 229 500 229 500 215 515 c 256,240,241
 201 529 201 529 200 550 c 256,242,243
 200 571 200 571 215 585 c 0,244,245
 229 599 229 599 250 599 c 256,246,247
 271 599 271 599 286 585 c 0,248,249
 300 570 300 570 300 550 c 256,250,251
 300 529 300 529 286 515 c 0,252,253
 271 501 271 501 250 500 c 1,254,-1
 250 500 l 1,238,239
350 500 m 1,255,256
 329 500 329 500 314 515 c 0,257,258
 300 529 300 529 300 550 c 256,259,260
 300 571 300 571 314 585 c 0,261,262
 329 599 329 599 350 599 c 256,263,264
 371 599 371 599 385 585 c 0,265,266
 399 570 399 570 400 550 c 256,267,268
 400 529 400 529 385 515 c 256,269,270
 371 501 371 501 350 500 c 1,271,-1
 350 500 l 1,255,256
450 500 m 1,272,273
 429 500 429 500 415 515 c 256,274,275
 401 529 401 529 400 550 c 256,276,277
 400 571 400 571 415 585 c 0,278,279
 429 599 429 599 450 599 c 0,280,281
 471 599 471 599 485 585 c 0,282,283
 499 570 499 570 500 550 c 256,284,285
 500 529 500 529 485 515 c 256,286,287
 471 501 471 501 450 500 c 1,288,-1
 450 500 l 1,272,273
550 500 m 1,289,290
 529 500 529 500 515 515 c 256,291,292
 501 529 501 529 500 550 c 256,293,294
 500 571 500 571 515 585 c 0,295,296
 529 599 529 599 550 599 c 256,297,298
 571 599 571 599 585 585 c 0,299,300
 599 570 599 570 599 550 c 256,301,302
 599 529 599 529 585 515 c 0,303,304
 570 501 570 501 550 500 c 1,305,-1
 550 500 l 1,289,290
450 599 m 1,306,307
 429 599 429 599 415 615 c 0,308,309
 401 630 401 630 400 649 c 256,310,311
 400 670 400 670 415 685 c 256,312,313
 429 699 429 699 450 700 c 0,314,315
 471 700 471 700 485 685 c 256,316,317
 499 671 499 671 500 649 c 256,318,319
 500 628 500 628 485 615 c 0,320,321
 471 601 471 601 450 599 c 1,322,-1
 450 599 l 1,306,307
550 599 m 1,323,324
 529 599 529 599 515 615 c 0,325,326
 501 630 501 630 500 649 c 256,327,328
 500 670 500 670 515 685 c 256,329,330
 529 699 529 699 550 700 c 256,331,332
 571 700 571 700 585 685 c 0,333,334
 599 671 599 671 599 649 c 256,335,336
 599 628 599 628 585 615 c 0,337,338
 570 601 570 601 550 599 c 1,339,-1
 550 599 l 1,323,324
EndSplineSet
Validated: 5
EndChar

StartChar: two
Encoding: 50 50 18
Width: 1200
VWidth: 599
Flags: W
LayerCount: 2
Fore
SplineSet
50 0 m 1,0,1
 29 0 29 0 14 14 c 0,2,3
 0 29 0 29 0 50 c 256,4,5
 0 71 0 71 14 85 c 0,6,7
 29 99 29 99 50 100 c 256,8,9
 71 100 71 100 85 85 c 256,10,11
 99 71 99 71 100 50 c 256,12,13
 100 29 100 29 85 14 c 0,14,15
 71 0 71 0 50 0 c 1,16,-1
 50 0 l 1,0,1
150 0 m 1,17,18
 129 0 129 0 115 14 c 0,19,20
 101 29 101 29 100 50 c 256,21,22
 100 71 100 71 115 85 c 256,23,24
 129 99 129 99 150 100 c 0,25,26
 171 100 171 100 186 85 c 256,27,28
 200 71 200 71 200 50 c 256,29,30
 200 29 200 29 186 14 c 0,31,32
 172 0 172 0 150 0 c 1,33,-1
 150 0 l 1,17,18
250 0 m 1,34,35
 229 0 229 0 215 14 c 0,36,37
 201 29 201 29 200 50 c 256,38,39
 200 71 200 71 215 85 c 256,40,41
 229 99 229 99 250 100 c 256,42,43
 271 100 271 100 286 85 c 0,44,45
 300 71 300 71 300 50 c 256,46,47
 300 29 300 29 286 14 c 0,48,49
 271 0 271 0 250 0 c 1,50,-1
 250 0 l 1,34,35
350 0 m 1,51,52
 329 0 329 0 314 14 c 0,53,54
 300 29 300 29 300 50 c 256,55,56
 300 71 300 71 314 85 c 0,57,58
 329 99 329 99 350 100 c 256,59,60
 371 100 371 100 385 85 c 256,61,62
 399 71 399 71 400 50 c 256,63,64
 400 29 400 29 385 14 c 0,65,66
 371 0 371 0 350 0 c 1,67,-1
 350 0 l 1,51,52
450 0 m 1,68,69
 429 0 429 0 415 14 c 0,70,71
 401 29 401 29 400 50 c 256,72,73
 400 71 400 71 415 85 c 256,74,75
 429 99 429 99 450 100 c 0,76,77
 471 100 471 100 485 85 c 256,78,79
 499 71 499 71 500 50 c 256,80,81
 500 29 500 29 485 14 c 0,82,83
 471 0 471 0 450 0 c 1,84,-1
 450 0 l 1,68,69
550 0 m 1,85,86
 529 0 529 0 515 14 c 0,87,88
 501 29 501 29 500 50 c 256,89,90
 500 71 500 71 515 85 c 256,91,92
 529 99 529 99 550 100 c 256,93,94
 571 100 571 100 585 85 c 0,95,96
 599 71 599 71 599 50 c 256,97,98
 599 29 599 29 585 14 c 0,99,100
 570 0 570 0 550 0 c 1,101,-1
 550 0 l 1,85,86
649 0 m 1,102,103
 628 0 628 0 615 14 c 0,104,105
 601 29 601 29 599 50 c 256,106,107
 599 71 599 71 615 85 c 0,108,109
 630 99 630 99 649 100 c 256,110,111
 670 100 670 100 685 85 c 256,112,113
 699 71 699 71 700 50 c 256,114,115
 700 29 700 29 685 14 c 0,116,117
 671 0 671 0 649 0 c 1,118,-1
 649 0 l 1,102,103
749 0 m 1,119,120
 728 0 728 0 714 14 c 0,121,122
 700 29 700 29 700 50 c 256,123,124
 700 71 700 71 714 85 c 256,125,126
 728 99 728 99 749 100 c 0,127,128
 770 100 770 100 785 85 c 256,129,130
 799 71 799 71 799 50 c 256,131,132
 799 29 799 29 785 14 c 0,133,134
 771 0 771 0 749 0 c 1,135,-1
 749 0 l 1,119,120
850 0 m 1,136,137
 829 0 829 0 814 14 c 0,138,139
 800 29 800 29 799 50 c 256,140,141
 799 71 799 71 814 85 c 256,142,143
 828 99 828 99 850 100 c 256,144,145
 871 100 871 100 885 85 c 0,146,147
 899 71 899 71 900 50 c 256,148,149
 900 29 900 29 885 14 c 0,150,151
 870 0 870 0 850 0 c 1,152,-1
 850 0 l 1,136,137
949 0 m 1,153,154
 928 0 928 0 914 14 c 0,155,156
 900 29 900 29 900 50 c 256,157,158
 900 71 900 71 914 85 c 0,159,160
 929 99 929 99 949 100 c 256,161,162
 970 100 970 100 985 85 c 256,163,164
 999 71 999 71 1000 50 c 256,165,166
 1000 29 1000 29 985 14 c 0,167,168
 971 0 971 0 949 0 c 1,169,-1
 949 0 l 1,153,154
250 100 m 1,170,171
 229 100 229 100 215 115 c 256,172,173
 201 129 201 129 200 150 c 0,174,175
 200 171 200 171 215 186 c 256,176,177
 229 200 229 200 250 200 c 256,178,179
 271 200 271 200 286 186 c 0,180,181
 300 172 300 172 300 150 c 0,182,183
 300 129 300 129 286 115 c 0,184,185
 271 101 271 101 250 100 c 1,186,-1
 250 100 l 1,170,171
350 100 m 1,187,188
 329 100 329 100 314 115 c 0,189,190
 300 129 300 129 300 150 c 0,191,192
 300 171 300 171 314 186 c 0,193,194
 329 200 329 200 350 200 c 256,195,196
 371 200 371 200 385 186 c 256,197,198
 399 172 399 172 400 150 c 0,199,200
 400 129 400 129 385 115 c 256,201,202
 371 101 371 101 350 100 c 1,203,-1
 350 100 l 1,187,188
450 200 m 1,204,205
 429 200 429 200 415 215 c 256,206,207
 401 229 401 229 400 250 c 256,208,209
 400 271 400 271 415 286 c 0,210,211
 429 300 429 300 450 300 c 0,212,213
 471 300 471 300 485 286 c 0,214,215
 499 271 499 271 500 250 c 256,216,217
 500 229 500 229 485 215 c 256,218,219
 471 201 471 201 450 200 c 1,220,-1
 450 200 l 1,204,205
550 200 m 1,221,222
 529 200 529 200 515 215 c 256,223,224
 501 229 501 229 500 250 c 256,225,226
 500 271 500 271 515 286 c 0,227,228
 529 300 529 300 550 300 c 256,229,230
 571 300 571 300 585 286 c 0,231,232
 599 271 599 271 599 250 c 256,233,234
 599 229 599 229 585 215 c 0,235,236
 570 201 570 201 550 200 c 1,237,-1
 550 200 l 1,221,222
649 300 m 1,238,239
 628 300 628 300 615 314 c 0,240,241
 601 329 601 329 599 350 c 256,242,243
 599 371 599 371 615 385 c 0,244,245
 630 399 630 399 649 400 c 256,246,247
 670 400 670 400 685 385 c 256,248,249
 699 371 699 371 700 350 c 256,250,251
 700 329 700 329 685 314 c 0,252,253
 671 300 671 300 649 300 c 1,254,-1
 649 300 l 1,238,239
749 300 m 1,255,256
 728 300 728 300 714 314 c 0,257,258
 700 329 700 329 700 350 c 256,259,260
 700 371 700 371 714 385 c 256,261,262
 728 399 728 399 749 400 c 0,263,264
 770 400 770 400 785 385 c 256,265,266
 799 371 799 371 799 350 c 256,267,268
 799 329 799 329 785 314 c 0,269,270
 771 300 771 300 749 300 c 1,271,-1
 749 300 l 1,255,256
850 400 m 1,272,273
 829 400 829 400 814 415 c 256,274,275
 800 429 800 429 799 450 c 0,276,277
 799 471 799 471 814 485 c 256,278,279
 828 499 828 499 850 500 c 256,280,281
 871 500 871 500 885 485 c 0,282,283
 899 471 899 471 900 450 c 0,284,285
 900 429 900 429 885 415 c 0,286,287
 870 401 870 401 850 400 c 1,288,-1
 850 400 l 1,272,273
949 400 m 1,289,290
 928 400 928 400 914 415 c 0,291,292
 900 429 900 429 900 450 c 0,293,294
 900 471 900 471 914 485 c 0,295,296
 929 499 929 499 949 500 c 256,297,298
 970 500 970 500 985 485 c 256,299,300
 999 471 999 471 1000 450 c 0,301,302
 1000 429 1000 429 985 415 c 256,303,304
 971 401 971 401 949 400 c 1,305,-1
 949 400 l 1,289,290
50 500 m 1,306,307
 29 500 29 500 14 515 c 0,308,309
 0 529 0 529 0 550 c 256,310,311
 0 571 0 571 14 585 c 0,312,313
 29 599 29 599 50 599 c 256,314,315
 71 599 71 599 85 585 c 0,316,317
 99 570 99 570 100 550 c 256,318,319
 100 529 100 529 85 515 c 256,320,321
 71 501 71 501 50 500 c 1,322,-1
 50 500 l 1,306,307
150 500 m 1,323,324
 129 500 129 500 115 515 c 256,325,326
 101 529 101 529 100 550 c 256,327,328
 100 571 100 571 115 585 c 0,329,330
 129 599 129 599 150 599 c 0,331,332
 171 599 171 599 186 585 c 0,333,334
 200 570 200 570 200 550 c 256,335,336
 200 529 200 529 186 515 c 256,337,338
 172 501 172 501 150 500 c 1,339,-1
 150 500 l 1,323,324
850 500 m 1,340,341
 829 500 829 500 814 515 c 256,342,343
 800 529 800 529 799 550 c 256,344,345
 799 571 799 571 814 585 c 0,346,347
 828 599 828 599 850 599 c 256,348,349
 871 599 871 599 885 585 c 0,350,351
 899 570 899 570 900 550 c 256,352,353
 900 529 900 529 885 515 c 0,354,355
 870 501 870 501 850 500 c 1,356,-1
 850 500 l 1,340,341
949 500 m 1,357,358
 928 500 928 500 914 515 c 0,359,360
 900 529 900 529 900 550 c 256,361,362
 900 571 900 571 914 585 c 0,363,364
 929 599 929 599 949 599 c 256,365,366
 970 599 970 599 985 585 c 0,367,368
 999 570 999 570 1000 550 c 256,369,370
 1000 529 1000 529 985 515 c 256,371,372
 971 501 971 501 949 500 c 1,373,-1
 949 500 l 1,357,358
250 599 m 1,374,375
 229 599 229 599 215 615 c 0,376,377
 201 630 201 630 200 649 c 256,378,379
 200 670 200 670 215 685 c 256,380,381
 229 699 229 699 250 700 c 256,382,383
 271 700 271 700 286 685 c 0,384,385
 300 671 300 671 300 649 c 256,386,387
 300 628 300 628 286 615 c 0,388,389
 271 601 271 601 250 599 c 1,390,-1
 250 599 l 1,374,375
350 599 m 1,391,392
 329 599 329 599 314 615 c 0,393,394
 300 630 300 630 300 649 c 256,395,396
 300 670 300 670 314 685 c 0,397,398
 329 699 329 699 350 700 c 256,399,400
 371 700 371 700 385 685 c 256,401,402
 399 671 399 671 400 649 c 256,403,404
 400 628 400 628 385 615 c 0,405,406
 371 601 371 601 350 599 c 1,407,-1
 350 599 l 1,391,392
450 599 m 1,408,409
 429 599 429 599 415 615 c 0,410,411
 401 630 401 630 400 649 c 256,412,413
 400 670 400 670 415 685 c 256,414,415
 429 699 429 699 450 700 c 0,416,417
 471 700 471 700 485 685 c 256,418,419
 499 671 499 671 500 649 c 256,420,421
 500 628 500 628 485 615 c 0,422,423
 471 601 471 601 450 599 c 1,424,-1
 450 599 l 1,408,409
550 599 m 1,425,426
 529 599 529 599 515 615 c 0,427,428
 501 630 501 630 500 649 c 256,429,430
 500 670 500 670 515 685 c 256,431,432
 529 699 529 699 550 700 c 256,433,434
 571 700 571 700 585 685 c 0,435,436
 599 671 599 671 599 649 c 256,437,438
 599 628 599 628 585 615 c 0,439,440
 570 601 570 601 550 599 c 1,441,-1
 550 599 l 1,425,426
649 599 m 1,442,443
 628 599 628 599 615 615 c 0,444,445
 601 630 601 630 599 649 c 256,446,447
 599 670 599 670 615 685 c 0,448,449
 630 699 630 699 649 700 c 256,450,451
 670 700 670 700 685 685 c 256,452,453
 699 671 699 671 700 649 c 256,454,455
 700 628 700 628 685 615 c 0,456,457
 671 601 671 601 649 599 c 1,458,-1
 649 599 l 1,442,443
749 599 m 1,459,460
 728 599 728 599 714 615 c 0,461,462
 700 630 700 630 700 649 c 256,463,464
 700 670 700 670 714 685 c 256,465,466
 728 699 728 699 749 700 c 0,467,468
 770 700 770 700 785 685 c 256,469,470
 799 671 799 671 799 649 c 256,471,472
 799 628 799 628 785 615 c 0,473,474
 771 601 771 601 749 599 c 1,475,-1
 749 599 l 1,459,460
EndSplineSet
Validated: 5
EndChar

StartChar: three
Encoding: 51 51 19
Width: 1200
VWidth: 599
Flags: W
LayerCount: 2
Fore
SplineSet
250 0 m 1,0,1
 229 0 229 0 215 14 c 0,2,3
 201 29 201 29 200 50 c 256,4,5
 200 71 200 71 215 85 c 256,6,7
 229 99 229 99 250 100 c 256,8,9
 271 100 271 100 286 85 c 0,10,11
 300 71 300 71 300 50 c 256,12,13
 300 29 300 29 286 14 c 0,14,15
 271 0 271 0 250 0 c 1,16,-1
 250 0 l 1,0,1
350 0 m 1,17,18
 329 0 329 0 314 14 c 0,19,20
 300 29 300 29 300 50 c 256,21,22
 300 71 300 71 314 85 c 0,23,24
 329 99 329 99 350 100 c 256,25,26
 371 100 371 100 385 85 c 256,27,28
 399 71 399 71 400 50 c 256,29,30
 400 29 400 29 385 14 c 0,31,32
 371 0 371 0 350 0 c 1,33,-1
 350 0 l 1,17,18
450 0 m 1,34,35
 429 0 429 0 415 14 c 0,36,37
 401 29 401 29 400 50 c 256,38,39
 400 71 400 71 415 85 c 256,40,41
 429 99 429 99 450 100 c 0,42,43
 471 100 471 100 485 85 c 256,44,45
 499 71 499 71 500 50 c 256,46,47
 500 29 500 29 485 14 c 0,48,49
 471 0 471 0 450 0 c 1,50,-1
 450 0 l 1,34,35
550 0 m 1,51,52
 529 0 529 0 515 14 c 0,53,54
 501 29 501 29 500 50 c 256,55,56
 500 71 500 71 515 85 c 256,57,58
 529 99 529 99 550 100 c 256,59,60
 571 100 571 100 585 85 c 0,61,62
 599 71 599 71 599 50 c 256,63,64
 599 29 599 29 585 14 c 0,65,66
 570 0 570 0 550 0 c 1,67,-1
 550 0 l 1,51,52
649 0 m 1,68,69
 628 0 628 0 615 14 c 0,70,71
 601 29 601 29 599 50 c 256,72,73
 599 71 599 71 615 85 c 0,74,75
 630 99 630 99 649 100 c 256,76,77
 670 100 670 100 685 85 c 256,78,79
 699 71 699 71 700 50 c 256,80,81
 700 29 700 29 685 14 c 0,82,83
 671 0 671 0 649 0 c 1,84,-1
 649 0 l 1,68,69
749 0 m 1,85,86
 728 0 728 0 714 14 c 0,87,88
 700 29 700 29 700 50 c 256,89,90
 700 71 700 71 714 85 c 256,91,92
 728 99 728 99 749 100 c 0,93,94
 770 100 770 100 785 85 c 256,95,96
 799 71 799 71 799 50 c 256,97,98
 799 29 799 29 785 14 c 0,99,100
 771 0 771 0 749 0 c 1,101,-1
 749 0 l 1,85,86
50 100 m 1,102,103
 29 100 29 100 14 115 c 0,104,105
 0 129 0 129 0 150 c 0,106,107
 0 171 0 171 14 186 c 0,108,109
 29 200 29 200 50 200 c 256,110,111
 71 200 71 200 85 186 c 256,112,113
 99 172 99 172 100 150 c 0,114,115
 100 129 100 129 85 115 c 256,116,117
 71 101 71 101 50 100 c 1,118,-1
 50 100 l 1,102,103
150 100 m 1,119,120
 129 100 129 100 115 115 c 256,121,122
 101 129 101 129 100 150 c 0,123,124
 100 171 100 171 115 186 c 256,125,126
 129 200 129 200 150 200 c 0,127,128
 171 200 171 200 186 186 c 256,129,130
 200 172 200 172 200 150 c 0,131,132
 200 129 200 129 186 115 c 256,133,134
 172 101 172 101 150 100 c 1,135,-1
 150 100 l 1,119,120
850 100 m 1,136,137
 829 100 829 100 814 115 c 256,138,139
 800 129 800 129 799 150 c 0,140,141
 799 171 799 171 814 186 c 256,142,143
 828 200 828 200 850 200 c 256,144,145
 871 200 871 200 885 186 c 0,146,147
 899 172 899 172 900 150 c 0,148,149
 900 129 900 129 885 115 c 0,150,151
 870 101 870 101 850 100 c 1,152,-1
 850 100 l 1,136,137
949 100 m 1,153,154
 928 100 928 100 914 115 c 0,155,156
 900 129 900 129 900 150 c 0,157,158
 900 171 900 171 914 186 c 0,159,160
 929 200 929 200 949 200 c 256,161,162
 970 200 970 200 985 186 c 256,163,164
 999 172 999 172 1000 150 c 0,165,166
 1000 129 1000 129 985 115 c 256,167,168
 971 101 971 101 949 100 c 1,169,-1
 949 100 l 1,153,154
850 200 m 1,170,171
 829 200 829 200 814 215 c 256,172,173
 800 229 800 229 799 250 c 256,174,175
 799 271 799 271 814 286 c 0,176,177
 828 300 828 300 850 300 c 256,178,179
 871 300 871 300 885 286 c 0,180,181
 899 271 899 271 900 250 c 256,182,183
 900 229 900 229 885 215 c 0,184,185
 870 201 870 201 850 200 c 1,186,-1
 850 200 l 1,170,171
949 200 m 1,187,188
 928 200 928 200 914 215 c 0,189,190
 900 229 900 229 900 250 c 256,191,192
 900 271 900 271 914 286 c 0,193,194
 929 300 929 300 949 300 c 256,195,196
 970 300 970 300 985 286 c 0,197,198
 999 271 999 271 1000 250 c 256,199,200
 1000 229 1000 229 985 215 c 256,201,202
 971 201 971 201 949 200 c 1,203,-1
 949 200 l 1,187,188
649 300 m 1,204,205
 628 300 628 300 615 314 c 0,206,207
 601 329 601 329 599 350 c 256,208,209
 599 371 599 371 615 385 c 0,210,211
 630 399 630 399 649 400 c 256,212,213
 670 400 670 400 685 385 c 256,214,215
 699 371 699 371 700 350 c 256,216,217
 700 329 700 329 685 314 c 0,218,219
 671 300 671 300 649 300 c 1,220,-1
 649 300 l 1,204,205
749 300 m 1,221,222
 728 300 728 300 714 314 c 0,223,224
 700 329 700 329 700 350 c 256,225,226
 700 371 700 371 714 385 c 256,227,228
 728 399 728 399 749 400 c 0,229,230
 770 400 770 400 785 385 c 256,231,232
 799 371 799 371 799 350 c 256,233,234
 799 329 799 329 785 314 c 0,235,236
 771 300 771 300 749 300 c 1,237,-1
 749 300 l 1,221,222
450 400 m 1,238,239
 429 400 429 400 415 415 c 256,240,241
 401 429 401 429 400 450 c 0,242,243
 400 471 400 471 415 485 c 256,244,245
 429 499 429 499 450 500 c 0,246,247
 471 500 471 500 485 485 c 256,248,249
 499 471 499 471 500 450 c 0,250,251
 500 429 500 429 485 415 c 256,252,253
 471 401 471 401 450 400 c 1,254,-1
 450 400 l 1,238,239
550 400 m 1,255,256
 529 400 529 400 515 415 c 256,257,258
 501 429 501 429 500 450 c 0,259,260
 500 471 500 471 515 485 c 256,261,262
 529 499 529 499 550 500 c 256,263,264
 571 500 571 500 585 485 c 0,265,266
 599 471 599 471 599 450 c 0,267,268
 599 429 599 429 585 415 c 0,269,270
 570 401 570 401 550 400 c 1,271,-1
 550 400 l 1,255,256
649 500 m 1,272,273
 628 500 628 500 615 515 c 0,274,275
 601 529 601 529 599 550 c 256,276,277
 599 571 599 571 615 585 c 0,278,279
 630 599 630 599 649 599 c 256,280,281
 670 599 670 599 685 585 c 0,282,283
 699 570 699 570 700 550 c 256,284,285
 700 529 700 529 685 515 c 256,286,287
 671 501 671 501 649 500 c 1,288,-1
 649 500 l 1,272,273
749 500 m 1,289,290
 728 500 728 500 714 515 c 256,291,292
 700 529 700 529 700 550 c 256,293,294
 700 571 700 571 714 585 c 0,295,296
 728 599 728 599 749 599 c 0,297,298
 770 599 770 599 785 585 c 0,299,300
 799 570 799 570 799 550 c 256,301,302
 799 529 799 529 785 515 c 256,303,304
 771 501 771 501 749 500 c 1,305,-1
 749 500 l 1,289,290
50 599 m 1,306,307
 29 599 29 599 14 615 c 0,308,309
 0 630 0 630 0 649 c 256,310,311
 0 670 0 670 14 685 c 0,312,313
 29 699 29 699 50 700 c 256,314,315
 71 700 71 700 85 685 c 256,316,317
 99 671 99 671 100 649 c 256,318,319
 100 628 100 628 85 615 c 0,320,321
 71 601 71 601 50 599 c 1,322,-1
 50 599 l 1,306,307
150 599 m 1,323,324
 129 599 129 599 115 615 c 0,325,326
 101 630 101 630 100 649 c 256,327,328
 100 670 100 670 115 685 c 256,329,330
 129 699 129 699 150 700 c 0,331,332
 171 700 171 700 186 685 c 256,333,334
 200 671 200 671 200 649 c 256,335,336
 200 628 200 628 186 615 c 0,337,338
 172 601 172 601 150 599 c 1,339,-1
 150 599 l 1,323,324
250 599 m 1,340,341
 229 599 229 599 215 615 c 0,342,343
 201 630 201 630 200 649 c 256,344,345
 200 670 200 670 215 685 c 256,346,347
 229 699 229 699 250 700 c 256,348,349
 271 700 271 700 286 685 c 0,350,351
 300 671 300 671 300 649 c 256,352,353
 300 628 300 628 286 615 c 0,354,355
 271 601 271 601 250 599 c 1,356,-1
 250 599 l 1,340,341
350 599 m 1,357,358
 329 599 329 599 314 615 c 0,359,360
 300 630 300 630 300 649 c 256,361,362
 300 670 300 670 314 685 c 0,363,364
 329 699 329 699 350 700 c 256,365,366
 371 700 371 700 385 685 c 256,367,368
 399 671 399 671 400 649 c 256,369,370
 400 628 400 628 385 615 c 0,371,372
 371 601 371 601 350 599 c 1,373,-1
 350 599 l 1,357,358
450 599 m 1,374,375
 429 599 429 599 415 615 c 0,376,377
 401 630 401 630 400 649 c 256,378,379
 400 670 400 670 415 685 c 256,380,381
 429 699 429 699 450 700 c 0,382,383
 471 700 471 700 485 685 c 256,384,385
 499 671 499 671 500 649 c 256,386,387
 500 628 500 628 485 615 c 0,388,389
 471 601 471 601 450 599 c 1,390,-1
 450 599 l 1,374,375
550 599 m 1,391,392
 529 599 529 599 515 615 c 0,393,394
 501 630 501 630 500 649 c 256,395,396
 500 670 500 670 515 685 c 256,397,398
 529 699 529 699 550 700 c 256,399,400
 571 700 571 700 585 685 c 0,401,402
 599 671 599 671 599 649 c 256,403,404
 599 628 599 628 585 615 c 0,405,406
 570 601 570 601 550 599 c 1,407,-1
 550 599 l 1,391,392
649 599 m 1,408,409
 628 599 628 599 615 615 c 0,410,411
 601 630 601 630 599 649 c 256,412,413
 599 670 599 670 615 685 c 0,414,415
 630 699 630 699 649 700 c 256,416,417
 670 700 670 700 685 685 c 256,418,419
 699 671 699 671 700 649 c 256,420,421
 700 628 700 628 685 615 c 0,422,423
 671 601 671 601 649 599 c 1,424,-1
 649 599 l 1,408,409
749 599 m 1,425,426
 728 599 728 599 714 615 c 0,427,428
 700 630 700 630 700 649 c 256,429,430
 700 670 700 670 714 685 c 256,431,432
 728 699 728 699 749 700 c 0,433,434
 770 700 770 700 785 685 c 256,435,436
 799 671 799 671 799 649 c 256,437,438
 799 628 799 628 785 615 c 0,439,440
 771 601 771 601 749 599 c 1,441,-1
 749 599 l 1,425,426
850 599 m 1,442,443
 829 599 829 599 814 615 c 0,444,445
 800 630 800 630 799 649 c 256,446,447
 799 670 799 670 814 685 c 256,448,449
 828 699 828 699 850 700 c 256,450,451
 871 700 871 700 885 685 c 0,452,453
 899 671 899 671 900 649 c 256,454,455
 900 628 900 628 885 615 c 0,456,457
 870 601 870 601 850 599 c 1,458,-1
 850 599 l 1,442,443
949 599 m 1,459,460
 928 599 928 599 914 615 c 0,461,462
 900 630 900 630 900 649 c 256,463,464
 900 670 900 670 914 685 c 0,465,466
 929 699 929 699 949 700 c 256,467,468
 970 700 970 700 985 685 c 256,469,470
 999 671 999 671 1000 649 c 256,471,472
 1000 628 1000 628 985 615 c 0,473,474
 971 601 971 601 949 599 c 1,475,-1
 949 599 l 1,459,460
EndSplineSet
Validated: 5
EndChar

StartChar: four
Encoding: 52 52 20
Width: 1200
VWidth: 599
Flags: W
LayerCount: 2
Fore
SplineSet
649 0 m 1,0,1
 628 0 628 0 615 14 c 0,2,3
 601 29 601 29 599 50 c 256,4,5
 599 71 599 71 615 85 c 0,6,7
 630 99 630 99 649 100 c 256,8,9
 670 100 670 100 685 85 c 256,10,11
 699 71 699 71 700 50 c 256,12,13
 700 29 700 29 685 14 c 0,14,15
 671 0 671 0 649 0 c 1,16,-1
 649 0 l 1,0,1
749 0 m 1,17,18
 728 0 728 0 714 14 c 0,19,20
 700 29 700 29 700 50 c 256,21,22
 700 71 700 71 714 85 c 256,23,24
 728 99 728 99 749 100 c 0,25,26
 770 100 770 100 785 85 c 256,27,28
 799 71 799 71 799 50 c 256,29,30
 799 29 799 29 785 14 c 0,31,32
 771 0 771 0 749 0 c 1,33,-1
 749 0 l 1,17,18
50 100 m 1,34,35
 29 100 29 100 14 115 c 0,36,37
 0 129 0 129 0 150 c 0,38,39
 0 171 0 171 14 186 c 0,40,41
 29 200 29 200 50 200 c 256,42,43
 71 200 71 200 85 186 c 256,44,45
 99 172 99 172 100 150 c 0,46,47
 100 129 100 129 85 115 c 256,48,49
 71 101 71 101 50 100 c 1,50,-1
 50 100 l 1,34,35
150 100 m 1,51,52
 129 100 129 100 115 115 c 256,53,54
 101 129 101 129 100 150 c 0,55,56
 100 171 100 171 115 186 c 256,57,58
 129 200 129 200 150 200 c 0,59,60
 171 200 171 200 186 186 c 256,61,62
 200 172 200 172 200 150 c 0,63,64
 200 129 200 129 186 115 c 256,65,66
 172 101 172 101 150 100 c 1,67,-1
 150 100 l 1,51,52
250 100 m 1,68,69
 229 100 229 100 215 115 c 256,70,71
 201 129 201 129 200 150 c 0,72,73
 200 171 200 171 215 186 c 256,74,75
 229 200 229 200 250 200 c 256,76,77
 271 200 271 200 286 186 c 0,78,79
 300 172 300 172 300 150 c 0,80,81
 300 129 300 129 286 115 c 0,82,83
 271 101 271 101 250 100 c 1,84,-1
 250 100 l 1,68,69
350 100 m 1,85,86
 329 100 329 100 314 115 c 0,87,88
 300 129 300 129 300 150 c 0,89,90
 300 171 300 171 314 186 c 0,91,92
 329 200 329 200 350 200 c 256,93,94
 371 200 371 200 385 186 c 256,95,96
 399 172 399 172 400 150 c 0,97,98
 400 129 400 129 385 115 c 256,99,100
 371 101 371 101 350 100 c 1,101,-1
 350 100 l 1,85,86
450 100 m 1,102,103
 429 100 429 100 415 115 c 256,104,105
 401 129 401 129 400 150 c 0,106,107
 400 171 400 171 415 186 c 256,108,109
 429 200 429 200 450 200 c 0,110,111
 471 200 471 200 485 186 c 256,112,113
 499 172 499 172 500 150 c 0,114,115
 500 129 500 129 485 115 c 256,116,117
 471 101 471 101 450 100 c 1,118,-1
 450 100 l 1,102,103
550 100 m 1,119,120
 529 100 529 100 515 115 c 256,121,122
 501 129 501 129 500 150 c 0,123,124
 500 171 500 171 515 186 c 256,125,126
 529 200 529 200 550 200 c 256,127,128
 571 200 571 200 585 186 c 0,129,130
 599 172 599 172 599 150 c 0,131,132
 599 129 599 129 585 115 c 0,133,134
 570 101 570 101 550 100 c 1,135,-1
 550 100 l 1,119,120
649 100 m 1,136,137
 628 100 628 100 615 115 c 0,138,139
 601 129 601 129 599 150 c 0,140,141
 599 171 599 171 615 186 c 0,142,143
 630 200 630 200 649 200 c 256,144,145
 670 200 670 200 685 186 c 256,146,147
 699 172 699 172 700 150 c 0,148,149
 700 129 700 129 685 115 c 256,150,151
 671 101 671 101 649 100 c 1,152,-1
 649 100 l 1,136,137
749 100 m 1,153,154
 728 100 728 100 714 115 c 256,155,156
 700 129 700 129 700 150 c 0,157,158
 700 171 700 171 714 186 c 256,159,160
 728 200 728 200 749 200 c 0,161,162
 770 200 770 200 785 186 c 256,163,164
 799 172 799 172 799 150 c 0,165,166
 799 129 799 129 785 115 c 256,167,168
 771 101 771 101 749 100 c 1,169,-1
 749 100 l 1,153,154
850 100 m 1,170,171
 829 100 829 100 814 115 c 256,172,173
 800 129 800 129 799 150 c 0,174,175
 799 171 799 171 814 186 c 256,176,177
 828 200 828 200 850 200 c 256,178,179
 871 200 871 200 885 186 c 0,180,181
 899 172 899 172 900 150 c 0,182,183
 900 129 900 129 885 115 c 0,184,185
 870 101 870 101 850 100 c 1,186,-1
 850 100 l 1,170,171
949 100 m 1,187,188
 928 100 928 100 914 115 c 0,189,190
 900 129 900 129 900 150 c 0,191,192
 900 171 900 171 914 186 c 0,193,194
 929 200 929 200 949 200 c 256,195,196
 970 200 970 200 985 186 c 256,197,198
 999 172 999 172 1000 150 c 0,199,200
 1000 129 1000 129 985 115 c 256,201,202
 971 101 971 101 949 100 c 1,203,-1
 949 100 l 1,187,188
50 200 m 1,204,205
 29 200 29 200 14 215 c 0,206,207
 0 229 0 229 0 250 c 256,208,209
 0 271 0 271 14 286 c 0,210,211
 29 300 29 300 50 300 c 256,212,213
 71 300 71 300 85 286 c 0,214,215
 99 271 99 271 100 250 c 256,216,217
 100 229 100 229 85 215 c 256,218,219
 71 201 71 201 50 200 c 1,220,-1
 50 200 l 1,204,205
150 200 m 1,221,222
 129 200 129 200 115 215 c 256,223,224
 101 229 101 229 100 250 c 256,225,226
 100 271 100 271 115 286 c 0,227,228
 129 300 129 300 150 300 c 0,229,230
 171 300 171 300 186 286 c 0,231,232
 200 271 200 271 200 250 c 256,233,234
 200 229 200 229 186 215 c 256,235,236
 172 201 172 201 150 200 c 1,237,-1
 150 200 l 1,221,222
649 200 m 1,238,239
 628 200 628 200 615 215 c 0,240,241
 601 229 601 229 599 250 c 256,242,243
 599 271 599 271 615 286 c 0,244,245
 630 300 630 300 649 300 c 256,246,247
 670 300 670 300 685 286 c 0,248,249
 699 271 699 271 700 250 c 256,250,251
 700 229 700 229 685 215 c 256,252,253
 671 201 671 201 649 200 c 1,254,-1
 649 200 l 1,238,239
749 200 m 1,255,256
 728 200 728 200 714 215 c 256,257,258
 700 229 700 229 700 250 c 256,259,260
 700 271 700 271 714 286 c 0,261,262
 728 300 728 300 749 300 c 0,263,264
 770 300 770 300 785 286 c 0,265,266
 799 271 799 271 799 250 c 256,267,268
 799 229 799 229 785 215 c 256,269,270
 771 201 771 201 749 200 c 1,271,-1
 749 200 l 1,255,256
150 300 m 1,272,273
 129 300 129 300 115 314 c 0,274,275
 101 329 101 329 100 350 c 256,276,277
 100 371 100 371 115 385 c 256,278,279
 129 399 129 399 150 400 c 0,280,281
 171 400 171 400 186 385 c 256,282,283
 200 371 200 371 200 350 c 256,284,285
 200 329 200 329 186 314 c 0,286,287
 172 300 172 300 150 300 c 1,288,-1
 150 300 l 1,272,273
250 300 m 1,289,290
 229 300 229 300 215 314 c 0,291,292
 201 329 201 329 200 350 c 256,293,294
 200 371 200 371 215 385 c 256,295,296
 229 399 229 399 250 400 c 256,297,298
 271 400 271 400 286 385 c 0,299,300
 300 371 300 371 300 350 c 256,301,302
 300 329 300 329 286 314 c 0,303,304
 271 300 271 300 250 300 c 1,305,-1
 250 300 l 1,289,290
649 300 m 1,306,307
 628 300 628 300 615 314 c 0,308,309
 601 329 601 329 599 350 c 256,310,311
 599 371 599 371 615 385 c 0,312,313
 630 399 630 399 649 400 c 256,314,315
 670 400 670 400 685 385 c 256,316,317
 699 371 699 371 700 350 c 256,318,319
 700 329 700 329 685 314 c 0,320,321
 671 300 671 300 649 300 c 1,322,-1
 649 300 l 1,306,307
749 300 m 1,323,324
 728 300 728 300 714 314 c 0,325,326
 700 329 700 329 700 350 c 256,327,328
 700 371 700 371 714 385 c 256,329,330
 728 399 728 399 749 400 c 0,331,332
 770 400 770 400 785 385 c 256,333,334
 799 371 799 371 799 350 c 256,335,336
 799 329 799 329 785 314 c 0,337,338
 771 300 771 300 749 300 c 1,339,-1
 749 300 l 1,323,324
250 400 m 1,340,341
 229 400 229 400 215 415 c 256,342,343
 201 429 201 429 200 450 c 0,344,345
 200 471 200 471 215 485 c 256,346,347
 229 499 229 499 250 500 c 256,348,349
 271 500 271 500 286 485 c 0,350,351
 300 471 300 471 300 450 c 0,352,353
 300 429 300 429 286 415 c 0,354,355
 271 401 271 401 250 400 c 1,356,-1
 250 400 l 1,340,341
350 400 m 1,357,358
 329 400 329 400 314 415 c 0,359,360
 300 429 300 429 300 450 c 0,361,362
 300 471 300 471 314 485 c 0,363,364
 329 499 329 499 350 500 c 256,365,366
 371 500 371 500 385 485 c 256,367,368
 399 471 399 471 400 450 c 0,369,370
 400 429 400 429 385 415 c 256,371,372
 371 401 371 401 350 400 c 1,373,-1
 350 400 l 1,357,358
649 400 m 1,374,375
 628 400 628 400 615 415 c 0,376,377
 601 429 601 429 599 450 c 0,378,379
 599 471 599 471 615 485 c 0,380,381
 630 499 630 499 649 500 c 256,382,383
 670 500 670 500 685 485 c 256,384,385
 699 471 699 471 700 450 c 0,386,387
 700 429 700 429 685 415 c 256,388,389
 671 401 671 401 649 400 c 1,390,-1
 649 400 l 1,374,375
749 400 m 1,391,392
 728 400 728 400 714 415 c 256,393,394
 700 429 700 429 700 450 c 0,395,396
 700 471 700 471 714 485 c 256,397,398
 728 499 728 499 749 500 c 0,399,400
 770 500 770 500 785 485 c 256,401,402
 799 471 799 471 799 450 c 0,403,404
 799 429 799 429 785 415 c 256,405,406
 771 401 771 401 749 400 c 1,407,-1
 749 400 l 1,391,392
350 500 m 1,408,409
 329 500 329 500 314 515 c 0,410,411
 300 529 300 529 300 550 c 256,412,413
 300 571 300 571 314 585 c 0,414,415
 329 599 329 599 350 599 c 256,416,417
 371 599 371 599 385 585 c 0,418,419
 399 570 399 570 400 550 c 256,420,421
 400 529 400 529 385 515 c 256,422,423
 371 501 371 501 350 500 c 1,424,-1
 350 500 l 1,408,409
450 500 m 1,425,426
 429 500 429 500 415 515 c 256,427,428
 401 529 401 529 400 550 c 256,429,430
 400 571 400 571 415 585 c 0,431,432
 429 599 429 599 450 599 c 0,433,434
 471 599 471 599 485 585 c 0,435,436
 499 570 499 570 500 550 c 256,437,438
 500 529 500 529 485 515 c 256,439,440
 471 501 471 501 450 500 c 1,441,-1
 450 500 l 1,425,426
450 599 m 1,442,443
 429 599 429 599 415 615 c 0,444,445
 401 630 401 630 400 649 c 256,446,447
 400 670 400 670 415 685 c 256,448,449
 429 699 429 699 450 700 c 0,450,451
 471 700 471 700 485 685 c 256,452,453
 499 671 499 671 500 649 c 256,454,455
 500 628 500 628 485 615 c 0,456,457
 471 601 471 601 450 599 c 1,458,-1
 450 599 l 1,442,443
550 599 m 1,459,460
 529 599 529 599 515 615 c 0,461,462
 501 630 501 630 500 649 c 256,463,464
 500 670 500 670 515 685 c 256,465,466
 529 699 529 699 550 700 c 256,467,468
 571 700 571 700 585 685 c 0,469,470
 599 671 599 671 599 649 c 256,471,472
 599 628 599 628 585 615 c 0,473,474
 570 601 570 601 550 599 c 1,475,-1
 550 599 l 1,459,460
EndSplineSet
Validated: 5
EndChar

StartChar: five
Encoding: 53 53 21
Width: 1200
VWidth: 599
Flags: W
LayerCount: 2
Fore
SplineSet
150 0 m 1,0,1
 129 0 129 0 115 14 c 0,2,3
 101 29 101 29 100 50 c 256,4,5
 100 71 100 71 115 85 c 256,6,7
 129 99 129 99 150 100 c 0,8,9
 171 100 171 100 186 85 c 256,10,11
 200 71 200 71 200 50 c 256,12,13
 200 29 200 29 186 14 c 0,14,15
 172 0 172 0 150 0 c 1,16,-1
 150 0 l 1,0,1
250 0 m 1,17,18
 229 0 229 0 215 14 c 0,19,20
 201 29 201 29 200 50 c 256,21,22
 200 71 200 71 215 85 c 256,23,24
 229 99 229 99 250 100 c 256,25,26
 271 100 271 100 286 85 c 0,27,28
 300 71 300 71 300 50 c 256,29,30
 300 29 300 29 286 14 c 0,31,32
 271 0 271 0 250 0 c 1,33,-1
 250 0 l 1,17,18
350 0 m 1,34,35
 329 0 329 0 314 14 c 0,36,37
 300 29 300 29 300 50 c 256,38,39
 300 71 300 71 314 85 c 0,40,41
 329 99 329 99 350 100 c 256,42,43
 371 100 371 100 385 85 c 256,44,45
 399 71 399 71 400 50 c 256,46,47
 400 29 400 29 385 14 c 0,48,49
 371 0 371 0 350 0 c 1,50,-1
 350 0 l 1,34,35
450 0 m 1,51,52
 429 0 429 0 415 14 c 0,53,54
 401 29 401 29 400 50 c 256,55,56
 400 71 400 71 415 85 c 256,57,58
 429 99 429 99 450 100 c 0,59,60
 471 100 471 100 485 85 c 256,61,62
 499 71 499 71 500 50 c 256,63,64
 500 29 500 29 485 14 c 0,65,66
 471 0 471 0 450 0 c 1,67,-1
 450 0 l 1,51,52
550 0 m 1,68,69
 529 0 529 0 515 14 c 0,70,71
 501 29 501 29 500 50 c 256,72,73
 500 71 500 71 515 85 c 256,74,75
 529 99 529 99 550 100 c 256,76,77
 571 100 571 100 585 85 c 0,78,79
 599 71 599 71 599 50 c 256,80,81
 599 29 599 29 585 14 c 0,82,83
 570 0 570 0 550 0 c 1,84,-1
 550 0 l 1,68,69
649 0 m 1,85,86
 628 0 628 0 615 14 c 0,87,88
 601 29 601 29 599 50 c 256,89,90
 599 71 599 71 615 85 c 0,91,92
 630 99 630 99 649 100 c 256,93,94
 670 100 670 100 685 85 c 256,95,96
 699 71 699 71 700 50 c 256,97,98
 700 29 700 29 685 14 c 0,99,100
 671 0 671 0 649 0 c 1,101,-1
 649 0 l 1,85,86
749 0 m 1,102,103
 728 0 728 0 714 14 c 0,104,105
 700 29 700 29 700 50 c 256,106,107
 700 71 700 71 714 85 c 256,108,109
 728 99 728 99 749 100 c 0,110,111
 770 100 770 100 785 85 c 256,112,113
 799 71 799 71 799 50 c 256,114,115
 799 29 799 29 785 14 c 0,116,117
 771 0 771 0 749 0 c 1,118,-1
 749 0 l 1,102,103
850 0 m 1,119,120
 829 0 829 0 814 14 c 0,121,122
 800 29 800 29 799 50 c 256,123,124
 799 71 799 71 814 85 c 256,125,126
 828 99 828 99 850 100 c 256,127,128
 871 100 871 100 885 85 c 0,129,130
 899 71 899 71 900 50 c 256,131,132
 900 29 900 29 885 14 c 0,133,134
 870 0 870 0 850 0 c 1,135,-1
 850 0 l 1,119,120
50 100 m 1,136,137
 29 100 29 100 14 115 c 0,138,139
 0 129 0 129 0 150 c 0,140,141
 0 171 0 171 14 186 c 0,142,143
 29 200 29 200 50 200 c 256,144,145
 71 200 71 200 85 186 c 256,146,147
 99 172 99 172 100 150 c 0,148,149
 100 129 100 129 85 115 c 256,150,151
 71 101 71 101 50 100 c 1,152,-1
 50 100 l 1,136,137
150 100 m 1,153,154
 129 100 129 100 115 115 c 256,155,156
 101 129 101 129 100 150 c 0,157,158
 100 171 100 171 115 186 c 256,159,160
 129 200 129 200 150 200 c 0,161,162
 171 200 171 200 186 186 c 256,163,164
 200 172 200 172 200 150 c 0,165,166
 200 129 200 129 186 115 c 256,167,168
 172 101 172 101 150 100 c 1,169,-1
 150 100 l 1,153,154
850 100 m 1,170,171
 829 100 829 100 814 115 c 256,172,173
 800 129 800 129 799 150 c 0,174,175
 799 171 799 171 814 186 c 256,176,177
 828 200 828 200 850 200 c 256,178,179
 871 200 871 200 885 186 c 0,180,181
 899 172 899 172 900 150 c 0,182,183
 900 129 900 129 885 115 c 0,184,185
 870 101 870 101 850 100 c 1,186,-1
 850 100 l 1,170,171
949 100 m 1,187,188
 928 100 928 100 914 115 c 0,189,190
 900 129 900 129 900 150 c 0,191,192
 900 171 900 171 914 186 c 0,193,194
 929 200 929 200 949 200 c 256,195,196
 970 200 970 200 985 186 c 256,197,198
 999 172 999 172 1000 150 c 0,199,200
 1000 129 1000 129 985 115 c 256,201,202
 971 101 971 101 949 100 c 1,203,-1
 949 100 l 1,187,188
850 200 m 1,204,205
 829 200 829 200 814 215 c 256,206,207
 800 229 800 229 799 250 c 256,208,209
 799 271 799 271 814 286 c 0,210,211
 828 300 828 300 850 300 c 256,212,213
 871 300 871 300 885 286 c 0,214,215
 899 271 899 271 900 250 c 256,216,217
 900 229 900 229 885 215 c 0,218,219
 870 201 870 201 850 200 c 1,220,-1
 850 200 l 1,204,205
949 200 m 1,221,222
 928 200 928 200 914 215 c 0,223,224
 900 229 900 229 900 250 c 256,225,226
 900 271 900 271 914 286 c 0,227,228
 929 300 929 300 949 300 c 256,229,230
 970 300 970 300 985 286 c 0,231,232
 999 271 999 271 1000 250 c 256,233,234
 1000 229 1000 229 985 215 c 256,235,236
 971 201 971 201 949 200 c 1,237,-1
 949 200 l 1,221,222
850 300 m 1,238,239
 829 300 829 300 814 314 c 0,240,241
 800 329 800 329 799 350 c 256,242,243
 799 371 799 371 814 385 c 256,244,245
 828 399 828 399 850 400 c 256,246,247
 871 400 871 400 885 385 c 0,248,249
 899 371 899 371 900 350 c 256,250,251
 900 329 900 329 885 314 c 0,252,253
 870 300 870 300 850 300 c 1,254,-1
 850 300 l 1,238,239
949 300 m 1,255,256
 928 300 928 300 914 314 c 0,257,258
 900 329 900 329 900 350 c 256,259,260
 900 371 900 371 914 385 c 0,261,262
 929 399 929 399 949 400 c 256,263,264
 970 400 970 400 985 385 c 256,265,266
 999 371 999 371 1000 350 c 256,267,268
 1000 329 1000 329 985 314 c 0,269,270
 971 300 971 300 949 300 c 1,271,-1
 949 300 l 1,255,256
50 400 m 1,272,273
 29 400 29 400 14 415 c 0,274,275
 0 429 0 429 0 450 c 0,276,277
 0 471 0 471 14 485 c 0,278,279
 29 499 29 499 50 500 c 256,280,281
 71 500 71 500 85 485 c 256,282,283
 99 471 99 471 100 450 c 0,284,285
 100 429 100 429 85 415 c 256,286,287
 71 401 71 401 50 400 c 1,288,-1
 50 400 l 1,272,273
150 400 m 1,289,290
 129 400 129 400 115 415 c 256,291,292
 101 429 101 429 100 450 c 0,293,294
 100 471 100 471 115 485 c 256,295,296
 129 499 129 499 150 500 c 0,297,298
 171 500 171 500 186 485 c 256,299,300
 200 471 200 471 200 450 c 0,301,302
 200 429 200 429 186 415 c 256,303,304
 172 401 172 401 150 400 c 1,305,-1
 150 400 l 1,289,290
250 400 m 1,306,307
 229 400 229 400 215 415 c 256,308,309
 201 429 201 429 200 450 c 0,310,311
 200 471 200 471 215 485 c 256,312,313
 229 499 229 499 250 500 c 256,314,315
 271 500 271 500 286 485 c 0,316,317
 300 471 300 471 300 450 c 0,318,319
 300 429 300 429 286 415 c 0,320,321
 271 401 271 401 250 400 c 1,322,-1
 250 400 l 1,306,307
350 400 m 1,323,324
 329 400 329 400 314 415 c 0,325,326
 300 429 300 429 300 450 c 0,327,328
 300 471 300 471 314 485 c 0,329,330
 329 499 329 499 350 500 c 256,331,332
 371 500 371 500 385 485 c 256,333,334
 399 471 399 471 400 450 c 0,335,336
 400 429 400 429 385 415 c 256,337,338
 371 401 371 401 350 400 c 1,339,-1
 350 400 l 1,323,324
450 400 m 1,340,341
 429 400 429 400 415 415 c 256,342,343
 401 429 401 429 400 450 c 0,344,345
 400 471 400 471 415 485 c 256,346,347
 429 499 429 499 450 500 c 0,348,349
 471 500 471 500 485 485 c 256,350,351
 499 471 499 471 500 450 c 0,352,353
 500 429 500 429 485 415 c 256,354,355
 471 401 471 401 450 400 c 1,356,-1
 450 400 l 1,340,341
550 400 m 1,357,358
 529 400 529 400 515 415 c 256,359,360
 501 429 501 429 500 450 c 0,361,362
 500 471 500 471 515 485 c 256,363,364
 529 499 529 499 550 500 c 256,365,366
 571 500 571 500 585 485 c 0,367,368
 599 471 599 471 599 450 c 0,369,370
 599 429 599 429 585 415 c 0,371,372
 570 401 570 401 550 400 c 1,373,-1
 550 400 l 1,357,358
649 400 m 1,374,375
 628 400 628 400 615 415 c 0,376,377
 601 429 601 429 599 450 c 0,378,379
 599 471 599 471 615 485 c 0,380,381
 630 499 630 499 649 500 c 256,382,383
 670 500 670 500 685 485 c 256,384,385
 699 471 699 471 700 450 c 0,386,387
 700 429 700 429 685 415 c 256,388,389
 671 401 671 401 649 400 c 1,390,-1
 649 400 l 1,374,375
749 400 m 1,391,392
 728 400 728 400 714 415 c 256,393,394
 700 429 700 429 700 450 c 0,395,396
 700 471 700 471 714 485 c 256,397,398
 728 499 728 499 749 500 c 0,399,400
 770 500 770 500 785 485 c 256,401,402
 799 471 799 471 799 450 c 0,403,404
 799 429 799 429 785 415 c 256,405,406
 771 401 771 401 749 400 c 1,407,-1
 749 400 l 1,391,392
50 500 m 1,408,409
 29 500 29 500 14 515 c 0,410,411
 0 529 0 529 0 550 c 256,412,413
 0 571 0 571 14 585 c 0,414,415
 29 599 29 599 50 599 c 256,416,417
 71 599 71 599 85 585 c 0,418,419
 99 570 99 570 100 550 c 256,420,421
 100 529 100 529 85 515 c 256,422,423
 71 501 71 501 50 500 c 1,424,-1
 50 500 l 1,408,409
150 500 m 1,425,426
 129 500 129 500 115 515 c 256,427,428
 101 529 101 529 100 550 c 256,429,430
 100 571 100 571 115 585 c 0,431,432
 129 599 129 599 150 599 c 0,433,434
 171 599 171 599 186 585 c 0,435,436
 200 570 200 570 200 550 c 256,437,438
 200 529 200 529 186 515 c 256,439,440
 172 501 172 501 150 500 c 1,441,-1
 150 500 l 1,425,426
50 599 m 1,442,443
 29 599 29 599 14 615 c 0,444,445
 0 630 0 630 0 649 c 256,446,447
 0 670 0 670 14 685 c 0,448,449
 29 699 29 699 50 700 c 256,450,451
 71 700 71 700 85 685 c 256,452,453
 99 671 99 671 100 649 c 256,454,455
 100 628 100 628 85 615 c 0,456,457
 71 601 71 601 50 599 c 1,458,-1
 50 599 l 1,442,443
150 599 m 1,459,460
 129 599 129 599 115 615 c 0,461,462
 101 630 101 630 100 649 c 256,463,464
 100 670 100 670 115 685 c 256,465,466
 129 699 129 699 150 700 c 0,467,468
 171 700 171 700 186 685 c 256,469,470
 200 671 200 671 200 649 c 256,471,472
 200 628 200 628 186 615 c 0,473,474
 172 601 172 601 150 599 c 1,475,-1
 150 599 l 1,459,460
250 599 m 1,476,477
 229 599 229 599 215 615 c 0,478,479
 201 630 201 630 200 649 c 256,480,481
 200 670 200 670 215 685 c 256,482,483
 229 699 229 699 250 700 c 256,484,485
 271 700 271 700 286 685 c 0,486,487
 300 671 300 671 300 649 c 256,488,489
 300 628 300 628 286 615 c 0,490,491
 271 601 271 601 250 599 c 1,492,-1
 250 599 l 1,476,477
350 599 m 1,493,494
 329 599 329 599 314 615 c 0,495,496
 300 630 300 630 300 649 c 256,497,498
 300 670 300 670 314 685 c 0,499,500
 329 699 329 699 350 700 c 256,501,502
 371 700 371 700 385 685 c 256,503,504
 399 671 399 671 400 649 c 256,505,506
 400 628 400 628 385 615 c 0,507,508
 371 601 371 601 350 599 c 1,509,-1
 350 599 l 1,493,494
450 599 m 1,510,511
 429 599 429 599 415 615 c 0,512,513
 401 630 401 630 400 649 c 256,514,515
 400 670 400 670 415 685 c 256,516,517
 429 699 429 699 450 700 c 0,518,519
 471 700 471 700 485 685 c 256,520,521
 499 671 499 671 500 649 c 256,522,523
 500 628 500 628 485 615 c 0,524,525
 471 601 471 601 450 599 c 1,526,-1
 450 599 l 1,510,511
550 599 m 1,527,528
 529 599 529 599 515 615 c 0,529,530
 501 630 501 630 500 649 c 256,531,532
 500 670 500 670 515 685 c 256,533,534
 529 699 529 699 550 700 c 256,535,536
 571 700 571 700 585 685 c 0,537,538
 599 671 599 671 599 649 c 256,539,540
 599 628 599 628 585 615 c 0,541,542
 570 601 570 601 550 599 c 1,543,-1
 550 599 l 1,527,528
649 599 m 1,544,545
 628 599 628 599 615 615 c 0,546,547
 601 630 601 630 599 649 c 256,548,549
 599 670 599 670 615 685 c 0,550,551
 630 699 630 699 649 700 c 256,552,553
 670 700 670 700 685 685 c 256,554,555
 699 671 699 671 700 649 c 256,556,557
 700 628 700 628 685 615 c 0,558,559
 671 601 671 601 649 599 c 1,560,-1
 649 599 l 1,544,545
749 599 m 1,561,562
 728 599 728 599 714 615 c 0,563,564
 700 630 700 630 700 649 c 256,565,566
 700 670 700 670 714 685 c 256,567,568
 728 699 728 699 749 700 c 0,569,570
 770 700 770 700 785 685 c 256,571,572
 799 671 799 671 799 649 c 256,573,574
 799 628 799 628 785 615 c 0,575,576
 771 601 771 601 749 599 c 1,577,-1
 749 599 l 1,561,562
850 599 m 1,578,579
 829 599 829 599 814 615 c 0,580,581
 800 630 800 630 799 649 c 256,582,583
 799 670 799 670 814 685 c 256,584,585
 828 699 828 699 850 700 c 256,586,587
 871 700 871 700 885 685 c 0,588,589
 899 671 899 671 900 649 c 256,590,591
 900 628 900 628 885 615 c 0,592,593
 870 601 870 601 850 599 c 1,594,-1
 850 599 l 1,578,579
949 599 m 1,595,596
 928 599 928 599 914 615 c 0,597,598
 900 630 900 630 900 649 c 256,599,600
 900 670 900 670 914 685 c 0,601,602
 929 699 929 699 949 700 c 256,603,604
 970 700 970 700 985 685 c 256,605,606
 999 671 999 671 1000 649 c 256,607,608
 1000 628 1000 628 985 615 c 0,609,610
 971 601 971 601 949 599 c 1,611,-1
 949 599 l 1,595,596
EndSplineSet
Validated: 5
EndChar

StartChar: six
Encoding: 54 54 22
Width: 1200
VWidth: 599
Flags: W
LayerCount: 2
Fore
SplineSet
150 0 m 1,0,1
 129 0 129 0 115 14 c 0,2,3
 101 29 101 29 100 50 c 256,4,5
 100 71 100 71 115 85 c 256,6,7
 129 99 129 99 150 100 c 0,8,9
 171 100 171 100 186 85 c 256,10,11
 200 71 200 71 200 50 c 256,12,13
 200 29 200 29 186 14 c 0,14,15
 172 0 172 0 150 0 c 1,16,-1
 150 0 l 1,0,1
250 0 m 1,17,18
 229 0 229 0 215 14 c 0,19,20
 201 29 201 29 200 50 c 256,21,22
 200 71 200 71 215 85 c 256,23,24
 229 99 229 99 250 100 c 256,25,26
 271 100 271 100 286 85 c 0,27,28
 300 71 300 71 300 50 c 256,29,30
 300 29 300 29 286 14 c 0,31,32
 271 0 271 0 250 0 c 1,33,-1
 250 0 l 1,17,18
350 0 m 1,34,35
 329 0 329 0 314 14 c 0,36,37
 300 29 300 29 300 50 c 256,38,39
 300 71 300 71 314 85 c 0,40,41
 329 99 329 99 350 100 c 256,42,43
 371 100 371 100 385 85 c 256,44,45
 399 71 399 71 400 50 c 256,46,47
 400 29 400 29 385 14 c 0,48,49
 371 0 371 0 350 0 c 1,50,-1
 350 0 l 1,34,35
450 0 m 1,51,52
 429 0 429 0 415 14 c 0,53,54
 401 29 401 29 400 50 c 256,55,56
 400 71 400 71 415 85 c 256,57,58
 429 99 429 99 450 100 c 0,59,60
 471 100 471 100 485 85 c 256,61,62
 499 71 499 71 500 50 c 256,63,64
 500 29 500 29 485 14 c 0,65,66
 471 0 471 0 450 0 c 1,67,-1
 450 0 l 1,51,52
550 0 m 1,68,69
 529 0 529 0 515 14 c 0,70,71
 501 29 501 29 500 50 c 256,72,73
 500 71 500 71 515 85 c 256,74,75
 529 99 529 99 550 100 c 256,76,77
 571 100 571 100 585 85 c 0,78,79
 599 71 599 71 599 50 c 256,80,81
 599 29 599 29 585 14 c 0,82,83
 570 0 570 0 550 0 c 1,84,-1
 550 0 l 1,68,69
649 0 m 1,85,86
 628 0 628 0 615 14 c 0,87,88
 601 29 601 29 599 50 c 256,89,90
 599 71 599 71 615 85 c 0,91,92
 630 99 630 99 649 100 c 256,93,94
 670 100 670 100 685 85 c 256,95,96
 699 71 699 71 700 50 c 256,97,98
 700 29 700 29 685 14 c 0,99,100
 671 0 671 0 649 0 c 1,101,-1
 649 0 l 1,85,86
749 0 m 1,102,103
 728 0 728 0 714 14 c 0,104,105
 700 29 700 29 700 50 c 256,106,107
 700 71 700 71 714 85 c 256,108,109
 728 99 728 99 749 100 c 0,110,111
 770 100 770 100 785 85 c 256,112,113
 799 71 799 71 799 50 c 256,114,115
 799 29 799 29 785 14 c 0,116,117
 771 0 771 0 749 0 c 1,118,-1
 749 0 l 1,102,103
850 0 m 1,119,120
 829 0 829 0 814 14 c 0,121,122
 800 29 800 29 799 50 c 256,123,124
 799 71 799 71 814 85 c 256,125,126
 828 99 828 99 850 100 c 256,127,128
 871 100 871 100 885 85 c 0,129,130
 899 71 899 71 900 50 c 256,131,132
 900 29 900 29 885 14 c 0,133,134
 870 0 870 0 850 0 c 1,135,-1
 850 0 l 1,119,120
50 100 m 1,136,137
 29 100 29 100 14 115 c 0,138,139
 0 129 0 129 0 150 c 0,140,141
 0 171 0 171 14 186 c 0,142,143
 29 200 29 200 50 200 c 256,144,145
 71 200 71 200 85 186 c 256,146,147
 99 172 99 172 100 150 c 0,148,149
 100 129 100 129 85 115 c 256,150,151
 71 101 71 101 50 100 c 1,152,-1
 50 100 l 1,136,137
150 100 m 1,153,154
 129 100 129 100 115 115 c 256,155,156
 101 129 101 129 100 150 c 0,157,158
 100 171 100 171 115 186 c 256,159,160
 129 200 129 200 150 200 c 0,161,162
 171 200 171 200 186 186 c 256,163,164
 200 172 200 172 200 150 c 0,165,166
 200 129 200 129 186 115 c 256,167,168
 172 101 172 101 150 100 c 1,169,-1
 150 100 l 1,153,154
850 100 m 1,170,171
 829 100 829 100 814 115 c 256,172,173
 800 129 800 129 799 150 c 0,174,175
 799 171 799 171 814 186 c 256,176,177
 828 200 828 200 850 200 c 256,178,179
 871 200 871 200 885 186 c 0,180,181
 899 172 899 172 900 150 c 0,182,183
 900 129 900 129 885 115 c 0,184,185
 870 101 870 101 850 100 c 1,186,-1
 850 100 l 1,170,171
949 100 m 1,187,188
 928 100 928 100 914 115 c 0,189,190
 900 129 900 129 900 150 c 0,191,192
 900 171 900 171 914 186 c 0,193,194
 929 200 929 200 949 200 c 256,195,196
 970 200 970 200 985 186 c 256,197,198
 999 172 999 172 1000 150 c 0,199,200
 1000 129 1000 129 985 115 c 256,201,202
 971 101 971 101 949 100 c 1,203,-1
 949 100 l 1,187,188
50 200 m 1,204,205
 29 200 29 200 14 215 c 0,206,207
 0 229 0 229 0 250 c 256,208,209
 0 271 0 271 14 286 c 0,210,211
 29 300 29 300 50 300 c 256,212,213
 71 300 71 300 85 286 c 0,214,215
 99 271 99 271 100 250 c 256,216,217
 100 229 100 229 85 215 c 256,218,219
 71 201 71 201 50 200 c 1,220,-1
 50 200 l 1,204,205
150 200 m 1,221,222
 129 200 129 200 115 215 c 256,223,224
 101 229 101 229 100 250 c 256,225,226
 100 271 100 271 115 286 c 0,227,228
 129 300 129 300 150 300 c 0,229,230
 171 300 171 300 186 286 c 0,231,232
 200 271 200 271 200 250 c 256,233,234
 200 229 200 229 186 215 c 256,235,236
 172 201 172 201 150 200 c 1,237,-1
 150 200 l 1,221,222
850 200 m 1,238,239
 829 200 829 200 814 215 c 256,240,241
 800 229 800 229 799 250 c 256,242,243
 799 271 799 271 814 286 c 0,244,245
 828 300 828 300 850 300 c 256,246,247
 871 300 871 300 885 286 c 0,248,249
 899 271 899 271 900 250 c 256,250,251
 900 229 900 229 885 215 c 0,252,253
 870 201 870 201 850 200 c 1,254,-1
 850 200 l 1,238,239
949 200 m 1,255,256
 928 200 928 200 914 215 c 0,257,258
 900 229 900 229 900 250 c 256,259,260
 900 271 900 271 914 286 c 0,261,262
 929 300 929 300 949 300 c 256,263,264
 970 300 970 300 985 286 c 0,265,266
 999 271 999 271 1000 250 c 256,267,268
 1000 229 1000 229 985 215 c 256,269,270
 971 201 971 201 949 200 c 1,271,-1
 949 200 l 1,255,256
50 300 m 1,272,273
 29 300 29 300 14 314 c 0,274,275
 0 329 0 329 0 350 c 256,276,277
 0 371 0 371 14 385 c 0,278,279
 29 399 29 399 50 400 c 256,280,281
 71 400 71 400 85 385 c 256,282,283
 99 371 99 371 100 350 c 256,284,285
 100 329 100 329 85 314 c 0,286,287
 71 300 71 300 50 300 c 1,288,-1
 50 300 l 1,272,273
150 300 m 1,289,290
 129 300 129 300 115 314 c 0,291,292
 101 329 101 329 100 350 c 256,293,294
 100 371 100 371 115 385 c 256,295,296
 129 399 129 399 150 400 c 0,297,298
 171 400 171 400 186 385 c 256,299,300
 200 371 200 371 200 350 c 256,301,302
 200 329 200 329 186 314 c 0,303,304
 172 300 172 300 150 300 c 1,305,-1
 150 300 l 1,289,290
250 300 m 1,306,307
 229 300 229 300 215 314 c 0,308,309
 201 329 201 329 200 350 c 256,310,311
 200 371 200 371 215 385 c 256,312,313
 229 399 229 399 250 400 c 256,314,315
 271 400 271 400 286 385 c 0,316,317
 300 371 300 371 300 350 c 256,318,319
 300 329 300 329 286 314 c 0,320,321
 271 300 271 300 250 300 c 1,322,-1
 250 300 l 1,306,307
350 300 m 1,323,324
 329 300 329 300 314 314 c 0,325,326
 300 329 300 329 300 350 c 256,327,328
 300 371 300 371 314 385 c 0,329,330
 329 399 329 399 350 400 c 256,331,332
 371 400 371 400 385 385 c 256,333,334
 399 371 399 371 400 350 c 256,335,336
 400 329 400 329 385 314 c 0,337,338
 371 300 371 300 350 300 c 1,339,-1
 350 300 l 1,323,324
450 300 m 1,340,341
 429 300 429 300 415 314 c 0,342,343
 401 329 401 329 400 350 c 256,344,345
 400 371 400 371 415 385 c 256,346,347
 429 399 429 399 450 400 c 0,348,349
 471 400 471 400 485 385 c 256,350,351
 499 371 499 371 500 350 c 256,352,353
 500 329 500 329 485 314 c 0,354,355
 471 300 471 300 450 300 c 1,356,-1
 450 300 l 1,340,341
550 300 m 1,357,358
 529 300 529 300 515 314 c 0,359,360
 501 329 501 329 500 350 c 256,361,362
 500 371 500 371 515 385 c 256,363,364
 529 399 529 399 550 400 c 256,365,366
 571 400 571 400 585 385 c 0,367,368
 599 371 599 371 599 350 c 256,369,370
 599 329 599 329 585 314 c 0,371,372
 570 300 570 300 550 300 c 1,373,-1
 550 300 l 1,357,358
649 300 m 1,374,375
 628 300 628 300 615 314 c 0,376,377
 601 329 601 329 599 350 c 256,378,379
 599 371 599 371 615 385 c 0,380,381
 630 399 630 399 649 400 c 256,382,383
 670 400 670 400 685 385 c 256,384,385
 699 371 699 371 700 350 c 256,386,387
 700 329 700 329 685 314 c 0,388,389
 671 300 671 300 649 300 c 1,390,-1
 649 300 l 1,374,375
749 300 m 1,391,392
 728 300 728 300 714 314 c 0,393,394
 700 329 700 329 700 350 c 256,395,396
 700 371 700 371 714 385 c 256,397,398
 728 399 728 399 749 400 c 0,399,400
 770 400 770 400 785 385 c 256,401,402
 799 371 799 371 799 350 c 256,403,404
 799 329 799 329 785 314 c 0,405,406
 771 300 771 300 749 300 c 1,407,-1
 749 300 l 1,391,392
50 400 m 1,408,409
 29 400 29 400 14 415 c 0,410,411
 0 429 0 429 0 450 c 0,412,413
 0 471 0 471 14 485 c 0,414,415
 29 499 29 499 50 500 c 256,416,417
 71 500 71 500 85 485 c 256,418,419
 99 471 99 471 100 450 c 0,420,421
 100 429 100 429 85 415 c 256,422,423
 71 401 71 401 50 400 c 1,424,-1
 50 400 l 1,408,409
150 400 m 1,425,426
 129 400 129 400 115 415 c 256,427,428
 101 429 101 429 100 450 c 0,429,430
 100 471 100 471 115 485 c 256,431,432
 129 499 129 499 150 500 c 0,433,434
 171 500 171 500 186 485 c 256,435,436
 200 471 200 471 200 450 c 0,437,438
 200 429 200 429 186 415 c 256,439,440
 172 401 172 401 150 400 c 1,441,-1
 150 400 l 1,425,426
50 500 m 1,442,443
 29 500 29 500 14 515 c 0,444,445
 0 529 0 529 0 550 c 256,446,447
 0 571 0 571 14 585 c 0,448,449
 29 599 29 599 50 599 c 256,450,451
 71 599 71 599 85 585 c 0,452,453
 99 570 99 570 100 550 c 256,454,455
 100 529 100 529 85 515 c 256,456,457
 71 501 71 501 50 500 c 1,458,-1
 50 500 l 1,442,443
150 500 m 1,459,460
 129 500 129 500 115 515 c 256,461,462
 101 529 101 529 100 550 c 256,463,464
 100 571 100 571 115 585 c 0,465,466
 129 599 129 599 150 599 c 0,467,468
 171 599 171 599 186 585 c 0,469,470
 200 570 200 570 200 550 c 256,471,472
 200 529 200 529 186 515 c 256,473,474
 172 501 172 501 150 500 c 1,475,-1
 150 500 l 1,459,460
150 599 m 1,476,477
 129 599 129 599 115 615 c 0,478,479
 101 630 101 630 100 649 c 256,480,481
 100 670 100 670 115 685 c 256,482,483
 129 699 129 699 150 700 c 0,484,485
 171 700 171 700 186 685 c 256,486,487
 200 671 200 671 200 649 c 256,488,489
 200 628 200 628 186 615 c 0,490,491
 172 601 172 601 150 599 c 1,492,-1
 150 599 l 1,476,477
250 599 m 1,493,494
 229 599 229 599 215 615 c 0,495,496
 201 630 201 630 200 649 c 256,497,498
 200 670 200 670 215 685 c 256,499,500
 229 699 229 699 250 700 c 256,501,502
 271 700 271 700 286 685 c 0,503,504
 300 671 300 671 300 649 c 256,505,506
 300 628 300 628 286 615 c 0,507,508
 271 601 271 601 250 599 c 1,509,-1
 250 599 l 1,493,494
350 599 m 1,510,511
 329 599 329 599 314 615 c 0,512,513
 300 630 300 630 300 649 c 256,514,515
 300 670 300 670 314 685 c 0,516,517
 329 699 329 699 350 700 c 256,518,519
 371 700 371 700 385 685 c 256,520,521
 399 671 399 671 400 649 c 256,522,523
 400 628 400 628 385 615 c 0,524,525
 371 601 371 601 350 599 c 1,526,-1
 350 599 l 1,510,511
450 599 m 1,527,528
 429 599 429 599 415 615 c 0,529,530
 401 630 401 630 400 649 c 256,531,532
 400 670 400 670 415 685 c 256,533,534
 429 699 429 699 450 700 c 0,535,536
 471 700 471 700 485 685 c 256,537,538
 499 671 499 671 500 649 c 256,539,540
 500 628 500 628 485 615 c 0,541,542
 471 601 471 601 450 599 c 1,543,-1
 450 599 l 1,527,528
550 599 m 1,544,545
 529 599 529 599 515 615 c 0,546,547
 501 630 501 630 500 649 c 256,548,549
 500 670 500 670 515 685 c 256,550,551
 529 699 529 699 550 700 c 256,552,553
 571 700 571 700 585 685 c 0,554,555
 599 671 599 671 599 649 c 256,556,557
 599 628 599 628 585 615 c 0,558,559
 570 601 570 601 550 599 c 1,560,-1
 550 599 l 1,544,545
649 599 m 1,561,562
 628 599 628 599 615 615 c 0,563,564
 601 630 601 630 599 649 c 256,565,566
 599 670 599 670 615 685 c 0,567,568
 630 699 630 699 649 700 c 256,569,570
 670 700 670 700 685 685 c 256,571,572
 699 671 699 671 700 649 c 256,573,574
 700 628 700 628 685 615 c 0,575,576
 671 601 671 601 649 599 c 1,577,-1
 649 599 l 1,561,562
749 599 m 1,578,579
 728 599 728 599 714 615 c 0,580,581
 700 630 700 630 700 649 c 256,582,583
 700 670 700 670 714 685 c 256,584,585
 728 699 728 699 749 700 c 0,586,587
 770 700 770 700 785 685 c 256,588,589
 799 671 799 671 799 649 c 256,590,591
 799 628 799 628 785 615 c 0,592,593
 771 601 771 601 749 599 c 1,594,-1
 749 599 l 1,578,579
850 599 m 1,595,596
 829 599 829 599 814 615 c 0,597,598
 800 630 800 630 799 649 c 256,599,600
 799 670 799 670 814 685 c 256,601,602
 828 699 828 699 850 700 c 256,603,604
 871 700 871 700 885 685 c 0,605,606
 899 671 899 671 900 649 c 256,607,608
 900 628 900 628 885 615 c 0,609,610
 870 601 870 601 850 599 c 1,611,-1
 850 599 l 1,595,596
EndSplineSet
Validated: 5
EndChar

StartChar: seven
Encoding: 55 55 23
Width: 1200
VWidth: 599
Flags: W
LayerCount: 2
Fore
SplineSet
350 0 m 1,0,1
 329 0 329 0 314 14 c 0,2,3
 300 29 300 29 300 50 c 256,4,5
 300 71 300 71 314 85 c 0,6,7
 329 99 329 99 350 100 c 256,8,9
 371 100 371 100 385 85 c 256,10,11
 399 71 399 71 400 50 c 256,12,13
 400 29 400 29 385 14 c 0,14,15
 371 0 371 0 350 0 c 1,16,-1
 350 0 l 1,0,1
450 0 m 1,17,18
 429 0 429 0 415 14 c 0,19,20
 401 29 401 29 400 50 c 256,21,22
 400 71 400 71 415 85 c 256,23,24
 429 99 429 99 450 100 c 0,25,26
 471 100 471 100 485 85 c 256,27,28
 499 71 499 71 500 50 c 256,29,30
 500 29 500 29 485 14 c 0,31,32
 471 0 471 0 450 0 c 1,33,-1
 450 0 l 1,17,18
350 100 m 1,34,35
 329 100 329 100 314 115 c 0,36,37
 300 129 300 129 300 150 c 0,38,39
 300 171 300 171 314 186 c 0,40,41
 329 200 329 200 350 200 c 256,42,43
 371 200 371 200 385 186 c 256,44,45
 399 172 399 172 400 150 c 0,46,47
 400 129 400 129 385 115 c 256,48,49
 371 101 371 101 350 100 c 1,50,-1
 350 100 l 1,34,35
450 100 m 1,51,52
 429 100 429 100 415 115 c 256,53,54
 401 129 401 129 400 150 c 0,55,56
 400 171 400 171 415 186 c 256,57,58
 429 200 429 200 450 200 c 0,59,60
 471 200 471 200 485 186 c 256,61,62
 499 172 499 172 500 150 c 0,63,64
 500 129 500 129 485 115 c 256,65,66
 471 101 471 101 450 100 c 1,67,-1
 450 100 l 1,51,52
450 200 m 1,68,69
 429 200 429 200 415 215 c 256,70,71
 401 229 401 229 400 250 c 256,72,73
 400 271 400 271 415 286 c 0,74,75
 429 300 429 300 450 300 c 0,76,77
 471 300 471 300 485 286 c 0,78,79
 499 271 499 271 500 250 c 256,80,81
 500 229 500 229 485 215 c 256,82,83
 471 201 471 201 450 200 c 1,84,-1
 450 200 l 1,68,69
550 200 m 1,85,86
 529 200 529 200 515 215 c 256,87,88
 501 229 501 229 500 250 c 256,89,90
 500 271 500 271 515 286 c 0,91,92
 529 300 529 300 550 300 c 256,93,94
 571 300 571 300 585 286 c 0,95,96
 599 271 599 271 599 250 c 256,97,98
 599 229 599 229 585 215 c 0,99,100
 570 201 570 201 550 200 c 1,101,-1
 550 200 l 1,85,86
550 300 m 1,102,103
 529 300 529 300 515 314 c 0,104,105
 501 329 501 329 500 350 c 256,106,107
 500 371 500 371 515 385 c 256,108,109
 529 399 529 399 550 400 c 256,110,111
 571 400 571 400 585 385 c 0,112,113
 599 371 599 371 599 350 c 256,114,115
 599 329 599 329 585 314 c 0,116,117
 570 300 570 300 550 300 c 1,118,-1
 550 300 l 1,102,103
649 300 m 1,119,120
 628 300 628 300 615 314 c 0,121,122
 601 329 601 329 599 350 c 256,123,124
 599 371 599 371 615 385 c 0,125,126
 630 399 630 399 649 400 c 256,127,128
 670 400 670 400 685 385 c 256,129,130
 699 371 699 371 700 350 c 256,131,132
 700 329 700 329 685 314 c 0,133,134
 671 300 671 300 649 300 c 1,135,-1
 649 300 l 1,119,120
649 400 m 1,136,137
 628 400 628 400 615 415 c 0,138,139
 601 429 601 429 599 450 c 0,140,141
 599 471 599 471 615 485 c 0,142,143
 630 499 630 499 649 500 c 256,144,145
 670 500 670 500 685 485 c 256,146,147
 699 471 699 471 700 450 c 0,148,149
 700 429 700 429 685 415 c 256,150,151
 671 401 671 401 649 400 c 1,152,-1
 649 400 l 1,136,137
749 400 m 1,153,154
 728 400 728 400 714 415 c 256,155,156
 700 429 700 429 700 450 c 0,157,158
 700 471 700 471 714 485 c 256,159,160
 728 499 728 499 749 500 c 0,161,162
 770 500 770 500 785 485 c 256,163,164
 799 471 799 471 799 450 c 0,165,166
 799 429 799 429 785 415 c 256,167,168
 771 401 771 401 749 400 c 1,169,-1
 749 400 l 1,153,154
749 500 m 1,170,171
 728 500 728 500 714 515 c 256,172,173
 700 529 700 529 700 550 c 256,174,175
 700 571 700 571 714 585 c 0,176,177
 728 599 728 599 749 599 c 0,178,179
 770 599 770 599 785 585 c 0,180,181
 799 570 799 570 799 550 c 256,182,183
 799 529 799 529 785 515 c 256,184,185
 771 501 771 501 749 500 c 1,186,-1
 749 500 l 1,170,171
850 500 m 1,187,188
 829 500 829 500 814 515 c 256,189,190
 800 529 800 529 799 550 c 256,191,192
 799 571 799 571 814 585 c 0,193,194
 828 599 828 599 850 599 c 256,195,196
 871 599 871 599 885 585 c 0,197,198
 899 570 899 570 900 550 c 256,199,200
 900 529 900 529 885 515 c 0,201,202
 870 501 870 501 850 500 c 1,203,-1
 850 500 l 1,187,188
50 599 m 1,204,205
 29 599 29 599 14 615 c 0,206,207
 0 630 0 630 0 649 c 256,208,209
 0 670 0 670 14 685 c 0,210,211
 29 699 29 699 50 700 c 256,212,213
 71 700 71 700 85 685 c 256,214,215
 99 671 99 671 100 649 c 256,216,217
 100 628 100 628 85 615 c 0,218,219
 71 601 71 601 50 599 c 1,220,-1
 50 599 l 1,204,205
150 599 m 1,221,222
 129 599 129 599 115 615 c 0,223,224
 101 630 101 630 100 649 c 256,225,226
 100 670 100 670 115 685 c 256,227,228
 129 699 129 699 150 700 c 0,229,230
 171 700 171 700 186 685 c 256,231,232
 200 671 200 671 200 649 c 256,233,234
 200 628 200 628 186 615 c 0,235,236
 172 601 172 601 150 599 c 1,237,-1
 150 599 l 1,221,222
250 599 m 1,238,239
 229 599 229 599 215 615 c 0,240,241
 201 630 201 630 200 649 c 256,242,243
 200 670 200 670 215 685 c 256,244,245
 229 699 229 699 250 700 c 256,246,247
 271 700 271 700 286 685 c 0,248,249
 300 671 300 671 300 649 c 256,250,251
 300 628 300 628 286 615 c 0,252,253
 271 601 271 601 250 599 c 1,254,-1
 250 599 l 1,238,239
350 599 m 1,255,256
 329 599 329 599 314 615 c 0,257,258
 300 630 300 630 300 649 c 256,259,260
 300 670 300 670 314 685 c 0,261,262
 329 699 329 699 350 700 c 256,263,264
 371 700 371 700 385 685 c 256,265,266
 399 671 399 671 400 649 c 256,267,268
 400 628 400 628 385 615 c 0,269,270
 371 601 371 601 350 599 c 1,271,-1
 350 599 l 1,255,256
450 599 m 1,272,273
 429 599 429 599 415 615 c 0,274,275
 401 630 401 630 400 649 c 256,276,277
 400 670 400 670 415 685 c 256,278,279
 429 699 429 699 450 700 c 0,280,281
 471 700 471 700 485 685 c 256,282,283
 499 671 499 671 500 649 c 256,284,285
 500 628 500 628 485 615 c 0,286,287
 471 601 471 601 450 599 c 1,288,-1
 450 599 l 1,272,273
550 599 m 1,289,290
 529 599 529 599 515 615 c 0,291,292
 501 630 501 630 500 649 c 256,293,294
 500 670 500 670 515 685 c 256,295,296
 529 699 529 699 550 700 c 256,297,298
 571 700 571 700 585 685 c 0,299,300
 599 671 599 671 599 649 c 256,301,302
 599 628 599 628 585 615 c 0,303,304
 570 601 570 601 550 599 c 1,305,-1
 550 599 l 1,289,290
649 599 m 1,306,307
 628 599 628 599 615 615 c 0,308,309
 601 630 601 630 599 649 c 256,310,311
 599 670 599 670 615 685 c 0,312,313
 630 699 630 699 649 700 c 256,314,315
 670 700 670 700 685 685 c 256,316,317
 699 671 699 671 700 649 c 256,318,319
 700 628 700 628 685 615 c 0,320,321
 671 601 671 601 649 599 c 1,322,-1
 649 599 l 1,306,307
749 599 m 1,323,324
 728 599 728 599 714 615 c 0,325,326
 700 630 700 630 700 649 c 256,327,328
 700 670 700 670 714 685 c 256,329,330
 728 699 728 699 749 700 c 0,331,332
 770 700 770 700 785 685 c 256,333,334
 799 671 799 671 799 649 c 256,335,336
 799 628 799 628 785 615 c 0,337,338
 771 601 771 601 749 599 c 1,339,-1
 749 599 l 1,323,324
850 599 m 1,340,341
 829 599 829 599 814 615 c 0,342,343
 800 630 800 630 799 649 c 256,344,345
 799 670 799 670 814 685 c 256,346,347
 828 699 828 699 850 700 c 256,348,349
 871 700 871 700 885 685 c 0,350,351
 899 671 899 671 900 649 c 256,352,353
 900 628 900 628 885 615 c 0,354,355
 870 601 870 601 850 599 c 1,356,-1
 850 599 l 1,340,341
949 599 m 1,357,358
 928 599 928 599 914 615 c 0,359,360
 900 630 900 630 900 649 c 256,361,362
 900 670 900 670 914 685 c 0,363,364
 929 699 929 699 949 700 c 256,365,366
 970 700 970 700 985 685 c 256,367,368
 999 671 999 671 1000 649 c 256,369,370
 1000 628 1000 628 985 615 c 0,371,372
 971 601 971 601 949 599 c 1,373,-1
 949 599 l 1,357,358
EndSplineSet
Validated: 5
EndChar

StartChar: eight
Encoding: 56 56 24
Width: 1200
VWidth: 599
Flags: W
LayerCount: 2
Fore
SplineSet
150 0 m 1,0,1
 129 0 129 0 115 14 c 0,2,3
 101 29 101 29 100 50 c 256,4,5
 100 71 100 71 115 85 c 256,6,7
 129 99 129 99 150 100 c 0,8,9
 171 100 171 100 186 85 c 256,10,11
 200 71 200 71 200 50 c 256,12,13
 200 29 200 29 186 14 c 0,14,15
 172 0 172 0 150 0 c 1,16,-1
 150 0 l 1,0,1
250 0 m 1,17,18
 229 0 229 0 215 14 c 0,19,20
 201 29 201 29 200 50 c 256,21,22
 200 71 200 71 215 85 c 256,23,24
 229 99 229 99 250 100 c 256,25,26
 271 100 271 100 286 85 c 0,27,28
 300 71 300 71 300 50 c 256,29,30
 300 29 300 29 286 14 c 0,31,32
 271 0 271 0 250 0 c 1,33,-1
 250 0 l 1,17,18
350 0 m 1,34,35
 329 0 329 0 314 14 c 0,36,37
 300 29 300 29 300 50 c 256,38,39
 300 71 300 71 314 85 c 0,40,41
 329 99 329 99 350 100 c 256,42,43
 371 100 371 100 385 85 c 256,44,45
 399 71 399 71 400 50 c 256,46,47
 400 29 400 29 385 14 c 0,48,49
 371 0 371 0 350 0 c 1,50,-1
 350 0 l 1,34,35
450 0 m 1,51,52
 429 0 429 0 415 14 c 0,53,54
 401 29 401 29 400 50 c 256,55,56
 400 71 400 71 415 85 c 256,57,58
 429 99 429 99 450 100 c 0,59,60
 471 100 471 100 485 85 c 256,61,62
 499 71 499 71 500 50 c 256,63,64
 500 29 500 29 485 14 c 0,65,66
 471 0 471 0 450 0 c 1,67,-1
 450 0 l 1,51,52
550 0 m 1,68,69
 529 0 529 0 515 14 c 0,70,71
 501 29 501 29 500 50 c 256,72,73
 500 71 500 71 515 85 c 256,74,75
 529 99 529 99 550 100 c 256,76,77
 571 100 571 100 585 85 c 0,78,79
 599 71 599 71 599 50 c 256,80,81
 599 29 599 29 585 14 c 0,82,83
 570 0 570 0 550 0 c 1,84,-1
 550 0 l 1,68,69
649 0 m 1,85,86
 628 0 628 0 615 14 c 0,87,88
 601 29 601 29 599 50 c 256,89,90
 599 71 599 71 615 85 c 0,91,92
 630 99 630 99 649 100 c 256,93,94
 670 100 670 100 685 85 c 256,95,96
 699 71 699 71 700 50 c 256,97,98
 700 29 700 29 685 14 c 0,99,100
 671 0 671 0 649 0 c 1,101,-1
 649 0 l 1,85,86
749 0 m 1,102,103
 728 0 728 0 714 14 c 0,104,105
 700 29 700 29 700 50 c 256,106,107
 700 71 700 71 714 85 c 256,108,109
 728 99 728 99 749 100 c 0,110,111
 770 100 770 100 785 85 c 256,112,113
 799 71 799 71 799 50 c 256,114,115
 799 29 799 29 785 14 c 0,116,117
 771 0 771 0 749 0 c 1,118,-1
 749 0 l 1,102,103
850 0 m 1,119,120
 829 0 829 0 814 14 c 0,121,122
 800 29 800 29 799 50 c 256,123,124
 799 71 799 71 814 85 c 256,125,126
 828 99 828 99 850 100 c 256,127,128
 871 100 871 100 885 85 c 0,129,130
 899 71 899 71 900 50 c 256,131,132
 900 29 900 29 885 14 c 0,133,134
 870 0 870 0 850 0 c 1,135,-1
 850 0 l 1,119,120
50 100 m 1,136,137
 29 100 29 100 14 115 c 0,138,139
 0 129 0 129 0 150 c 0,140,141
 0 171 0 171 14 186 c 0,142,143
 29 200 29 200 50 200 c 256,144,145
 71 200 71 200 85 186 c 256,146,147
 99 172 99 172 100 150 c 0,148,149
 100 129 100 129 85 115 c 256,150,151
 71 101 71 101 50 100 c 1,152,-1
 50 100 l 1,136,137
150 100 m 1,153,154
 129 100 129 100 115 115 c 256,155,156
 101 129 101 129 100 150 c 0,157,158
 100 171 100 171 115 186 c 256,159,160
 129 200 129 200 150 200 c 0,161,162
 171 200 171 200 186 186 c 256,163,164
 200 172 200 172 200 150 c 0,165,166
 200 129 200 129 186 115 c 256,167,168
 172 101 172 101 150 100 c 1,169,-1
 150 100 l 1,153,154
850 100 m 1,170,171
 829 100 829 100 814 115 c 256,172,173
 800 129 800 129 799 150 c 0,174,175
 799 171 799 171 814 186 c 256,176,177
 828 200 828 200 850 200 c 256,178,179
 871 200 871 200 885 186 c 0,180,181
 899 172 899 172 900 150 c 0,182,183
 900 129 900 129 885 115 c 0,184,185
 870 101 870 101 850 100 c 1,186,-1
 850 100 l 1,170,171
949 100 m 1,187,188
 928 100 928 100 914 115 c 0,189,190
 900 129 900 129 900 150 c 0,191,192
 900 171 900 171 914 186 c 0,193,194
 929 200 929 200 949 200 c 256,195,196
 970 200 970 200 985 186 c 256,197,198
 999 172 999 172 1000 150 c 0,199,200
 1000 129 1000 129 985 115 c 256,201,202
 971 101 971 101 949 100 c 1,203,-1
 949 100 l 1,187,188
50 200 m 1,204,205
 29 200 29 200 14 215 c 0,206,207
 0 229 0 229 0 250 c 256,208,209
 0 271 0 271 14 286 c 0,210,211
 29 300 29 300 50 300 c 256,212,213
 71 300 71 300 85 286 c 0,214,215
 99 271 99 271 100 250 c 256,216,217
 100 229 100 229 85 215 c 256,218,219
 71 201 71 201 50 200 c 1,220,-1
 50 200 l 1,204,205
150 200 m 1,221,222
 129 200 129 200 115 215 c 256,223,224
 101 229 101 229 100 250 c 256,225,226
 100 271 100 271 115 286 c 0,227,228
 129 300 129 300 150 300 c 0,229,230
 171 300 171 300 186 286 c 0,231,232
 200 271 200 271 200 250 c 256,233,234
 200 229 200 229 186 215 c 256,235,236
 172 201 172 201 150 200 c 1,237,-1
 150 200 l 1,221,222
850 200 m 1,238,239
 829 200 829 200 814 215 c 256,240,241
 800 229 800 229 799 250 c 256,242,243
 799 271 799 271 814 286 c 0,244,245
 828 300 828 300 850 300 c 256,246,247
 871 300 871 300 885 286 c 0,248,249
 899 271 899 271 900 250 c 256,250,251
 900 229 900 229 885 215 c 0,252,253
 870 201 870 201 850 200 c 1,254,-1
 850 200 l 1,238,239
949 200 m 1,255,256
 928 200 928 200 914 215 c 0,257,258
 900 229 900 229 900 250 c 256,259,260
 900 271 900 271 914 286 c 0,261,262
 929 300 929 300 949 300 c 256,263,264
 970 300 970 300 985 286 c 0,265,266
 999 271 999 271 1000 250 c 256,267,268
 1000 229 1000 229 985 215 c 256,269,270
 971 201 971 201 949 200 c 1,271,-1
 949 200 l 1,255,256
250 300 m 1,272,273
 229 300 229 300 215 314 c 0,274,275
 201 329 201 329 200 350 c 256,276,277
 200 371 200 371 215 385 c 256,278,279
 229 399 229 399 250 400 c 256,280,281
 271 400 271 400 286 385 c 0,282,283
 300 371 300 371 300 350 c 256,284,285
 300 329 300 329 286 314 c 0,286,287
 271 300 271 300 250 300 c 1,288,-1
 250 300 l 1,272,273
350 300 m 1,289,290
 329 300 329 300 314 314 c 0,291,292
 300 329 300 329 300 350 c 256,293,294
 300 371 300 371 314 385 c 0,295,296
 329 399 329 399 350 400 c 256,297,298
 371 400 371 400 385 385 c 256,299,300
 399 371 399 371 400 350 c 256,301,302
 400 329 400 329 385 314 c 0,303,304
 371 300 371 300 350 300 c 1,305,-1
 350 300 l 1,289,290
450 300 m 1,306,307
 429 300 429 300 415 314 c 0,308,309
 401 329 401 329 400 350 c 256,310,311
 400 371 400 371 415 385 c 256,312,313
 429 399 429 399 450 400 c 0,314,315
 471 400 471 400 485 385 c 256,316,317
 499 371 499 371 500 350 c 256,318,319
 500 329 500 329 485 314 c 0,320,321
 471 300 471 300 450 300 c 1,322,-1
 450 300 l 1,306,307
550 300 m 1,323,324
 529 300 529 300 515 314 c 0,325,326
 501 329 501 329 500 350 c 256,327,328
 500 371 500 371 515 385 c 256,329,330
 529 399 529 399 550 400 c 256,331,332
 571 400 571 400 585 385 c 0,333,334
 599 371 599 371 599 350 c 256,335,336
 599 329 599 329 585 314 c 0,337,338
 570 300 570 300 550 300 c 1,339,-1
 550 300 l 1,323,324
649 300 m 1,340,341
 628 300 628 300 615 314 c 0,342,343
 601 329 601 329 599 350 c 256,344,345
 599 371 599 371 615 385 c 0,346,347
 630 399 630 399 649 400 c 256,348,349
 670 400 670 400 685 385 c 256,350,351
 699 371 699 371 700 350 c 256,352,353
 700 329 700 329 685 314 c 0,354,355
 671 300 671 300 649 300 c 1,356,-1
 649 300 l 1,340,341
749 300 m 1,357,358
 728 300 728 300 714 314 c 0,359,360
 700 329 700 329 700 350 c 256,361,362
 700 371 700 371 714 385 c 256,363,364
 728 399 728 399 749 400 c 0,365,366
 770 400 770 400 785 385 c 256,367,368
 799 371 799 371 799 350 c 256,369,370
 799 329 799 329 785 314 c 0,371,372
 771 300 771 300 749 300 c 1,373,-1
 749 300 l 1,357,358
50 400 m 1,374,375
 29 400 29 400 14 415 c 0,376,377
 0 429 0 429 0 450 c 0,378,379
 0 471 0 471 14 485 c 0,380,381
 29 499 29 499 50 500 c 256,382,383
 71 500 71 500 85 485 c 256,384,385
 99 471 99 471 100 450 c 0,386,387
 100 429 100 429 85 415 c 256,388,389
 71 401 71 401 50 400 c 1,390,-1
 50 400 l 1,374,375
150 400 m 1,391,392
 129 400 129 400 115 415 c 256,393,394
 101 429 101 429 100 450 c 0,395,396
 100 471 100 471 115 485 c 256,397,398
 129 499 129 499 150 500 c 0,399,400
 171 500 171 500 186 485 c 256,401,402
 200 471 200 471 200 450 c 0,403,404
 200 429 200 429 186 415 c 256,405,406
 172 401 172 401 150 400 c 1,407,-1
 150 400 l 1,391,392
850 400 m 1,408,409
 829 400 829 400 814 415 c 256,410,411
 800 429 800 429 799 450 c 0,412,413
 799 471 799 471 814 485 c 256,414,415
 828 499 828 499 850 500 c 256,416,417
 871 500 871 500 885 485 c 0,418,419
 899 471 899 471 900 450 c 0,420,421
 900 429 900 429 885 415 c 0,422,423
 870 401 870 401 850 400 c 1,424,-1
 850 400 l 1,408,409
949 400 m 1,425,426
 928 400 928 400 914 415 c 0,427,428
 900 429 900 429 900 450 c 0,429,430
 900 471 900 471 914 485 c 0,431,432
 929 499 929 499 949 500 c 256,433,434
 970 500 970 500 985 485 c 256,435,436
 999 471 999 471 1000 450 c 0,437,438
 1000 429 1000 429 985 415 c 256,439,440
 971 401 971 401 949 400 c 1,441,-1
 949 400 l 1,425,426
50 500 m 1,442,443
 29 500 29 500 14 515 c 0,444,445
 0 529 0 529 0 550 c 256,446,447
 0 571 0 571 14 585 c 0,448,449
 29 599 29 599 50 599 c 256,450,451
 71 599 71 599 85 585 c 0,452,453
 99 570 99 570 100 550 c 256,454,455
 100 529 100 529 85 515 c 256,456,457
 71 501 71 501 50 500 c 1,458,-1
 50 500 l 1,442,443
150 500 m 1,459,460
 129 500 129 500 115 515 c 256,461,462
 101 529 101 529 100 550 c 256,463,464
 100 571 100 571 115 585 c 0,465,466
 129 599 129 599 150 599 c 0,467,468
 171 599 171 599 186 585 c 0,469,470
 200 570 200 570 200 550 c 256,471,472
 200 529 200 529 186 515 c 256,473,474
 172 501 172 501 150 500 c 1,475,-1
 150 500 l 1,459,460
850 500 m 1,476,477
 829 500 829 500 814 515 c 256,478,479
 800 529 800 529 799 550 c 256,480,481
 799 571 799 571 814 585 c 0,482,483
 828 599 828 599 850 599 c 256,484,485
 871 599 871 599 885 585 c 0,486,487
 899 570 899 570 900 550 c 256,488,489
 900 529 900 529 885 515 c 0,490,491
 870 501 870 501 850 500 c 1,492,-1
 850 500 l 1,476,477
949 500 m 1,493,494
 928 500 928 500 914 515 c 0,495,496
 900 529 900 529 900 550 c 256,497,498
 900 571 900 571 914 585 c 0,499,500
 929 599 929 599 949 599 c 256,501,502
 970 599 970 599 985 585 c 0,503,504
 999 570 999 570 1000 550 c 256,505,506
 1000 529 1000 529 985 515 c 256,507,508
 971 501 971 501 949 500 c 1,509,-1
 949 500 l 1,493,494
150 599 m 1,510,511
 129 599 129 599 115 615 c 0,512,513
 101 630 101 630 100 649 c 256,514,515
 100 670 100 670 115 685 c 256,516,517
 129 699 129 699 150 700 c 0,518,519
 171 700 171 700 186 685 c 256,520,521
 200 671 200 671 200 649 c 256,522,523
 200 628 200 628 186 615 c 0,524,525
 172 601 172 601 150 599 c 1,526,-1
 150 599 l 1,510,511
250 599 m 1,527,528
 229 599 229 599 215 615 c 0,529,530
 201 630 201 630 200 649 c 256,531,532
 200 670 200 670 215 685 c 256,533,534
 229 699 229 699 250 700 c 256,535,536
 271 700 271 700 286 685 c 0,537,538
 300 671 300 671 300 649 c 256,539,540
 300 628 300 628 286 615 c 0,541,542
 271 601 271 601 250 599 c 1,543,-1
 250 599 l 1,527,528
350 599 m 1,544,545
 329 599 329 599 314 615 c 0,546,547
 300 630 300 630 300 649 c 256,548,549
 300 670 300 670 314 685 c 0,550,551
 329 699 329 699 350 700 c 256,552,553
 371 700 371 700 385 685 c 256,554,555
 399 671 399 671 400 649 c 256,556,557
 400 628 400 628 385 615 c 0,558,559
 371 601 371 601 350 599 c 1,560,-1
 350 599 l 1,544,545
450 599 m 1,561,562
 429 599 429 599 415 615 c 0,563,564
 401 630 401 630 400 649 c 256,565,566
 400 670 400 670 415 685 c 256,567,568
 429 699 429 699 450 700 c 0,569,570
 471 700 471 700 485 685 c 256,571,572
 499 671 499 671 500 649 c 256,573,574
 500 628 500 628 485 615 c 0,575,576
 471 601 471 601 450 599 c 1,577,-1
 450 599 l 1,561,562
550 599 m 1,578,579
 529 599 529 599 515 615 c 0,580,581
 501 630 501 630 500 649 c 256,582,583
 500 670 500 670 515 685 c 256,584,585
 529 699 529 699 550 700 c 256,586,587
 571 700 571 700 585 685 c 0,588,589
 599 671 599 671 599 649 c 256,590,591
 599 628 599 628 585 615 c 0,592,593
 570 601 570 601 550 599 c 1,594,-1
 550 599 l 1,578,579
649 599 m 1,595,596
 628 599 628 599 615 615 c 0,597,598
 601 630 601 630 599 649 c 256,599,600
 599 670 599 670 615 685 c 0,601,602
 630 699 630 699 649 700 c 256,603,604
 670 700 670 700 685 685 c 256,605,606
 699 671 699 671 700 649 c 256,607,608
 700 628 700 628 685 615 c 0,609,610
 671 601 671 601 649 599 c 1,611,-1
 649 599 l 1,595,596
749 599 m 1,612,613
 728 599 728 599 714 615 c 0,614,615
 700 630 700 630 700 649 c 256,616,617
 700 670 700 670 714 685 c 256,618,619
 728 699 728 699 749 700 c 0,620,621
 770 700 770 700 785 685 c 256,622,623
 799 671 799 671 799 649 c 256,624,625
 799 628 799 628 785 615 c 0,626,627
 771 601 771 601 749 599 c 1,628,-1
 749 599 l 1,612,613
850 599 m 1,629,630
 829 599 829 599 814 615 c 0,631,632
 800 630 800 630 799 649 c 256,633,634
 799 670 799 670 814 685 c 256,635,636
 828 699 828 699 850 700 c 256,637,638
 871 700 871 700 885 685 c 0,639,640
 899 671 899 671 900 649 c 256,641,642
 900 628 900 628 885 615 c 0,643,644
 870 601 870 601 850 599 c 1,645,-1
 850 599 l 1,629,630
EndSplineSet
Validated: 5
EndChar

